LinguisticsPro-MediumItalic.ufo
<glyph name="exclam" format="2">
  <advance width="270"/>
  <unicode hex="0021"/>
  <outline>
    <contour>
      <point x="161" y="211.667" type="line"/>
      <point x="209.666" y="630.334" type="line" smooth="yes"/>
      <point x="215.333" y="677.667"/>
      <point x="228.666" y="707"/>
      <point x="291.333" y="707" type="curve" smooth="yes"/>
      <point x="355.666" y="707"/>
      <point x="355.666" y="677"/>
      <point x="338.333" y="627" type="curve" smooth="yes"/>
      <point x="198" y="211.667" type="line"/>
    </contour>
    <contour>
      <point x="77" y="52.333" type="curve" smooth="yes"/>
      <point x="77" y="100"/>
      <point x="109.333" y="130.667"/>
      <point x="152.333" y="130.667" type="curve" smooth="yes"/>
      <point x="195.666" y="130.667"/>
      <point x="218.333" y="101"/>
      <point x="218.333" y="67.334" type="curve" smooth="yes"/>
      <point x="218.333" y="19"/>
      <point x="187" y="-12"/>
      <point x="144" y="-12" type="curve" smooth="yes"/>
      <point x="100" y="-12"/>
      <point x="77" y="16.667"/>
    </contour>
  </outline>
</glyph>
<glyph name="quotedbl" format="2">
  <advance width="420"/>
  <unicode hex="0022"/>
  <outline>
    <contour>
      <point x="264" y="448.333" type="line"/>
      <point x="274.667" y="670" type="line" smooth="yes"/>
      <point x="277" y="710.667"/>
      <point x="293" y="730.333"/>
      <point x="339" y="730.333" type="curve" smooth="yes"/>
      <point x="387.667" y="730.333"/>
      <point x="399" y="711"/>
      <point x="383" y="670" type="curve" smooth="yes"/>
      <point x="298" y="448.333" type="line"/>
    </contour>
    <contour>
      <point x="309.667" y="448.333" type="line"/>
      <point x="320.333" y="670" type="line" smooth="yes"/>
      <point x="322.667" y="710.667"/>
      <point x="338.667" y="730.333"/>
      <point x="384.667" y="730.333" type="curve" smooth="yes"/>
      <point x="433.333" y="730.333"/>
      <point x="444.667" y="711"/>
      <point x="428.667" y="670" type="curve" smooth="yes"/>
      <point x="343.667" y="448.333" type="line"/>
    </contour>
  </outline>
</glyph>
<glyph name="numbersign" format="2">
  <advance width="540"/>
  <unicode hex="0023"/>
  <outline>
    <contour>
      <point x="83.333" y="227" type="line"/>
      <point x="103.333" y="283" type="line"/>
      <point x="208" y="283" type="line"/>
      <point x="251.333" y="406" type="line"/>
      <point x="145.666" y="406" type="line"/>
      <point x="165.666" y="462" type="line"/>
      <point x="271" y="462" type="line"/>
      <point x="343.666" y="668" type="line"/>
      <point x="406.333" y="668" type="line"/>
      <point x="334.666" y="462" type="line"/>
      <point x="460" y="462" type="line"/>
      <point x="532.667" y="668" type="line"/>
      <point x="594.333" y="668" type="line"/>
      <point x="522.667" y="462" type="line"/>
      <point x="627" y="462" type="line"/>
      <point x="608.333" y="406" type="line"/>
      <point x="503" y="406" type="line"/>
      <point x="459.667" y="283" type="line"/>
      <point x="564.667" y="283" type="line"/>
      <point x="546" y="227" type="line"/>
      <point x="440" y="227" type="line"/>
      <point x="360.333" y="0" type="line"/>
      <point x="297.666" y="0" type="line"/>
      <point x="377.333" y="227" type="line"/>
      <point x="252" y="227" type="line"/>
      <point x="172.333" y="0" type="line"/>
      <point x="108.666" y="0" type="line"/>
      <point x="188.333" y="227" type="line"/>
    </contour>
    <contour>
      <point x="271.666" y="283" type="line"/>
      <point x="397" y="283" type="line"/>
      <point x="440.333" y="406" type="line"/>
      <point x="315" y="406" type="line"/>
    </contour>
  </outline>
</glyph>
<glyph name="dollar" format="2">
  <advance width="540"/>
  <unicode hex="0024"/>
  <outline>
    <contour>
      <point x="66.333" y="120" type="curve" smooth="yes"/>
      <point x="66.333" y="154.667"/>
      <point x="94.333" y="176.667"/>
      <point x="122" y="176.667" type="curve" smooth="yes"/>
      <point x="142" y="176.667"/>
      <point x="150.333" y="165.333"/>
      <point x="155.333" y="149.667" type="curve" smooth="yes"/>
      <point x="181" y="69"/>
      <point x="220" y="44.667"/>
      <point x="253.333" y="41" type="curve"/>
      <point x="314.333" y="307.667" type="line"/>
      <point x="202.334" y="355.667"/>
      <point x="166.667" y="413.333"/>
      <point x="166.667" y="479" type="curve" smooth="yes"/>
      <point x="166.667" y="595.333"/>
      <point x="264.333" y="668"/>
      <point x="398" y="668" type="curve"/>
      <point x="416.333" y="744.667" type="line"/>
      <point x="461" y="744.667" type="line"/>
      <point x="443.333" y="666" type="line"/>
      <point x="520" y="659.667"/>
      <point x="598.333" y="619"/>
      <point x="598.333" y="557" type="curve" smooth="yes"/>
      <point x="598.333" y="528.667"/>
      <point x="568.666" y="509.667"/>
      <point x="542.666" y="509.667" type="curve" smooth="yes"/>
      <point x="523.667" y="509.667"/>
      <point x="515" y="523.667"/>
      <point x="511" y="538.667" type="curve" smooth="yes"/>
      <point x="496.333" y="592.333"/>
      <point x="469" y="621.667"/>
      <point x="434.333" y="627" type="curve"/>
      <point x="380" y="392.333" type="line"/>
      <point x="468.333" y="352.667"/>
      <point x="540.333" y="303"/>
      <point x="540.333" y="196" type="curve" smooth="yes"/>
      <point x="540.333" y="88.667"/>
      <point x="454.667" y="0"/>
      <point x="290.333" y="0" type="curve"/>
      <point x="267.333" y="-107.333" type="line"/>
      <point x="221" y="-107.333" type="line"/>
      <point x="245.333" y="2" type="line"/>
      <point x="138.333" y="8.667"/>
      <point x="66.333" y="62.333"/>
    </contour>
    <contour>
      <point x="299.333" y="38.667" type="line"/>
      <point x="376.333" y="37"/>
      <point x="440" y="80.667"/>
      <point x="440" y="164.333" type="curve" smooth="yes"/>
      <point x="440" y="221.667"/>
      <point x="412.667" y="260.667"/>
      <point x="355.333" y="287.667" type="curve"/>
    </contour>
    <contour>
      <point x="261" y="515.333" type="curve" smooth="yes"/>
      <point x="261" y="463"/>
      <point x="289.667" y="436.333"/>
      <point x="338.333" y="412.333" type="curve"/>
      <point x="389" y="629.333" type="line"/>
      <point x="316.333" y="629.333"/>
      <point x="261" y="586"/>
    </contour>
  </outline>
</glyph>
<glyph name="percent" format="2">
  <advance width="849"/>
  <unicode hex="0025"/>
  <outline>
    <contour>
      <point x="223.334" y="415.222" type="curve" smooth="yes"/>
      <point x="223.334" y="389"/>
      <point x="231.334" y="345.333"/>
      <point x="277.287" y="345.333" type="curve" smooth="yes"/>
      <point x="370.334" y="345.333"/>
      <point x="392.667" y="525.333"/>
      <point x="392.667" y="576.585" type="curve" smooth="yes"/>
      <point x="392.667" y="601.667"/>
      <point x="387.334" y="646.667"/>
      <point x="342.482" y="646.667" type="curve" smooth="yes"/>
      <point x="253.001" y="646.667"/>
      <point x="223.334" y="466"/>
    </contour>
    <contour>
      <point x="135.667" y="455.594" type="curve" smooth="yes"/>
      <point x="135.667" y="568.116"/>
      <point x="213.109" y="680"/>
      <point x="337.969" y="680" type="curve" smooth="yes"/>
      <point x="388.334" y="680"/>
      <point x="428.801" y="661.928"/>
      <point x="447.767" y="646.008" type="curve" smooth="yes"/>
      <point x="458.816" y="636.745"/>
      <point x="472.404" y="631.667"/>
      <point x="496.437" y="631.667" type="curve" smooth="yes"/>
      <point x="672.182" y="631.667" type="line" smooth="yes"/>
      <point x="703.048" y="631.667"/>
      <point x="728.86" y="649.834"/>
      <point x="754.666" y="677" type="curve" smooth="yes"/>
      <point x="778.333" y="702" type="line"/>
      <point x="812.667" y="674" type="line"/>
      <point x="218.334" y="-27" type="line"/>
      <point x="184.001" y="4.333" type="line"/>
      <point x="683.333" y="594" type="line"/>
      <point x="475.001" y="594" type="line"/>
      <point x="479.001" y="577"/>
      <point x="480.334" y="556.333"/>
      <point x="480.334" y="540.49" type="curve" smooth="yes"/>
      <point x="480.334" y="421.413"/>
      <point x="407.408" y="312"/>
      <point x="275.062" y="312" type="curve" smooth="yes"/>
      <point x="171" y="312"/>
      <point x="135.667" y="379.667"/>
    </contour>
    <contour>
      <point x="594.667" y="90.597" type="curve" smooth="yes"/>
      <point x="594.667" y="65"/>
      <point x="602" y="21.333"/>
      <point x="648.179" y="21.333" type="curve" smooth="yes"/>
      <point x="741.666" y="21.333"/>
      <point x="764.333" y="201.333"/>
      <point x="764.333" y="252.287" type="curve" smooth="yes"/>
      <point x="764.333" y="277.667"/>
      <point x="758.666" y="322.667"/>
      <point x="713.815" y="322.667" type="curve" smooth="yes"/>
      <point x="624.334" y="322.667"/>
      <point x="594.667" y="142"/>
    </contour>
    <contour>
      <point x="507" y="131.577" type="curve" smooth="yes"/>
      <point x="507" y="243.862"/>
      <point x="584.148" y="356"/>
      <point x="714.922" y="356" type="curve" smooth="yes"/>
      <point x="815" y="356"/>
      <point x="852" y="292"/>
      <point x="852" y="211.159" type="curve" smooth="yes"/>
      <point x="852" y="96.421"/>
      <point x="779.212" y="-12"/>
      <point x="647.043" y="-12" type="curve" smooth="yes"/>
      <point x="542.333" y="-12"/>
      <point x="507" y="55.666"/>
    </contour>
  </outline>
</glyph>
<glyph name="ampersand" format="2">
  <advance width="734"/>
  <unicode hex="0026"/>
  <outline>
    <contour>
      <point x="337" y="522.666" type="curve" smooth="yes"/>
      <point x="337" y="484"/>
      <point x="352" y="437"/>
      <point x="372.333" y="405.333" type="curve"/>
      <point x="432" y="433"/>
      <point x="487.667" y="489"/>
      <point x="487.667" y="565.333" type="curve" smooth="yes"/>
      <point x="487.667" y="603.333"/>
      <point x="467.334" y="641.333"/>
      <point x="422.334" y="641.333" type="curve" smooth="yes"/>
      <point x="379.667" y="641.333"/>
      <point x="337" y="597.666"/>
    </contour>
    <contour>
      <point x="205.334" y="181" type="curve" smooth="yes"/>
      <point x="205.334" y="110.667"/>
      <point x="257.333" y="47.333"/>
      <point x="338" y="44" type="curve" smooth="yes"/>
      <point x="345.667" y="43.667"/>
      <point x="353.333" y="44.333"/>
      <point x="361.333" y="45" type="curve" smooth="yes"/>
      <point x="406" y="49"/>
      <point x="448.667" y="69.667"/>
      <point x="477" y="95.667" type="curve"/>
      <point x="400.333" y="169.333"/>
      <point x="336" y="260.667"/>
      <point x="293" y="335.333" type="curve"/>
      <point x="269" y="324"/>
      <point x="205.334" y="275.667"/>
    </contour>
    <contour>
      <point x="95.667" y="165" type="curve" smooth="yes"/>
      <point x="95.667" y="289.333"/>
      <point x="204.334" y="338"/>
      <point x="275" y="370.666" type="curve"/>
      <point x="258.667" y="399.333"/>
      <point x="246" y="442.333"/>
      <point x="243.333" y="476" type="curve" smooth="yes"/>
      <point x="242.667" y="483.666"/>
      <point x="242.667" y="490.333"/>
      <point x="243" y="497" type="curve" smooth="yes"/>
      <point x="247" y="611"/>
      <point x="330" y="680"/>
      <point x="424.334" y="680" type="curve" smooth="yes"/>
      <point x="507.334" y="680"/>
      <point x="575" y="632.666"/>
      <point x="575" y="549" type="curve" smooth="yes"/>
      <point x="575" y="450.666"/>
      <point x="484" y="410.333"/>
      <point x="389.667" y="374.333" type="curve"/>
      <point x="425" y="312.667"/>
      <point x="484.667" y="232"/>
      <point x="548.333" y="163.667" type="curve"/>
      <point x="622.666" y="243"/>
      <point x="644.666" y="340"/>
      <point x="651.333" y="417" type="curve"/>
      <point x="680.333" y="433.666"/>
      <point x="714.666" y="440"/>
      <point x="740.333" y="436.666" type="curve"/>
      <point x="756.333" y="396.666"/>
      <point x="749.333" y="361"/>
      <point x="733.666" y="330" type="curve"/>
      <point x="699" y="266"/>
      <point x="654.666" y="206.667"/>
      <point x="574" y="134.667" type="curve"/>
      <point x="618.333" y="92"/>
      <point x="672" y="37"/>
      <point x="739.666" y="20.667" type="curve"/>
      <point x="735.333" y="-7" type="line"/>
      <point x="693" y="-5.333" type="line" smooth="yes"/>
      <point x="607.667" y="-2.333"/>
      <point x="552.667" y="25.667"/>
      <point x="504.667" y="69" type="curve"/>
      <point x="437" y="12.667"/>
      <point x="368.333" y="-12"/>
      <point x="293.667" y="-12" type="curve" smooth="yes"/>
      <point x="160.334" y="-12"/>
      <point x="95.667" y="75.667"/>
    </contour>
  </outline>
</glyph>
<glyph name="quotesingle" format="2">
  <advance width="226"/>
  <unicode hex="0027"/>
  <outline>
    <contour>
      <point x="187" y="438" type="line"/>
      <point x="198.667" y="670" type="line"/>
      <point x="201.333" y="710.667"/>
      <point x="216.333" y="730.333"/>
      <point x="262.333" y="730.333" type="curve" smooth="yes"/>
      <point x="311" y="730.333"/>
      <point x="321.667" y="711"/>
      <point x="306.333" y="670" type="curve" smooth="yes"/>
      <point x="221" y="438" type="line"/>
    </contour>
  </outline>
</glyph>
<glyph name="parenleft" format="2">
  <advance width="350"/>
  <unicode hex="0028"/>
  <outline>
    <contour>
      <point x="149.333" y="213" type="curve"/>
      <point x="144.667" y="241.666"/>
      <point x="149.333" y="275.666"/>
      <point x="155" y="301" type="curve" smooth="yes"/>
      <point x="174.333" y="389"/>
      <point x="204" y="478.333"/>
      <point x="248" y="550" type="curve" smooth="yes"/>
      <point x="306.333" y="642.333"/>
      <point x="385.667" y="698.666"/>
      <point x="486.333" y="694.333" type="curve"/>
      <point x="482.667" y="666.333" type="line"/>
      <point x="376.333" y="648.666"/>
      <point x="280.667" y="497.666"/>
      <point x="235.333" y="298" type="curve" smooth="yes"/>
      <point x="184.667" y="78.333"/>
      <point x="233" y="-83"/>
      <point x="303.333" y="-103.667" type="curve"/>
      <point x="295.333" y="-130.334" type="line"/>
      <point x="175.333" y="-120.334"/>
      <point x="120" y="25.666"/>
    </contour>
  </outline>
</glyph>
<glyph name="parenright" format="2">
  <advance width="350"/>
  <unicode hex="0029"/>
  <outline>
    <contour>
      <point x="-6.333" y="-130.333" type="curve"/>
      <point x="-2.667" y="-103.666" type="line"/>
      <point x="103.667" y="-85.999"/>
      <point x="199.333" y="66.334"/>
      <point x="244.667" y="266" type="curve" smooth="yes"/>
      <point x="295.333" y="485.667"/>
      <point x="247" y="645.666"/>
      <point x="176.667" y="666.333" type="curve"/>
      <point x="184.667" y="694.333" type="line"/>
      <point x="268.667" y="687"/>
      <point x="320" y="619"/>
      <point x="338" y="517" type="curve" smooth="yes"/>
      <point x="351.333" y="441.667"/>
      <point x="344.667" y="350.333"/>
      <point x="325" y="263" type="curve" smooth="yes"/>
      <point x="305.667" y="175"/>
      <point x="276" y="85.667"/>
      <point x="232" y="14.001" type="curve" smooth="yes"/>
      <point x="173.667" y="-78.333"/>
      <point x="94.333" y="-134.666"/>
    </contour>
  </outline>
</glyph>
<glyph name="asterisk" format="2">
  <advance width="441"/>
  <unicode hex="002A"/>
  <outline>
    <contour>
      <point x="152" y="431.667" type="curve" smooth="yes"/>
      <point x="140.667" y="455.667"/>
      <point x="144.667" y="475.333"/>
      <point x="169.667" y="483" type="curve" smooth="yes"/>
      <point x="288.334" y="519.667" type="line" smooth="yes"/>
      <point x="304.334" y="524.333"/>
      <point x="304.667" y="535.667"/>
      <point x="287.334" y="541.333" type="curve" smooth="yes"/>
      <point x="203.667" y="569" type="line" smooth="yes"/>
      <point x="177" y="577.667"/>
      <point x="177.334" y="603.333"/>
      <point x="192" y="624" type="curve" smooth="yes"/>
      <point x="210.334" y="649.333"/>
      <point x="231" y="650.667"/>
      <point x="244" y="637" type="curve" smooth="yes"/>
      <point x="307.667" y="569" type="line" smooth="yes"/>
      <point x="318.334" y="557.667"/>
      <point x="327.667" y="564"/>
      <point x="326.667" y="580.333" type="curve" smooth="yes"/>
      <point x="322.667" y="672.333" type="line" smooth="yes"/>
      <point x="322" y="695"/>
      <point x="334.333" y="707"/>
      <point x="368" y="707" type="curve" smooth="yes"/>
      <point x="398.667" y="707"/>
      <point x="412.334" y="693"/>
      <point x="400.667" y="670.667" type="curve"/>
      <point x="356.333" y="578.667" type="line" smooth="yes"/>
      <point x="348.667" y="562.333"/>
      <point x="358.667" y="556.333"/>
      <point x="373" y="568" type="curve" smooth="yes"/>
      <point x="458.667" y="637" type="line"/>
      <point x="477.667" y="651.333"/>
      <point x="496.334" y="647.333"/>
      <point x="509" y="624" type="curve" smooth="yes"/>
      <point x="523.667" y="597.333"/>
      <point x="516.334" y="578"/>
      <point x="495" y="572" type="curve" smooth="yes"/>
      <point x="378.334" y="538.667" type="line" smooth="yes"/>
      <point x="360.667" y="533.667"/>
      <point x="355.667" y="522"/>
      <point x="371" y="517.333" type="curve"/>
      <point x="462" y="483" type="line" smooth="yes"/>
      <point x="484.667" y="475"/>
      <point x="486" y="451.667"/>
      <point x="467" y="427.667" type="curve" smooth="yes"/>
      <point x="450.334" y="406.333"/>
      <point x="432.667" y="402.333"/>
      <point x="415" y="422.667" type="curve" smooth="yes"/>
      <point x="355.667" y="490.667" type="line" smooth="yes"/>
      <point x="344.667" y="503.333"/>
      <point x="335.667" y="494"/>
      <point x="336.333" y="478.333" type="curve" smooth="yes"/>
      <point x="340" y="378.333" type="line" smooth="yes"/>
      <point x="341.667" y="350.667"/>
      <point x="323.334" y="342.333"/>
      <point x="297" y="342.333" type="curve" smooth="yes"/>
      <point x="262.334" y="342.333"/>
      <point x="250.667" y="360.667"/>
      <point x="262.667" y="386" type="curve" smooth="yes"/>
      <point x="307" y="480" type="line"/>
      <point x="314.667" y="494.667"/>
      <point x="306" y="504.333"/>
      <point x="289.667" y="490.333" type="curve" smooth="yes"/>
      <point x="210.667" y="420.667" type="line" smooth="yes"/>
      <point x="185.334" y="398.667"/>
      <point x="165" y="405.667"/>
    </contour>
  </outline>
</glyph>
<glyph name="plus" format="2">
  <advance width="580"/>
  <unicode hex="002B"/>
  <outline>
    <contour>
      <point x="101.334" y="217.333" type="line"/>
      <point x="101.334" y="282.666" type="line"/>
      <point x="304.667" y="282.666" type="line"/>
      <point x="304.667" y="489.999" type="line"/>
      <point x="382" y="489.999" type="line"/>
      <point x="382" y="282.666" type="line"/>
      <point x="585.333" y="282.666" type="line"/>
      <point x="585.333" y="217.333" type="line"/>
      <point x="382" y="217.333" type="line"/>
      <point x="382" y="0" type="line"/>
      <point x="304.667" y="0" type="line"/>
      <point x="304.667" y="217.333" type="line"/>
    </contour>
  </outline>
</glyph>
<glyph name="comma" format="2">
  <advance width="270"/>
  <unicode hex="002C"/>
  <outline>
    <contour>
      <point x="39.333" y="-123.333" type="line"/>
      <point x="76.333" y="-87.333"/>
      <point x="110.333" y="-44.333"/>
      <point x="113" y="-0.333" type="curve" smooth="yes"/>
      <point x="114.333" y="20"/>
      <point x="108" y="35.667"/>
      <point x="101.667" y="49.334" type="curve" smooth="yes"/>
      <point x="95.667" y="63"/>
      <point x="89.333" y="75.667"/>
      <point x="89.333" y="92.334" type="curve" smooth="yes"/>
      <point x="89.333" y="126.334"/>
      <point x="117.333" y="154.667"/>
      <point x="154" y="154.667" type="curve"/>
      <point x="196.666" y="156.334"/>
      <point x="219.333" y="117"/>
      <point x="219.333" y="79.667" type="curve" smooth="yes"/>
      <point x="219.333" y="-17"/>
      <point x="127.333" y="-91"/>
      <point x="59.333" y="-145" type="curve"/>
    </contour>
  </outline>
</glyph>
<glyph name="hyphen" format="2">
  <advance width="371"/>
  <unicode hex="002D"/>
  <outline>
    <contour>
      <point x="98.667" y="211.667" type="line"/>
      <point x="114.667" y="290" type="line"/>
      <point x="384.667" y="290" type="line"/>
      <point x="368.667" y="211.667" type="line"/>
    </contour>
  </outline>
</glyph>
<glyph name="period" format="2">
  <advance width="270"/>
  <unicode hex="002E"/>
  <outline>
    <contour>
      <point x="77" y="52.333" type="curve" smooth="yes"/>
      <point x="77" y="100"/>
      <point x="109.333" y="130.667"/>
      <point x="152.333" y="130.667" type="curve" smooth="yes"/>
      <point x="195.666" y="130.667"/>
      <point x="218.333" y="101"/>
      <point x="218.333" y="67.334" type="curve" smooth="yes"/>
      <point x="218.333" y="19"/>
      <point x="187" y="-12"/>
      <point x="144" y="-12" type="curve" smooth="yes"/>
      <point x="100" y="-12"/>
      <point x="77" y="16.667"/>
    </contour>
  </outline>
</glyph>
<glyph name="slash" format="2">
  <advance width="267"/>
  <unicode hex="002F"/>
  <outline>
    <contour>
      <point x="29.667" y="-15" type="line"/>
      <point x="305" y="707" type="line"/>
      <point x="385.667" y="707" type="line"/>
      <point x="110.334" y="-15" type="line"/>
    </contour>
  </outline>
</glyph>
<glyph name="zero" format="2">
  <advance width="540"/>
  <unicode hex="0030"/>
  <outline>
    <contour>
      <point x="94" y="208.667" type="curve" smooth="yes"/>
      <point x="94" y="522.334"/>
      <point x="270" y="681.334"/>
      <point x="412.667" y="681.334" type="curve" smooth="yes"/>
      <point x="509.333" y="681.334"/>
      <point x="590" y="609"/>
      <point x="590" y="454" type="curve" smooth="yes"/>
      <point x="590" y="239.667"/>
      <point x="476" y="-13.333"/>
      <point x="277.333" y="-13.333" type="curve" smooth="yes"/>
      <point x="153.334" y="-13.333"/>
      <point x="94" y="84.667"/>
    </contour>
    <contour>
      <point x="200.667" y="152.334" type="curve" smooth="yes"/>
      <point x="200.667" y="62.667"/>
      <point x="235.667" y="25.334"/>
      <point x="272" y="25.334" type="curve" smooth="yes"/>
      <point x="354.667" y="25.334"/>
      <point x="483.333" y="250.667"/>
      <point x="483.333" y="516.667" type="curve" smooth="yes"/>
      <point x="483.333" y="604.334"/>
      <point x="456" y="642.667"/>
      <point x="419" y="642.667" type="curve" smooth="yes"/>
      <point x="314" y="642.667"/>
      <point x="200.667" y="377.334"/>
    </contour>
  </outline>
</glyph>
<glyph name="one" format="2">
  <advance width="441"/>
  <unicode hex="0031"/>
  <outline>
    <contour>
      <point x="57.667" y="0" type="line"/>
      <point x="64.333" y="32" type="line"/>
      <point x="149" y="38.333" type="line" smooth="yes"/>
      <point x="168" y="39.667"/>
      <point x="179.333" y="49.333"/>
      <point x="184.667" y="75" type="curve" smooth="yes"/>
      <point x="295.333" y="570.667" type="line" smooth="yes"/>
      <point x="300" y="593.333"/>
      <point x="297" y="603.667"/>
      <point x="282" y="606" type="curve"/>
      <point x="192" y="617" type="line"/>
      <point x="200" y="644" type="line"/>
      <point x="419" y="680" type="line"/>
      <point x="427" y="673.667" type="line"/>
      <point x="292.667" y="75" type="line" smooth="yes"/>
      <point x="286.667" y="46.667"/>
      <point x="297.333" y="38"/>
      <point x="316" y="37" type="curve" smooth="yes"/>
      <point x="399.667" y="32" type="line"/>
      <point x="393" y="0" type="line"/>
    </contour>
  </outline>
</glyph>
<glyph name="two" format="2">
  <advance width="560"/>
  <unicode hex="0032"/>
  <outline>
    <contour>
      <point x="42.667" y="12" type="line"/>
      <point x="67" y="97.333"/>
      <point x="132" y="170.333"/>
      <point x="274.334" y="268.333" type="curve" smooth="yes"/>
      <point x="404.333" y="357.333"/>
      <point x="475.333" y="435.333"/>
      <point x="475.333" y="538.333" type="curve" smooth="yes"/>
      <point x="475.333" y="587.333"/>
      <point x="461.666" y="641.333"/>
      <point x="392.333" y="641.333" type="curve" smooth="yes"/>
      <point x="341.667" y="641.333"/>
      <point x="299" y="600.333"/>
      <point x="265.667" y="511" type="curve" smooth="yes"/>
      <point x="259.334" y="493"/>
      <point x="251.334" y="477.666"/>
      <point x="228" y="477.666" type="curve" smooth="yes"/>
      <point x="201.667" y="477.666"/>
      <point x="171" y="499"/>
      <point x="171" y="533.333" type="curve" smooth="yes"/>
      <point x="171" y="595.333"/>
      <point x="256" y="680"/>
      <point x="392" y="680" type="curve" smooth="yes"/>
      <point x="512.666" y="680"/>
      <point x="594" y="622.333"/>
      <point x="594" y="512" type="curve" smooth="yes"/>
      <point x="594" y="389.666"/>
      <point x="497.333" y="330.667"/>
      <point x="374.667" y="266" type="curve"/>
      <point x="279.334" y="214"/>
      <point x="191.667" y="149.667"/>
      <point x="166" y="88" type="curve"/>
      <point x="410.667" y="88" type="line" smooth="yes"/>
      <point x="455" y="88"/>
      <point x="468.333" y="96.667"/>
      <point x="501" y="145" type="curve"/>
      <point x="534.333" y="139.667" type="line"/>
      <point x="478.333" y="0" type="line"/>
      <point x="54.333" y="0" type="line"/>
    </contour>
  </outline>
</glyph>
<glyph name="three" format="2">
  <advance width="555"/>
  <unicode hex="0033"/>
  <outline>
    <contour>
      <point x="59.666" y="113.334" type="curve" smooth="yes"/>
      <point x="59.666" y="151"/>
      <point x="93" y="175.667"/>
      <point x="119.333" y="175.667" type="curve" smooth="yes"/>
      <point x="180" y="175.667"/>
      <point x="143.666" y="26.667"/>
      <point x="277" y="26.667" type="curve" smooth="yes"/>
      <point x="340" y="26.667"/>
      <point x="417" y="80.667"/>
      <point x="417" y="220.667" type="curve" smooth="yes"/>
      <point x="417" y="281"/>
      <point x="392.667" y="345"/>
      <point x="320" y="345" type="curve" smooth="yes"/>
      <point x="277" y="345"/>
      <point x="241.333" y="333.667"/>
      <point x="226.333" y="333.667" type="curve" smooth="yes"/>
      <point x="209" y="333.667"/>
      <point x="205.333" y="345"/>
      <point x="205.333" y="358.667" type="curve" smooth="yes"/>
      <point x="205.333" y="378.333"/>
      <point x="215" y="400.334"/>
      <point x="230.333" y="400.334" type="curve" smooth="yes"/>
      <point x="256.667" y="400.334"/>
      <point x="291" y="388"/>
      <point x="327.333" y="388" type="curve" smooth="yes"/>
      <point x="408" y="388"/>
      <point x="462.667" y="467.667"/>
      <point x="462.667" y="547.333" type="curve" smooth="yes"/>
      <point x="462.667" y="588"/>
      <point x="446" y="641.333"/>
      <point x="379.667" y="641.333" type="curve" smooth="yes"/>
      <point x="329" y="641.333"/>
      <point x="292.333" y="601.666"/>
      <point x="265" y="535" type="curve" smooth="yes"/>
      <point x="256.667" y="515.667"/>
      <point x="247.333" y="504.667"/>
      <point x="228.667" y="504.667" type="curve" smooth="yes"/>
      <point x="205.666" y="504.667"/>
      <point x="176" y="522.667"/>
      <point x="175.333" y="556" type="curve" smooth="yes"/>
      <point x="174.666" y="617"/>
      <point x="263.333" y="680"/>
      <point x="381.333" y="680" type="curve" smooth="yes"/>
      <point x="469" y="680"/>
      <point x="578.334" y="645.333"/>
      <point x="578.334" y="526.333" type="curve" smooth="yes"/>
      <point x="578.334" y="423.334"/>
      <point x="487.334" y="379"/>
      <point x="402" y="371.667" type="curve"/>
      <point x="402" y="368.333" type="line"/>
      <point x="468" y="356.333"/>
      <point x="539.667" y="308"/>
      <point x="539.667" y="208.667" type="curve" smooth="yes"/>
      <point x="539.667" y="57"/>
      <point x="412" y="-12"/>
      <point x="275.667" y="-12" type="curve" smooth="yes"/>
      <point x="130" y="-12"/>
      <point x="59.666" y="60.667"/>
    </contour>
  </outline>
</glyph>
<glyph name="four" format="2">
  <advance width="584"/>
  <unicode hex="0034"/>
  <outline>
    <contour>
      <point x="174" y="235" type="curve"/>
      <point x="374" y="235" type="line"/>
      <point x="446.333" y="563" type="line"/>
      <point x="444.333" y="564.333" type="line"/>
      <point x="349" y="461"/>
      <point x="258.333" y="348"/>
    </contour>
    <contour>
      <point x="80.667" y="205.667" type="line"/>
      <point x="208.667" y="367"/>
      <point x="341.667" y="524"/>
      <point x="485.667" y="668" type="curve"/>
      <point x="570.333" y="668" type="line"/>
      <point x="478" y="235" type="line"/>
      <point x="574.333" y="235" type="line"/>
      <point x="562.667" y="182.667" type="line"/>
      <point x="466.667" y="182.667" type="line"/>
      <point x="442.333" y="68.667" type="line" smooth="yes"/>
      <point x="437.333" y="45.667"/>
      <point x="443.333" y="36.333"/>
      <point x="462" y="35.333" type="curve" smooth="yes"/>
      <point x="511.333" y="32" type="line"/>
      <point x="503.667" y="0" type="line"/>
      <point x="225.667" y="0" type="line"/>
      <point x="234" y="32" type="line"/>
      <point x="288.333" y="35.667" type="line"/>
      <point x="305" y="37" type="line" smooth="yes"/>
      <point x="321.333" y="38"/>
      <point x="333.667" y="45"/>
      <point x="338.667" y="68.667" type="curve" smooth="yes"/>
      <point x="362.667" y="182.667" type="line"/>
      <point x="91.333" y="182.667" type="line"/>
    </contour>
  </outline>
</glyph>
<glyph name="five" format="2">
  <advance width="554"/>
  <unicode hex="0035"/>
  <outline>
    <contour>
      <point x="64" y="111.334" type="curve" smooth="yes"/>
      <point x="63.333" y="147.334"/>
      <point x="95.333" y="174.334"/>
      <point x="126.333" y="174.334" type="curve" smooth="yes"/>
      <point x="145.333" y="174.334"/>
      <point x="154.333" y="160"/>
      <point x="160.333" y="138.667" type="curve" smooth="yes"/>
      <point x="183.333" y="54"/>
      <point x="224.666" y="26.667"/>
      <point x="281" y="26.667" type="curve" smooth="yes"/>
      <point x="356.333" y="26.667"/>
      <point x="428" y="107.334"/>
      <point x="428" y="234" type="curve" smooth="yes"/>
      <point x="428" y="320.667"/>
      <point x="385.667" y="376.667"/>
      <point x="314.333" y="376.667" type="curve" smooth="yes"/>
      <point x="263.333" y="376.667"/>
      <point x="221.666" y="354"/>
      <point x="186" y="311.334" type="curve"/>
      <point x="158" y="327.667" type="line"/>
      <point x="229" y="659" type="line"/>
      <point x="240.666" y="668" type="line"/>
      <point x="599" y="668" type="line"/>
      <point x="604.666" y="656.667" type="line"/>
      <point x="556.333" y="580" type="line"/>
      <point x="299.333" y="580" type="line" smooth="yes"/>
      <point x="280.666" y="580"/>
      <point x="272.333" y="577.333"/>
      <point x="265.333" y="553.667" type="curve" smooth="yes"/>
      <point x="214.333" y="382.667" type="line"/>
      <point x="216.333" y="380.667" type="line"/>
      <point x="252.666" y="408.334"/>
      <point x="305.667" y="428.334"/>
      <point x="356.667" y="428.334" type="curve" smooth="yes"/>
      <point x="480.667" y="428.334"/>
      <point x="550.333" y="355.334"/>
      <point x="550.333" y="240.667" type="curve" smooth="yes"/>
      <point x="550.333" y="88.667"/>
      <point x="427.667" y="-12"/>
      <point x="275.333" y="-12" type="curve" smooth="yes"/>
      <point x="132" y="-12"/>
      <point x="64.667" y="56.334"/>
    </contour>
  </outline>
</glyph>
<glyph name="six" format="2">
  <advance width="559"/>
  <unicode hex="0036"/>
  <outline>
    <contour>
      <point x="211.666" y="166" type="curve" smooth="yes"/>
      <point x="211.666" y="105.334"/>
      <point x="229.666" y="26.667"/>
      <point x="314.333" y="26.667" type="curve" smooth="yes"/>
      <point x="388" y="26.667"/>
      <point x="453.667" y="111.667"/>
      <point x="453.667" y="246.667" type="curve" smooth="yes"/>
      <point x="453.667" y="319.333"/>
      <point x="414.334" y="365"/>
      <point x="352.667" y="365" type="curve" smooth="yes"/>
      <point x="309.333" y="365"/>
      <point x="273.333" y="345.333"/>
      <point x="248.333" y="312" type="curve" smooth="yes"/>
      <point x="224.333" y="278.333"/>
      <point x="211.666" y="228.667"/>
    </contour>
    <contour>
      <point x="101.333" y="212" type="curve" smooth="yes"/>
      <point x="101.333" y="350"/>
      <point x="151.333" y="504.667"/>
      <point x="226.333" y="588.333" type="curve" smooth="yes"/>
      <point x="232.333" y="595"/>
      <point x="238.333" y="601.666"/>
      <point x="244.999" y="607.333" type="curve"/>
      <point x="295" y="654.666"/>
      <point x="357.333" y="680"/>
      <point x="428.667" y="680" type="curve" smooth="yes"/>
      <point x="564.667" y="680"/>
      <point x="608" y="605.333"/>
      <point x="608" y="567.333" type="curve" smooth="yes"/>
      <point x="608" y="533"/>
      <point x="573.001" y="515"/>
      <point x="548.334" y="515" type="curve" smooth="yes"/>
      <point x="530" y="515"/>
      <point x="521.666" y="525"/>
      <point x="517.333" y="540.667" type="curve"/>
      <point x="516.333" y="542.667"/>
      <point x="515.333" y="545"/>
      <point x="515" y="547.333" type="curve"/>
      <point x="502.666" y="608.333"/>
      <point x="472.333" y="641.333"/>
      <point x="425.667" y="641.333" type="curve" smooth="yes"/>
      <point x="340.333" y="641.333"/>
      <point x="268" y="526.667"/>
      <point x="229.333" y="345.333" type="curve"/>
      <point x="231.333" y="345.333" type="line"/>
      <point x="264.666" y="382.333"/>
      <point x="320" y="419.667"/>
      <point x="381.333" y="422.667" type="curve"/>
      <point x="384" y="423"/>
      <point x="386.667" y="423.334"/>
      <point x="389.333" y="423.334" type="curve" smooth="yes"/>
      <point x="510" y="423.334"/>
      <point x="569.334" y="346.667"/>
      <point x="569.334" y="239" type="curve" smooth="yes"/>
      <point x="569.334" y="116.667"/>
      <point x="483.667" y="-12"/>
      <point x="316" y="-12" type="curve" smooth="yes"/>
      <point x="152.666" y="-12"/>
      <point x="101.333" y="94"/>
    </contour>
  </outline>
</glyph>
<glyph name="seven" format="2">
  <advance width="548"/>
  <unicode hex="0037"/>
  <outline>
    <contour>
      <point x="165.334" y="522.333" type="line"/>
      <point x="212.667" y="668" type="line"/>
      <point x="643.334" y="668" type="line"/>
      <point x="652.001" y="656.667" type="line"/>
      <point x="608.667" y="543.667"/>
      <point x="536.334" y="468.333"/>
      <point x="442.334" y="356" type="curve" smooth="yes"/>
      <point x="368.334" y="268.667"/>
      <point x="326.667" y="178.333"/>
      <point x="304.334" y="35" type="curve" smooth="yes"/>
      <point x="299.334" y="0.333"/>
      <point x="283.334" y="-12"/>
      <point x="242.667" y="-12" type="curve" smooth="yes"/>
      <point x="204" y="-12"/>
      <point x="183.667" y="4.333"/>
      <point x="183.667" y="32.333" type="curve" smooth="yes"/>
      <point x="183.667" y="114.333"/>
      <point x="249.001" y="211.667"/>
      <point x="397.667" y="376.667" type="curve" smooth="yes"/>
      <point x="480.334" y="467.333"/>
      <point x="526.667" y="541"/>
      <point x="540.667" y="580" type="curve"/>
      <point x="296.001" y="580" type="line" smooth="yes"/>
      <point x="245.001" y="580"/>
      <point x="226.334" y="566"/>
      <point x="211.667" y="542.333" type="curve" smooth="yes"/>
      <point x="197" y="518.667" type="line"/>
    </contour>
  </outline>
</glyph>
<glyph name="eight" format="2">
  <advance width="559"/>
  <unicode hex="0038"/>
  <outline>
    <contour>
      <point x="291" y="471" type="curve" smooth="yes"/>
      <point x="291" y="418.666"/>
      <point x="315.333" y="380.333"/>
      <point x="372.666" y="380.333" type="curve" smooth="yes"/>
      <point x="434.333" y="380.333"/>
      <point x="485.667" y="452"/>
      <point x="487.667" y="550" type="curve" smooth="yes"/>
      <point x="488" y="557.333"/>
      <point x="487.334" y="565"/>
      <point x="486.667" y="571.666" type="curve"/>
      <point x="482" y="607.666"/>
      <point x="458.333" y="641.333"/>
      <point x="408.666" y="641.333" type="curve" smooth="yes"/>
      <point x="327" y="641.333"/>
      <point x="291" y="541"/>
    </contour>
    <contour>
      <point x="203.334" y="145" type="curve" smooth="yes"/>
      <point x="203.334" y="78.333"/>
      <point x="235.334" y="35.333"/>
      <point x="290.667" y="28" type="curve"/>
      <point x="298.667" y="27.333"/>
      <point x="306.667" y="27"/>
      <point x="314.333" y="27.333" type="curve" smooth="yes"/>
      <point x="396.666" y="31.666"/>
      <point x="444.333" y="121.666"/>
      <point x="444.333" y="226" type="curve" smooth="yes"/>
      <point x="444.333" y="290.333"/>
      <point x="415" y="331.667"/>
      <point x="361" y="338.333" type="curve"/>
      <point x="354" y="339"/>
      <point x="347" y="339.333"/>
      <point x="339.333" y="339" type="curve" smooth="yes"/>
      <point x="260.667" y="335"/>
      <point x="203.334" y="249.333"/>
    </contour>
    <contour>
      <point x="87.667" y="163" type="curve" smooth="yes"/>
      <point x="87.667" y="278.667"/>
      <point x="169.333" y="358.667"/>
      <point x="267.667" y="368.666" type="curve"/>
      <point x="267.667" y="372.333" type="line"/>
      <point x="224.001" y="389"/>
      <point x="183" y="429.666"/>
      <point x="183" y="497.666" type="curve" smooth="yes"/>
      <point x="183" y="546.666"/>
      <point x="200.001" y="587.666"/>
      <point x="230.334" y="618.333" type="curve" smooth="yes"/>
      <point x="267.334" y="656.333"/>
      <point x="322.667" y="676.667"/>
      <point x="388" y="679.333" type="curve"/>
      <point x="392.666" y="680"/>
      <point x="397.333" y="680"/>
      <point x="402" y="680" type="curve" smooth="yes"/>
      <point x="551" y="680"/>
      <point x="596" y="597.333"/>
      <point x="596" y="526.666" type="curve" smooth="yes"/>
      <point x="596" y="427.333"/>
      <point x="523.667" y="379.666"/>
      <point x="453.666" y="366.333" type="curve"/>
      <point x="453.666" y="363" type="line"/>
      <point x="502" y="347.667"/>
      <point x="560" y="296"/>
      <point x="560" y="208.333" type="curve" smooth="yes"/>
      <point x="560" y="148.333"/>
      <point x="541" y="95.333"/>
      <point x="502.334" y="56" type="curve" smooth="yes"/>
      <point x="460.667" y="14"/>
      <point x="396.666" y="-12"/>
      <point x="307.333" y="-12" type="curve" smooth="yes"/>
      <point x="151.333" y="-12"/>
      <point x="87.667" y="73"/>
    </contour>
  </outline>
</glyph>
<glyph name="nine" format="2">
  <advance width="549"/>
  <unicode hex="0039"/>
  <outline>
    <contour>
      <point x="246" y="447.333" type="curve" smooth="yes"/>
      <point x="246" y="379.333"/>
      <point x="276" y="320"/>
      <point x="357.667" y="320" type="curve" smooth="yes"/>
      <point x="450.333" y="320"/>
      <point x="476.333" y="420.667"/>
      <point x="476.333" y="496.666" type="curve" smooth="yes"/>
      <point x="476.333" y="580.666"/>
      <point x="443.333" y="641.333"/>
      <point x="376" y="641.333" type="curve" smooth="yes"/>
      <point x="297.667" y="641.333"/>
      <point x="246" y="555"/>
    </contour>
    <contour>
      <point x="88.333" y="101.334" type="curve" smooth="yes"/>
      <point x="88.333" y="138.334"/>
      <point x="119" y="161.667"/>
      <point x="143" y="161.667" type="curve" smooth="yes"/>
      <point x="199.667" y="161.667"/>
      <point x="172.333" y="27.334"/>
      <point x="273.333" y="27.334" type="curve" smooth="yes"/>
      <point x="387" y="27.334"/>
      <point x="441.666" y="200.334"/>
      <point x="463.333" y="332.333" type="curve"/>
      <point x="461.333" y="333.333" type="line"/>
      <point x="416.666" y="287.667"/>
      <point x="369.666" y="262.667"/>
      <point x="313.333" y="262.667" type="curve" smooth="yes"/>
      <point x="213.667" y="262.667"/>
      <point x="135.333" y="330.667"/>
      <point x="135.333" y="436" type="curve" smooth="yes"/>
      <point x="135.333" y="573.666"/>
      <point x="232" y="680"/>
      <point x="372.333" y="680" type="curve" smooth="yes"/>
      <point x="524.333" y="680"/>
      <point x="585.666" y="581.333"/>
      <point x="585.666" y="428.667" type="curve" smooth="yes"/>
      <point x="585.666" y="219"/>
      <point x="486" y="-12.333"/>
      <point x="276.667" y="-12.333" type="curve" smooth="yes"/>
      <point x="177.333" y="-12.333"/>
      <point x="88.333" y="41.334"/>
    </contour>
  </outline>
</glyph>
<glyph name="colon" format="2">
  <advance width="270"/>
  <unicode hex="003A"/>
  <outline>
    <contour>
      <point x="152.333" y="411.666" type="curve" smooth="yes"/>
      <point x="152.333" y="459.333"/>
      <point x="184.666" y="490"/>
      <point x="227.666" y="490" type="curve" smooth="yes"/>
      <point x="270.999" y="490"/>
      <point x="293.666" y="460.333"/>
      <point x="293.666" y="426.667" type="curve" smooth="yes"/>
      <point x="293.666" y="378.333"/>
      <point x="262.333" y="347.333"/>
      <point x="219.333" y="347.333" type="curve" smooth="yes"/>
      <point x="175.333" y="347.333"/>
      <point x="152.333" y="376"/>
    </contour>
    <contour>
      <point x="77" y="52.333" type="curve" smooth="yes"/>
      <point x="77" y="100"/>
      <point x="109.333" y="130.667"/>
      <point x="152.333" y="130.667" type="curve" smooth="yes"/>
      <point x="195.666" y="130.667"/>
      <point x="218.333" y="101"/>
      <point x="218.333" y="67.334" type="curve" smooth="yes"/>
      <point x="218.333" y="19"/>
      <point x="187" y="-12"/>
      <point x="144" y="-12" type="curve" smooth="yes"/>
      <point x="100" y="-12"/>
      <point x="77" y="16.667"/>
    </contour>
  </outline>
</glyph>
<glyph name="semicolon" format="2">
  <advance width="270"/>
  <unicode hex="003B"/>
  <outline>
    <contour>
      <point x="39.333" y="-123.333" type="line"/>
      <point x="76.333" y="-87.333"/>
      <point x="110.333" y="-44.333"/>
      <point x="113" y="-0.333" type="curve" smooth="yes"/>
      <point x="114.333" y="17.334"/>
      <point x="109.333" y="31.667"/>
      <point x="104.333" y="43.334" type="curve" smooth="yes"/>
      <point x="103" y="46.667"/>
      <point x="101" y="50"/>
      <point x="100" y="53.334" type="curve"/>
      <point x="95.667" y="63.334"/>
      <point x="91.333" y="73.334"/>
      <point x="90" y="85" type="curve"/>
      <point x="89.333" y="89.334"/>
      <point x="89.333" y="93"/>
      <point x="89.667" y="97.334" type="curve" smooth="yes"/>
      <point x="92" y="128.667"/>
      <point x="119" y="154.667"/>
      <point x="154" y="154.667" type="curve"/>
      <point x="196.666" y="156.334"/>
      <point x="219.333" y="117"/>
      <point x="219.333" y="79.667" type="curve" smooth="yes"/>
      <point x="219.333" y="-17"/>
      <point x="127.333" y="-91"/>
      <point x="59.333" y="-145" type="curve"/>
    </contour>
    <contour>
      <point x="152.333" y="411.666" type="curve" smooth="yes"/>
      <point x="152.333" y="459.333"/>
      <point x="184.666" y="490"/>
      <point x="227.666" y="490" type="curve" smooth="yes"/>
      <point x="270.999" y="490"/>
      <point x="293.666" y="460.333"/>
      <point x="293.666" y="426.667" type="curve" smooth="yes"/>
      <point x="293.666" y="378.333"/>
      <point x="262.333" y="347.333"/>
      <point x="219.333" y="347.333" type="curve" smooth="yes"/>
      <point x="175.333" y="347.333"/>
      <point x="152.333" y="376"/>
    </contour>
  </outline>
</glyph>
<glyph name="less" format="2">
  <advance width="580"/>
  <unicode hex="003C"/>
  <outline>
    <contour>
      <point x="91" y="207.667" type="line"/>
      <point x="91" y="289" type="line"/>
      <point x="569" y="496.333" type="line"/>
      <point x="569" y="420" type="line"/>
      <point x="162.667" y="248.667" type="line"/>
      <point x="569" y="77.333" type="line"/>
      <point x="569" y="2.333" type="line"/>
    </contour>
  </outline>
</glyph>
<glyph name="equal" format="2">
  <advance width="580"/>
  <unicode hex="003D"/>
  <outline>
    <contour>
      <point x="101.333" y="179.667" type="line"/>
      <point x="101.333" y="245" type="line"/>
      <point x="585.333" y="245" type="line"/>
      <point x="585.333" y="179.667" type="line"/>
    </contour>
    <contour>
      <point x="101.333" y="255" type="line"/>
      <point x="101.333" y="320.333" type="line"/>
      <point x="585.333" y="320.333" type="line"/>
      <point x="585.333" y="255" type="line"/>
    </contour>
  </outline>
</glyph>
<glyph name="greater" format="2">
  <advance width="580"/>
  <unicode hex="003E"/>
  <outline>
    <contour>
      <point x="97.667" y="2.333" type="line"/>
      <point x="97.667" y="77.333" type="line"/>
      <point x="504" y="248.667" type="line"/>
      <point x="97.667" y="420" type="line"/>
      <point x="97.667" y="496.333" type="line"/>
      <point x="575.667" y="289" type="line"/>
      <point x="575.667" y="207.667" type="line"/>
    </contour>
  </outline>
</glyph>
<glyph name="question" format="2">
  <advance width="435"/>
  <unicode hex="003F"/>
  <outline>
    <contour>
      <point x="150" y="52.333" type="curve" smooth="yes"/>
      <point x="150" y="100"/>
      <point x="182.334" y="130.667"/>
      <point x="225.333" y="130.667" type="curve" smooth="yes"/>
      <point x="268.667" y="130.667"/>
      <point x="291.333" y="101"/>
      <point x="291.333" y="67.334" type="curve" smooth="yes"/>
      <point x="291.333" y="19"/>
      <point x="260" y="-12"/>
      <point x="217" y="-12" type="curve" smooth="yes"/>
      <point x="173" y="-12"/>
      <point x="150" y="16.667"/>
    </contour>
    <contour>
      <point x="160.333" y="590.333" type="curve" smooth="yes"/>
      <point x="160.333" y="634"/>
      <point x="219.667" y="707"/>
      <point x="341" y="707" type="curve" smooth="yes"/>
      <point x="447" y="707"/>
      <point x="508" y="657"/>
      <point x="510.333" y="582.666" type="curve"/>
      <point x="510.666" y="577"/>
      <point x="510.666" y="571.333"/>
      <point x="510" y="566.333" type="curve"/>
      <point x="506" y="492"/>
      <point x="453" y="456.333"/>
      <point x="379.333" y="422.333" type="curve" smooth="yes"/>
      <point x="315.666" y="392.666"/>
      <point x="268" y="360.333"/>
      <point x="268" y="310.999" type="curve" smooth="yes"/>
      <point x="268" y="272.333"/>
      <point x="298" y="257.333"/>
      <point x="327" y="256.666" type="curve" smooth="yes"/>
      <point x="345" y="255.999"/>
      <point x="358" y="257.333"/>
      <point x="370" y="258.666" type="curve"/>
      <point x="376.333" y="237.666" type="line"/>
      <point x="350.333" y="219.333"/>
      <point x="304.666" y="205.333"/>
      <point x="268.667" y="205.333" type="curve" smooth="yes"/>
      <point x="212.667" y="205.333"/>
      <point x="160.667" y="233.999"/>
      <point x="160.667" y="294.333" type="curve" smooth="yes"/>
      <point x="160.667" y="342.666"/>
      <point x="197.333" y="378.999"/>
      <point x="265.667" y="417.666" type="curve" smooth="yes"/>
      <point x="357" y="470"/>
      <point x="399" y="537.666"/>
      <point x="399" y="604.333" type="curve" smooth="yes"/>
      <point x="399" y="639.666"/>
      <point x="383.667" y="668.333"/>
      <point x="348.333" y="668.333" type="curve" smooth="yes"/>
      <point x="309.333" y="668.333"/>
      <point x="281" y="631"/>
      <point x="256.666" y="575.333" type="curve"/>
      <point x="254" y="569.666"/>
      <point x="251.666" y="564.666"/>
      <point x="249.333" y="559.333" type="curve"/>
      <point x="243.666" y="547.666"/>
      <point x="233" y="540"/>
      <point x="215" y="540" type="curve" smooth="yes"/>
      <point x="194.667" y="540"/>
      <point x="160.333" y="555.666"/>
    </contour>
  </outline>
</glyph>
<glyph name="at" format="2">
  <advance width="805"/>
  <unicode hex="0040"/>
  <outline>
    <contour>
      <point x="396.666" y="264.333" type="curve" smooth="yes"/>
      <point x="396.666" y="232.667"/>
      <point x="407.666" y="217"/>
      <point x="426.999" y="217" type="curve" smooth="yes"/>
      <point x="473.666" y="217"/>
      <point x="537.666" y="320"/>
      <point x="570" y="398.666" type="curve" smooth="yes"/>
      <point x="584" y="432.333"/>
      <point x="595.333" y="464.333"/>
      <point x="602.667" y="492.666" type="curve"/>
      <point x="593.333" y="499.333"/>
      <point x="583.666" y="503"/>
      <point x="573.666" y="504.333" type="curve" smooth="yes"/>
      <point x="568" y="505"/>
      <point x="563" y="504.666"/>
      <point x="556.666" y="504.333" type="curve" smooth="yes"/>
      <point x="460.333" y="497.666"/>
      <point x="396.666" y="325.333"/>
    </contour>
    <contour>
      <point x="123.667" y="304.333" type="curve" smooth="yes"/>
      <point x="123.667" y="556.999"/>
      <point x="322.666" y="707"/>
      <point x="534.666" y="707" type="curve" smooth="yes"/>
      <point x="728.334" y="707"/>
      <point x="847" y="575.333"/>
      <point x="847" y="414" type="curve" smooth="yes"/>
      <point x="847" y="285.333"/>
      <point x="750.334" y="168.333"/>
      <point x="619.333" y="168.333" type="curve" smooth="yes"/>
      <point x="557.333" y="168.333"/>
      <point x="534.666" y="199.667"/>
      <point x="545.666" y="259.667" type="curve" smooth="yes"/>
      <point x="548.333" y="275"/>
      <point x="552.333" y="291"/>
      <point x="557.666" y="309" type="curve"/>
      <point x="555.333" y="310.333" type="line"/>
      <point x="521.333" y="244.667"/>
      <point x="449.333" y="167"/>
      <point x="371.999" y="168.333" type="curve" smooth="yes"/>
      <point x="334.666" y="169"/>
      <point x="301.333" y="193"/>
      <point x="301.333" y="253.667" type="curve" smooth="yes"/>
      <point x="301.333" y="328.333"/>
      <point x="372.666" y="536.666"/>
      <point x="558.333" y="536.666" type="curve" smooth="yes"/>
      <point x="579.666" y="536.666"/>
      <point x="594" y="533.333"/>
      <point x="610.667" y="524.666" type="curve"/>
      <point x="614.333" y="531.999" type="line"/>
      <point x="694.333" y="531.999" type="line"/>
      <point x="671" y="443.333"/>
      <point x="648" y="355"/>
      <point x="626.333" y="266.333" type="curve" smooth="yes"/>
      <point x="619.333" y="237.667"/>
      <point x="623" y="219"/>
      <point x="643.333" y="214.333" type="curve"/>
      <point x="650.333" y="211.667"/>
      <point x="659" y="211.667"/>
      <point x="667.667" y="213" type="curve" smooth="yes"/>
      <point x="731" y="221.333"/>
      <point x="788.667" y="320.667"/>
      <point x="788.667" y="409" type="curve"/>
      <point x="790.667" y="570.666"/>
      <point x="675" y="659.667"/>
      <point x="533.333" y="659.667" type="curve" smooth="yes"/>
      <point x="341" y="659.667"/>
      <point x="212" y="489"/>
      <point x="212" y="307" type="curve" smooth="yes"/>
      <point x="212" y="188.666"/>
      <point x="277" y="29"/>
      <point x="498" y="29" type="curve" smooth="yes"/>
      <point x="559.666" y="29"/>
      <point x="625.667" y="42"/>
      <point x="671.333" y="61.333" type="curve"/>
      <point x="680.333" y="33" type="line"/>
      <point x="621.333" y="-2.333"/>
      <point x="535.333" y="-15"/>
      <point x="474.333" y="-15" type="curve" smooth="yes"/>
      <point x="296.333" y="-15"/>
      <point x="123.667" y="87"/>
    </contour>
  </outline>
</glyph>
<glyph name="A" format="2">
  <advance width="627"/>
  <unicode hex="0041"/>
  <anchor x="484.333" y="736.667" name="top"/>
  <anchor x="310" y="703.667" name="tonos"/>
  <anchor x="464.333" y="666.667" name="aring"/>
  <anchor x="526.667" y="10" name="ogonek"/>
  <outline>
    <contour>
      <point x="-23.333" y="0" type="line"/>
      <point x="-17" y="32" type="line"/>
      <point x="14" y="35.667" type="line" smooth="yes"/>
      <point x="44.667" y="38.667"/>
      <point x="61" y="49.333"/>
      <point x="89" y="95" type="curve" smooth="yes"/>
      <point x="123" y="150.333"/>
      <point x="199.333" y="286.333"/>
      <point x="253.333" y="381" type="curve" smooth="yes"/>
      <point x="430" y="692" type="line"/>
      <point x="516.667" y="692" type="line"/>
      <point x="587.333" y="88.667" type="line" smooth="yes"/>
      <point x="591.667" y="52"/>
      <point x="596" y="37.667"/>
      <point x="624.333" y="35" type="curve" smooth="yes"/>
      <point x="663.333" y="32" type="line"/>
      <point x="656.667" y="0" type="line"/>
      <point x="392.667" y="0" type="line"/>
      <point x="399.333" y="32" type="line"/>
      <point x="452" y="36.667" type="line" smooth="yes"/>
      <point x="472" y="38.667"/>
      <point x="479" y="47.667"/>
      <point x="476.333" y="75" type="curve" smooth="yes"/>
      <point x="456" y="260" type="line"/>
      <point x="240" y="260" type="line"/>
      <point x="204.667" y="196"/>
      <point x="174" y="134"/>
      <point x="142.667" y="73.667" type="curve"/>
      <point x="133.333" y="53"/>
      <point x="135" y="38.333"/>
      <point x="155.667" y="36.667" type="curve" smooth="yes"/>
      <point x="211" y="32" type="line"/>
      <point x="204.667" y="0" type="line"/>
    </contour>
    <contour>
      <point x="262" y="301.333" type="curve"/>
      <point x="451" y="301.333" type="line"/>
      <point x="419.667" y="584.333" type="line"/>
      <point x="417.667" y="584.333" type="line"/>
      <point x="376" y="510.666"/>
      <point x="301.667" y="375.666"/>
    </contour>
  </outline>
</glyph>
<glyph name="B" format="2">
  <advance width="648"/>
  <unicode hex="0042"/>
  <outline>
    <contour>
      <point x="38.667" y="0" type="line"/>
      <point x="45.667" y="32" type="line"/>
      <point x="98" y="37.334" type="line" smooth="yes"/>
      <point x="123.667" y="40"/>
      <point x="133.334" y="54"/>
      <point x="140.667" y="88" type="curve" smooth="yes"/>
      <point x="256.334" y="604" type="line" smooth="yes"/>
      <point x="264.334" y="638.666"/>
      <point x="260.667" y="652.333"/>
      <point x="236" y="654.333" type="curve" smooth="yes"/>
      <point x="179.667" y="660" type="line"/>
      <point x="187" y="692" type="line"/>
      <point x="436.667" y="692" type="line" smooth="yes"/>
      <point x="545.334" y="692"/>
      <point x="688.667" y="678.667"/>
      <point x="688.667" y="538.333" type="curve" smooth="yes"/>
      <point x="688.667" y="460"/>
      <point x="631.667" y="387"/>
      <point x="499.334" y="371.667" type="curve"/>
      <point x="498.667" y="369" type="line"/>
      <point x="570.333" y="355.667"/>
      <point x="649.667" y="309.333"/>
      <point x="649.667" y="203.333" type="curve" smooth="yes"/>
      <point x="649.667" y="90.334"/>
      <point x="558" y="0"/>
      <point x="352.334" y="0" type="curve" smooth="yes"/>
    </contour>
    <contour>
      <point x="259.667" y="103" type="line" smooth="yes"/>
      <point x="250.667" y="63.667"/>
      <point x="255" y="38.667"/>
      <point x="341" y="38.667" type="curve" smooth="yes"/>
      <point x="469.667" y="38.667"/>
      <point x="522.667" y="124.667"/>
      <point x="522.667" y="215.333" type="curve" smooth="yes"/>
      <point x="522.667" y="317.667"/>
      <point x="449" y="351"/>
      <point x="354.667" y="351" type="curve" smooth="yes"/>
      <point x="315" y="351" type="line"/>
    </contour>
    <contour>
      <point x="323" y="389.667" type="line"/>
      <point x="381" y="389.667" type="line" smooth="yes"/>
      <point x="478.334" y="389.667"/>
      <point x="569" y="436.667"/>
      <point x="569" y="544.667" type="curve" smooth="yes"/>
      <point x="569" y="615.666"/>
      <point x="523" y="653.333"/>
      <point x="445.667" y="653.333" type="curve" smooth="yes"/>
      <point x="386.334" y="653.333"/>
      <point x="381.667" y="647.666"/>
      <point x="374.667" y="617.666" type="curve" smooth="yes"/>
    </contour>
  </outline>
</glyph>
<glyph name="C" format="2">
  <advance width="665"/>
  <unicode hex="0043"/>
  <outline>
    <contour>
      <point x="113" y="275" type="curve" smooth="yes"/>
      <point x="113" y="530.333"/>
      <point x="281" y="707"/>
      <point x="543" y="707" type="curve" smooth="yes"/>
      <point x="608.334" y="707"/>
      <point x="706.334" y="692"/>
      <point x="764.334" y="655.666" type="curve"/>
      <point x="727.334" y="496" type="line"/>
      <point x="694.667" y="496" type="line"/>
      <point x="697.667" y="599"/>
      <point x="660.667" y="668.333"/>
      <point x="538.334" y="668.333" type="curve" smooth="yes"/>
      <point x="324.667" y="668.333"/>
      <point x="240.667" y="426"/>
      <point x="240.667" y="244.333" type="curve" smooth="yes"/>
      <point x="240.667" y="95.334"/>
      <point x="317.334" y="23.667"/>
      <point x="424.667" y="23.667" type="curve" smooth="yes"/>
      <point x="544" y="23.667"/>
      <point x="596.334" y="96"/>
      <point x="654.334" y="197.333" type="curve"/>
      <point x="687" y="197.333" type="line"/>
      <point x="636" y="26.667" type="line"/>
      <point x="572" y="-5.667"/>
      <point x="499.667" y="-15"/>
      <point x="429.334" y="-15" type="curve" smooth="yes"/>
      <point x="166.667" y="-15"/>
      <point x="113" y="156.334"/>
    </contour>
  </outline>
</glyph>
<glyph name="D" format="2">
  <advance width="767"/>
  <unicode hex="0044"/>
  <outline>
    <contour>
      <point x="40" y="0" type="line"/>
      <point x="47" y="32" type="line"/>
      <point x="99.333" y="37.334" type="line" smooth="yes"/>
      <point x="125" y="39.334"/>
      <point x="134" y="54"/>
      <point x="141.333" y="88" type="curve" smooth="yes"/>
      <point x="257.667" y="604" type="line" smooth="yes"/>
      <point x="265" y="638"/>
      <point x="262" y="653"/>
      <point x="237.333" y="655" type="curve" smooth="yes"/>
      <point x="181" y="660" type="line"/>
      <point x="188.333" y="692" type="line"/>
      <point x="459.333" y="692" type="line" smooth="yes"/>
      <point x="653.333" y="692"/>
      <point x="807.667" y="626.666"/>
      <point x="807.667" y="408.333" type="curve" smooth="yes"/>
      <point x="807.667" y="156.667"/>
      <point x="607.333" y="0"/>
      <point x="351.667" y="0" type="curve" smooth="yes"/>
    </contour>
    <contour>
      <point x="256.667" y="89.667" type="line" smooth="yes"/>
      <point x="246.667" y="46"/>
      <point x="281.333" y="38.667"/>
      <point x="334" y="38.667" type="curve" smooth="yes"/>
      <point x="574" y="38.667"/>
      <point x="682" y="246.667"/>
      <point x="682" y="440" type="curve" smooth="yes"/>
      <point x="682" y="525"/>
      <point x="662.333" y="653.333"/>
      <point x="476" y="653.333" type="curve" smooth="yes"/>
      <point x="396.667" y="653.333"/>
      <point x="382.667" y="649"/>
      <point x="375" y="615.333" type="curve" smooth="yes"/>
    </contour>
  </outline>
</glyph>
<glyph name="E" format="2">
  <advance width="605"/>
  <unicode hex="0045"/>
  <anchor x="149.333" y="705.333" name="tonos"/>
  <anchor x="149.333" y="692" name="greek.UC.tonos"/>
  <anchor x="479.333" y="10" name="ogonek"/>
  <anchor x="460.667" y="736.667" name="top"/>
  <outline>
    <contour>
      <point x="38.666" y="0" type="line"/>
      <point x="45.666" y="32" type="line"/>
      <point x="98" y="37.333" type="line" smooth="yes"/>
      <point x="123.666" y="39.333"/>
      <point x="132" y="53.333"/>
      <point x="140" y="88" type="curve" smooth="yes"/>
      <point x="257" y="605.333" type="line" smooth="yes"/>
      <point x="259.164" y="614.719"/>
      <point x="260.256" y="622.573"/>
      <point x="260.256" y="629.074" type="curve" smooth="yes"/>
      <point x="260.256" y="646.569"/>
      <point x="252.3" y="654.207"/>
      <point x="236" y="655.666" type="curve" smooth="yes"/>
      <point x="179" y="660" type="line"/>
      <point x="187.333" y="692" type="line"/>
      <point x="702" y="692" type="line"/>
      <point x="663.334" y="519" type="line"/>
      <point x="632.667" y="519" type="line"/>
      <point x="628.334" y="572" type="line" smooth="yes"/>
      <point x="623.667" y="629"/>
      <point x="601.001" y="653.333"/>
      <point x="527.666" y="653.333" type="curve" smooth="yes"/>
      <point x="411.333" y="653.333" type="line" smooth="yes"/>
      <point x="388.333" y="653.333"/>
      <point x="382" y="648.666"/>
      <point x="376.333" y="623" type="curve" smooth="yes"/>
      <point x="321.666" y="381.666" type="line"/>
      <point x="440.333" y="381.666" type="line" smooth="yes"/>
      <point x="520" y="381.666"/>
      <point x="532.667" y="397.999"/>
      <point x="560.667" y="468.333" type="curve"/>
      <point x="593.334" y="468.333" type="line"/>
      <point x="546" y="253" type="line"/>
      <point x="513.333" y="253" type="line"/>
      <point x="513.912" y="261.648"/>
      <point x="514.211" y="271.091"/>
      <point x="514.211" y="281.487" type="curve" smooth="yes"/>
      <point x="514.211" y="323.453"/>
      <point x="499.252" y="340.333"/>
      <point x="431.333" y="340.333" type="curve" smooth="yes"/>
      <point x="312.666" y="340.333" type="line"/>
      <point x="261" y="115.666" type="line" smooth="yes"/>
      <point x="258.318" y="103.974"/>
      <point x="256.782" y="93.917"/>
      <point x="256.781" y="85.306" type="curve" smooth="yes"/>
      <point x="256.78" y="48.008"/>
      <point x="286.114" y="38.666"/>
      <point x="370.294" y="38.666" type="curve" smooth="yes"/>
      <point x="473.333" y="38.666"/>
      <point x="522" y="61"/>
      <point x="566.334" y="142" type="curve" smooth="yes"/>
      <point x="591" y="186.666" type="line"/>
      <point x="623.667" y="186.666" type="line"/>
      <point x="570" y="0" type="line"/>
    </contour>
  </outline>
</glyph>
<glyph name="F" format="2">
  <advance width="576"/>
  <unicode hex="0046"/>
  <outline>
    <contour>
      <point x="38.666" y="0" type="line"/>
      <point x="45.666" y="32" type="line"/>
      <point x="98" y="36.667" type="line" smooth="yes"/>
      <point x="123.666" y="38.667"/>
      <point x="132.666" y="54"/>
      <point x="140" y="86" type="curve" smooth="yes"/>
      <point x="257" y="606" type="line" smooth="yes"/>
      <point x="264.333" y="637.333"/>
      <point x="260.666" y="652"/>
      <point x="236" y="654.333" type="curve" smooth="yes"/>
      <point x="179.666" y="660" type="line"/>
      <point x="187" y="692" type="line"/>
      <point x="702.667" y="692" type="line"/>
      <point x="664.001" y="521" type="line"/>
      <point x="633.334" y="521" type="line"/>
      <point x="629.001" y="577.333" type="line" smooth="yes"/>
      <point x="625.001" y="630"/>
      <point x="603.001" y="653.333"/>
      <point x="515.666" y="653.333" type="curve" smooth="yes"/>
      <point x="409" y="653.333" type="line" smooth="yes"/>
      <point x="388.666" y="653.333"/>
      <point x="382.333" y="647.666"/>
      <point x="376.666" y="623.666" type="curve" smooth="yes"/>
      <point x="318.333" y="366" type="line"/>
      <point x="444" y="366" type="line" smooth="yes"/>
      <point x="523.666" y="366"/>
      <point x="536.667" y="382.667"/>
      <point x="564.667" y="453.667" type="curve"/>
      <point x="597.334" y="453.667" type="line"/>
      <point x="550" y="237" type="line"/>
      <point x="517.333" y="237" type="line"/>
      <point x="521" y="301.334"/>
      <point x="515.333" y="324.667"/>
      <point x="435.333" y="324.667" type="curve" smooth="yes"/>
      <point x="309" y="324.667" type="line"/>
      <point x="254.666" y="85" type="line" smooth="yes"/>
      <point x="247.333" y="53"/>
      <point x="253" y="39"/>
      <point x="279.666" y="36.667" type="curve" smooth="yes"/>
      <point x="348" y="32" type="line"/>
      <point x="341.333" y="0" type="line"/>
    </contour>
  </outline>
</glyph>
<glyph name="G" format="2">
  <advance width="715"/>
  <unicode hex="0047"/>
  <outline>
    <contour>
      <point x="113" y="284.667" type="curve" smooth="yes"/>
      <point x="113" y="539"/>
      <point x="293" y="707"/>
      <point x="545.667" y="707" type="curve" smooth="yes"/>
      <point x="623.666" y="707"/>
      <point x="708.666" y="692.333"/>
      <point x="769.667" y="656.333" type="curve"/>
      <point x="734" y="494" type="line"/>
      <point x="701.333" y="494" type="line"/>
      <point x="703" y="585.333"/>
      <point x="677" y="668.333"/>
      <point x="544.333" y="668.333" type="curve" smooth="yes"/>
      <point x="320.334" y="668.333"/>
      <point x="242.667" y="430.667"/>
      <point x="242.667" y="265.667" type="curve" smooth="yes"/>
      <point x="242.667" y="102.334"/>
      <point x="317.334" y="23.667"/>
      <point x="435" y="23.667" type="curve" smooth="yes"/>
      <point x="524.333" y="23.667"/>
      <point x="537" y="44.334"/>
      <point x="544.667" y="76.667" type="curve" smooth="yes"/>
      <point x="580.333" y="222" type="line" smooth="yes"/>
      <point x="589.333" y="257"/>
      <point x="583" y="270.334"/>
      <point x="563.667" y="272.334" type="curve" smooth="yes"/>
      <point x="492.333" y="278.667" type="line"/>
      <point x="499" y="310.667" type="line"/>
      <point x="778.333" y="310.667" type="line"/>
      <point x="771.333" y="278.667" type="line"/>
      <point x="728.333" y="274" type="line" smooth="yes"/>
      <point x="709" y="271.667"/>
      <point x="703.666" y="255.667"/>
      <point x="695.666" y="222" type="curve" smooth="yes"/>
      <point x="650.333" y="28" type="line"/>
      <point x="588.333" y="0.333"/>
      <point x="504" y="-15"/>
      <point x="430.333" y="-15" type="curve" smooth="yes"/>
      <point x="236.334" y="-15"/>
      <point x="113" y="79"/>
    </contour>
  </outline>
</glyph>
<glyph name="H" format="2">
  <advance width="780"/>
  <unicode hex="0048"/>
  <anchor x="152" y="703.667" name="tonos"/>
  <outline>
    <contour>
      <point x="36.6667" y="0" type="line"/>
      <point x="43.6667" y="32" type="line"/>
      <point x="95.3337" y="37.333" type="line" smooth="yes"/>
      <point x="121" y="39.333"/>
      <point x="130" y="53.333"/>
      <point x="138" y="88" type="curve" smooth="yes"/>
      <point x="255" y="604" type="line" smooth="yes"/>
      <point x="262.334" y="637.333"/>
      <point x="258.667" y="653.667"/>
      <point x="234" y="655.667" type="curve" smooth="yes"/>
      <point x="177.667" y="660" type="line"/>
      <point x="185.667" y="692" type="line"/>
      <point x="472.334" y="692" type="line"/>
      <point x="464.334" y="660" type="line"/>
      <point x="413" y="655.333" type="line" smooth="yes"/>
      <point x="386.667" y="653.333"/>
      <point x="378.334" y="638"/>
      <point x="370.334" y="604" type="curve" smooth="yes"/>
      <point x="319.667" y="381.666" type="line"/>
      <point x="629" y="381.666" type="line"/>
      <point x="679" y="604" type="line" smooth="yes"/>
      <point x="686.334" y="637.333"/>
      <point x="682.667" y="653.667"/>
      <point x="658" y="655.667" type="curve" smooth="yes"/>
      <point x="601.667" y="660" type="line"/>
      <point x="609.667" y="692" type="line"/>
      <point x="896.334" y="692" type="line"/>
      <point x="888.334" y="660" type="line"/>
      <point x="837" y="655.333" type="line" smooth="yes"/>
      <point x="810.667" y="653.333"/>
      <point x="802.334" y="638"/>
      <point x="794.334" y="604" type="curve" smooth="yes"/>
      <point x="677.334" y="88" type="line" smooth="yes"/>
      <point x="669.334" y="54"/>
      <point x="673" y="38.333"/>
      <point x="698.334" y="36" type="curve" smooth="yes"/>
      <point x="754.334" y="32" type="line"/>
      <point x="747.334" y="0" type="line"/>
      <point x="460.667" y="0" type="line"/>
      <point x="467.667" y="32" type="line"/>
      <point x="519.334" y="37.333" type="line" smooth="yes"/>
      <point x="545" y="39.333"/>
      <point x="554" y="53.333"/>
      <point x="562" y="88" type="curve" smooth="yes"/>
      <point x="619.334" y="340.333" type="line"/>
      <point x="310" y="340.333" type="line"/>
      <point x="253.334" y="88" type="line" smooth="yes"/>
      <point x="246" y="54"/>
      <point x="249" y="38.333"/>
      <point x="274.334" y="36" type="curve" smooth="yes"/>
      <point x="330.334" y="32" type="line"/>
      <point x="323.334" y="0" type="line"/>
    </contour>
  </outline>
</glyph>
<glyph name="I" format="2">
  <advance width="356"/>
  <unicode hex="0049"/>
  <anchor x="358.667" y="740" name="top"/>
  <anchor x="153" y="703.667" name="tonos"/>
  <outline>
    <contour>
      <point x="36.6663" y="0" type="line"/>
      <point x="43.6663" y="32" type="line"/>
      <point x="95.3333" y="37.333" type="line" smooth="yes"/>
      <point x="121" y="40.333"/>
      <point x="130.666" y="54.667"/>
      <point x="138" y="88" type="curve" smooth="yes"/>
      <point x="255" y="604" type="line" smooth="yes"/>
      <point x="257.178" y="613.542"/>
      <point x="258.466" y="621.666"/>
      <point x="258.466" y="628.438" type="curve" smooth="yes"/>
      <point x="258.466" y="644.805"/>
      <point x="251.302" y="654.042"/>
      <point x="234" y="655.667" type="curve" smooth="yes"/>
      <point x="177.666" y="660" type="line"/>
      <point x="185.666" y="692" type="line"/>
      <point x="472.333" y="692" type="line"/>
      <point x="464.333" y="660" type="line"/>
      <point x="413" y="655.333" type="line" smooth="yes"/>
      <point x="386.666" y="653"/>
      <point x="377.666" y="636.667"/>
      <point x="370.333" y="604" type="curve" smooth="yes"/>
      <point x="253.333" y="88" type="line" smooth="yes"/>
      <point x="251.102" y="78.049"/>
      <point x="249.764" y="69.574"/>
      <point x="249.764" y="62.555" type="curve" smooth="yes"/>
      <point x="249.764" y="46.278"/>
      <point x="256.719" y="37.397"/>
      <point x="274.333" y="36" type="curve" smooth="yes"/>
      <point x="330.333" y="32" type="line"/>
      <point x="323.333" y="0" type="line"/>
    </contour>
  </outline>
</glyph>
<glyph name="K" format="2">
  <advance width="663"/>
  <unicode hex="004B"/>
  <outline>
    <contour>
      <point x="40" y="0" type="line"/>
      <point x="47" y="32" type="line"/>
      <point x="98.667" y="37.333" type="line" smooth="yes"/>
      <point x="124.333" y="39.333"/>
      <point x="134" y="54.667"/>
      <point x="141.333" y="88" type="curve" smooth="yes"/>
      <point x="258.333" y="604" type="line" smooth="yes"/>
      <point x="265.667" y="636"/>
      <point x="262" y="653.667"/>
      <point x="237.333" y="655.667" type="curve" smooth="yes"/>
      <point x="181" y="660" type="line"/>
      <point x="189" y="692" type="line"/>
      <point x="475.667" y="692" type="line"/>
      <point x="467.667" y="660" type="line"/>
      <point x="416.333" y="655.333" type="line" smooth="yes"/>
      <point x="390" y="653.333"/>
      <point x="381" y="636.667"/>
      <point x="373.667" y="604" type="curve" smooth="yes"/>
      <point x="320.333" y="368.667" type="line"/>
      <point x="322.333" y="366.667" type="line"/>
      <point x="422.667" y="452.667"/>
      <point x="515.667" y="535"/>
      <point x="607.333" y="622.667" type="curve" smooth="yes"/>
      <point x="628" y="643"/>
      <point x="629.333" y="654.333"/>
      <point x="606.333" y="657" type="curve"/>
      <point x="572.667" y="660" type="line"/>
      <point x="577.667" y="692" type="line"/>
      <point x="833.333" y="692" type="line"/>
      <point x="828.333" y="660" type="line"/>
      <point x="754" y="654.667"/>
      <point x="732" y="644"/>
      <point x="678.333" y="606.667" type="curve" smooth="yes"/>
      <point x="586.667" y="543.667"/>
      <point x="505" y="475"/>
      <point x="418" y="397.667" type="curve"/>
      <point x="461" y="303.667"/>
      <point x="522.333" y="186.333"/>
      <point x="590" y="99.333" type="curve" smooth="yes"/>
      <point x="622" y="58.333"/>
      <point x="644.667" y="33.667"/>
      <point x="695.667" y="26" type="curve"/>
      <point x="689" y="-5.333" type="line"/>
      <point x="642.333" y="-5.333" type="line" smooth="yes"/>
      <point x="544.667" y="-5.333"/>
      <point x="502.333" y="23"/>
      <point x="455" y="94.333" type="curve" smooth="yes"/>
      <point x="401" y="173.667"/>
      <point x="359" y="262.333"/>
      <point x="318.333" y="352.667" type="curve"/>
      <point x="316.333" y="352.667" type="line"/>
      <point x="256.667" y="88" type="line" smooth="yes"/>
      <point x="249.333" y="55.333"/>
      <point x="252.333" y="38.333"/>
      <point x="277.667" y="36" type="curve" smooth="yes"/>
      <point x="333.667" y="32" type="line"/>
      <point x="326.667" y="0" type="line"/>
    </contour>
  </outline>
</glyph>
<glyph name="L" format="2">
  <advance width="572"/>
  <unicode hex="004C"/>
  <outline>
    <contour>
      <point x="40" y="0" type="line"/>
      <point x="47" y="32" type="line"/>
      <point x="98.667" y="37.333" type="line" smooth="yes"/>
      <point x="124.333" y="39.666"/>
      <point x="133.333" y="52.666"/>
      <point x="141.333" y="88" type="curve" smooth="yes"/>
      <point x="258.333" y="604" type="line" smooth="yes"/>
      <point x="266.333" y="638"/>
      <point x="262" y="653.333"/>
      <point x="237.333" y="655.333" type="curve" smooth="yes"/>
      <point x="181" y="660" type="line"/>
      <point x="189" y="692" type="line"/>
      <point x="479" y="692" type="line"/>
      <point x="471" y="660" type="line"/>
      <point x="416.333" y="656" type="line" smooth="yes"/>
      <point x="390" y="653.667"/>
      <point x="381" y="638"/>
      <point x="373" y="604" type="curve" smooth="yes"/>
      <point x="262.333" y="115" type="line" smooth="yes"/>
      <point x="251.333" y="67.333"/>
      <point x="261.333" y="55.333"/>
      <point x="296" y="47.333" type="curve"/>
      <point x="329.333" y="40.666"/>
      <point x="378.667" y="46.666"/>
      <point x="428.667" y="74.333" type="curve"/>
      <point x="506.067" y="77.64"/>
      <point x="541.565" y="98.436"/>
      <point x="578" y="184.333" type="curve"/>
      <point x="610.667" y="184.333" type="line"/>
      <point x="557.333" y="0" type="line"/>
    </contour>
  </outline>
</glyph>
<glyph name="M" format="2">
  <advance width="920"/>
  <unicode hex="004D"/>
  <outline>
    <contour>
      <point x="32.333" y="0" type="line"/>
      <point x="38" y="32" type="line"/>
      <point x="71" y="35" type="line" smooth="yes"/>
      <point x="98" y="37.667"/>
      <point x="115.333" y="47.667"/>
      <point x="126.667" y="80.333" type="curve" smooth="yes"/>
      <point x="138" y="113.667"/>
      <point x="148.667" y="152"/>
      <point x="161.667" y="212.333" type="curve" smooth="yes"/>
      <point x="249.667" y="604" type="line" smooth="yes"/>
      <point x="257.667" y="638"/>
      <point x="253.333" y="652.333"/>
      <point x="228.667" y="654.333" type="curve" smooth="yes"/>
      <point x="172.333" y="660" type="line"/>
      <point x="180.333" y="692" type="line"/>
      <point x="390.667" y="692" type="line"/>
      <point x="406" y="607"/>
      <point x="424" y="522.667"/>
      <point x="442" y="437" type="curve"/>
      <point x="494.333" y="167.333" type="line"/>
      <point x="497.333" y="167.333" type="line"/>
      <point x="663.667" y="432.333" type="line" smooth="yes"/>
      <point x="719" y="520"/>
      <point x="773.333" y="605.667"/>
      <point x="821.333" y="692" type="curve"/>
      <point x="1035.67" y="692" type="line"/>
      <point x="1027.67" y="660" type="line"/>
      <point x="976.333" y="656" type="line" smooth="yes"/>
      <point x="950" y="654"/>
      <point x="941.667" y="638.667"/>
      <point x="933.667" y="604" type="curve" smooth="yes"/>
      <point x="817" y="88" type="line" smooth="yes"/>
      <point x="809.667" y="54.667"/>
      <point x="812.667" y="39.667"/>
      <point x="838" y="37.333" type="curve" smooth="yes"/>
      <point x="894" y="32" type="line"/>
      <point x="887" y="0" type="line"/>
      <point x="605" y="0" type="line"/>
      <point x="612" y="32" type="line"/>
      <point x="663.333" y="37.333" type="line" smooth="yes"/>
      <point x="689" y="39.333"/>
      <point x="698" y="53.333"/>
      <point x="706" y="88" type="curve" smooth="yes"/>
      <point x="824.333" y="599" type="line"/>
      <point x="821.333" y="599" type="line"/>
      <point x="452.667" y="12" type="line"/>
      <point x="412.333" y="12" type="line"/>
      <point x="301" y="599" type="line"/>
      <point x="298.667" y="599" type="line"/>
      <point x="213.333" y="212.333" type="line" smooth="yes"/>
      <point x="200" y="152.333"/>
      <point x="193.667" y="114"/>
      <point x="190.667" y="80.333" type="curve" smooth="yes"/>
      <point x="187.667" y="48.667"/>
      <point x="202" y="37.667"/>
      <point x="233" y="35" type="curve" smooth="yes"/>
      <point x="276.667" y="32" type="line"/>
      <point x="270.667" y="0" type="line"/>
    </contour>
  </outline>
</glyph>
<glyph name="N" format="2">
  <advance width="756"/>
  <unicode hex="004E"/>
  <anchor x="538" y="740" name="top"/>
  <outline>
    <contour>
      <point x="30.667" y="0" type="line"/>
      <point x="36.667" y="32" type="line"/>
      <point x="69.667" y="35" type="line" smooth="yes"/>
      <point x="97.667" y="37.667"/>
      <point x="114" y="47.667"/>
      <point x="125.667" y="80.333" type="curve" smooth="yes"/>
      <point x="137.333" y="113.667"/>
      <point x="148" y="152"/>
      <point x="161.667" y="212.333" type="curve" smooth="yes"/>
      <point x="250.333" y="604" type="line" smooth="yes"/>
      <point x="258.333" y="638"/>
      <point x="254" y="652.333"/>
      <point x="229.333" y="654.333" type="curve" smooth="yes"/>
      <point x="173.333" y="660" type="line"/>
      <point x="181.333" y="692" type="line"/>
      <point x="382" y="692" type="line"/>
      <point x="461.333" y="510.667"/>
      <point x="542.333" y="329.667"/>
      <point x="623.667" y="148.333" type="curve"/>
      <point x="627.333" y="148.333" type="line"/>
      <point x="701.667" y="479.667" type="line" smooth="yes"/>
      <point x="715" y="539.667"/>
      <point x="722" y="578"/>
      <point x="725" y="611.667" type="curve" smooth="yes"/>
      <point x="728" y="644.667"/>
      <point x="714" y="653"/>
      <point x="683" y="656.333" type="curve" smooth="yes"/>
      <point x="639" y="660" type="line"/>
      <point x="645" y="692" type="line"/>
      <point x="884.333" y="692" type="line"/>
      <point x="878.333" y="660" type="line"/>
      <point x="845.333" y="657" type="line" smooth="yes"/>
      <point x="817.333" y="654.333"/>
      <point x="801" y="644.333"/>
      <point x="789.333" y="611.667" type="curve" smooth="yes"/>
      <point x="777.667" y="578.333"/>
      <point x="767" y="540"/>
      <point x="753.333" y="479.667" type="curve" smooth="yes"/>
      <point x="645.333" y="0" type="line"/>
      <point x="567.333" y="0" type="line"/>
      <point x="480" y="197.667"/>
      <point x="392.333" y="395.333"/>
      <point x="303" y="593" type="curve"/>
      <point x="299.667" y="593" type="line"/>
      <point x="213" y="212.333" type="line" smooth="yes"/>
      <point x="200" y="152.333"/>
      <point x="193.333" y="114"/>
      <point x="190" y="80.333" type="curve" smooth="yes"/>
      <point x="187" y="48.667"/>
      <point x="201.333" y="37.667"/>
      <point x="232" y="35" type="curve" smooth="yes"/>
      <point x="276" y="32" type="line"/>
      <point x="270" y="0" type="line"/>
    </contour>
  </outline>
</glyph>
<glyph name="O" format="2">
  <advance width="756"/>
  <unicode hex="004F"/>
  <anchor x="526.333" y="736.667" name="top"/>
  <anchor x="399" y="10" name="ogonek"/>
  <anchor x="152" y="703.667" name="tonos"/>
  <outline>
    <contour>
      <point x="113.667" y="268" type="curve" smooth="yes"/>
      <point x="113.667" y="495"/>
      <point x="256" y="707"/>
      <point x="502.334" y="707" type="curve" smooth="yes"/>
      <point x="668.334" y="707"/>
      <point x="793.667" y="619.666"/>
      <point x="793.667" y="415.667" type="curve" smooth="yes"/>
      <point x="793.667" y="190.333"/>
      <point x="655" y="-15"/>
      <point x="411.334" y="-15" type="curve" smooth="yes"/>
      <point x="211.667" y="-15"/>
      <point x="113.667" y="101.667"/>
    </contour>
    <contour>
      <point x="238.667" y="216.667" type="curve" smooth="yes"/>
      <point x="238.667" y="90"/>
      <point x="299.667" y="23.667"/>
      <point x="399.667" y="23.667" type="curve" smooth="yes"/>
      <point x="590.334" y="23.667"/>
      <point x="668.667" y="300.667"/>
      <point x="668.667" y="479.333" type="curve" smooth="yes"/>
      <point x="668.667" y="602.666"/>
      <point x="613" y="668.333"/>
      <point x="510" y="668.333" type="curve" smooth="yes"/>
      <point x="319" y="668.333"/>
      <point x="238.667" y="379.667"/>
    </contour>
  </outline>
</glyph>
<glyph name="P" format="2">
  <advance width="629"/>
  <unicode hex="0050"/>
  <outline>
    <contour>
      <point x="40" y="0" type="line"/>
      <point x="47" y="32" type="line"/>
      <point x="98.667" y="37.333" type="line" smooth="yes"/>
      <point x="124.333" y="39.333"/>
      <point x="133.333" y="53.333"/>
      <point x="141.333" y="88" type="curve" smooth="yes"/>
      <point x="258.667" y="604" type="line" smooth="yes"/>
      <point x="266.667" y="638"/>
      <point x="262.333" y="653"/>
      <point x="237.667" y="655" type="curve" smooth="yes"/>
      <point x="181.333" y="660" type="line"/>
      <point x="189.333" y="692" type="line"/>
      <point x="429.333" y="692" type="line" smooth="yes"/>
      <point x="556" y="692"/>
      <point x="697" y="662"/>
      <point x="697" y="505.333" type="curve" smooth="yes"/>
      <point x="697" y="320.667"/>
      <point x="520.333" y="274.667"/>
      <point x="369.667" y="274.667" type="curve" smooth="yes"/>
      <point x="299.333" y="274.667" type="line"/>
      <point x="256.667" y="88" type="line" smooth="yes"/>
      <point x="249.333" y="55.333"/>
      <point x="252.333" y="39.667"/>
      <point x="278.333" y="37.667" type="curve" smooth="yes"/>
      <point x="346" y="32" type="line"/>
      <point x="339.333" y="0" type="line"/>
    </contour>
    <contour>
      <point x="316.667" y="352.334" type="line" smooth="yes"/>
      <point x="310.333" y="324.334"/>
      <point x="309.333" y="313.334"/>
      <point x="371" y="313.334" type="curve" smooth="yes"/>
      <point x="501" y="313.334"/>
      <point x="574" y="398.334"/>
      <point x="574" y="527.667" type="curve" smooth="yes"/>
      <point x="574" y="609.666"/>
      <point x="527.667" y="653.333"/>
      <point x="438.667" y="653.333" type="curve" smooth="yes"/>
      <point x="390" y="653.333"/>
      <point x="383.333" y="644.333"/>
      <point x="377" y="617.333" type="curve" smooth="yes"/>
    </contour>
  </outline>
</glyph>
<glyph name="Q" format="2">
  <advance width="756"/>
  <unicode hex="0051"/>
  <outline>
    <component base="O"/>
    <contour>
      <point x="343" y="3.666" type="curve"/>
      <point x="477.333" y="3.666" type="line"/>
      <point x="517.333" y="-70.334"/>
      <point x="603.333" y="-163.334"/>
      <point x="696.667" y="-163.334" type="curve"/>
      <point x="700.333" y="-182.667" type="line"/>
      <point x="681.667" y="-193.334"/>
      <point x="648.333" y="-199.667"/>
      <point x="619.333" y="-199.667" type="curve" smooth="yes"/>
      <point x="486.667" y="-199.667"/>
      <point x="383.333" y="-91.667"/>
    </contour>
  </outline>
</glyph>
<glyph name="R" format="2">
  <advance width="654"/>
  <unicode hex="0052"/>
  <outline>
    <contour>
      <point x="40" y="0" type="line"/>
      <point x="47" y="32" type="line"/>
      <point x="98.667" y="37.333" type="line" smooth="yes"/>
      <point x="124.333" y="39.333"/>
      <point x="133.333" y="52.667"/>
      <point x="141.333" y="88" type="curve" smooth="yes"/>
      <point x="258.333" y="604" type="line" smooth="yes"/>
      <point x="266.333" y="638"/>
      <point x="262" y="653"/>
      <point x="237.333" y="655" type="curve" smooth="yes"/>
      <point x="181" y="660" type="line"/>
      <point x="189" y="692" type="line"/>
      <point x="463" y="692" type="line" smooth="yes"/>
      <point x="626" y="692"/>
      <point x="695" y="626.333"/>
      <point x="695" y="529.667" type="curve" smooth="yes"/>
      <point x="695" y="429"/>
      <point x="610" y="358.334"/>
      <point x="487" y="344.334" type="curve"/>
      <point x="487" y="342.333" type="line"/>
      <point x="581.666" y="317.667"/>
      <point x="584" y="251.333"/>
      <point x="582.333" y="171.333" type="curve" smooth="yes"/>
      <point x="580.666" y="119.333"/>
      <point x="586.666" y="84"/>
      <point x="598" y="64.667" type="curve" smooth="yes"/>
      <point x="609.666" y="45.333"/>
      <point x="633.666" y="35.667"/>
      <point x="671.667" y="32" type="curve"/>
      <point x="662.667" y="0" type="line"/>
      <point x="578.666" y="0" type="line" smooth="yes"/>
      <point x="513.667" y="0"/>
      <point x="479.333" y="27"/>
      <point x="471" y="79" type="curve"/>
      <point x="461" y="151"/>
      <point x="471.333" y="228.333"/>
      <point x="465" y="264" type="curve" smooth="yes"/>
      <point x="455.667" y="315.333"/>
      <point x="418" y="323"/>
      <point x="369" y="323" type="curve" smooth="yes"/>
      <point x="309.667" y="323" type="line"/>
      <point x="256.667" y="88" type="line" smooth="yes"/>
      <point x="248.667" y="53.333"/>
      <point x="252.333" y="39"/>
      <point x="277.667" y="36.667" type="curve" smooth="yes"/>
      <point x="333.667" y="32" type="line"/>
      <point x="326.667" y="0" type="line"/>
    </contour>
    <contour>
      <point x="318.333" y="361.667" type="line"/>
      <point x="382" y="361.667" type="line" smooth="yes"/>
      <point x="494.333" y="361.667"/>
      <point x="572" y="424"/>
      <point x="572" y="541.667" type="curve" smooth="yes"/>
      <point x="572" y="623"/>
      <point x="519.667" y="653.333"/>
      <point x="454" y="653.333" type="curve" smooth="yes"/>
      <point x="387.333" y="653.333"/>
      <point x="383" y="643.666"/>
      <point x="376.333" y="616" type="curve" smooth="yes"/>
    </contour>
  </outline>
</glyph>
<glyph name="T" format="2">
  <advance width="609"/>
  <unicode hex="0054"/>
  <outline>
    <contour>
      <point x="133.333" y="517" type="line"/>
      <point x="173" y="692" type="line"/>
      <point x="747.667" y="692" type="line"/>
      <point x="708" y="517" type="line"/>
      <point x="677.333" y="517" type="line"/>
      <point x="675" y="557.333" type="line" smooth="yes"/>
      <point x="670.666" y="627.333"/>
      <point x="643.333" y="653.333"/>
      <point x="567.333" y="653.333" type="curve" smooth="yes"/>
      <point x="509.333" y="653.333" type="line"/>
      <point x="381.333" y="86.666" type="line" smooth="yes"/>
      <point x="374" y="54"/>
      <point x="377" y="38.333"/>
      <point x="405" y="36.333" type="curve" smooth="yes"/>
      <point x="475" y="32" type="line"/>
      <point x="467.333" y="0" type="line"/>
      <point x="148.666" y="0" type="line"/>
      <point x="156.333" y="32" type="line"/>
      <point x="219.333" y="36" type="line" smooth="yes"/>
      <point x="249" y="38"/>
      <point x="258.666" y="54"/>
      <point x="266" y="86.666" type="curve" smooth="yes"/>
      <point x="394" y="653.333" type="line"/>
      <point x="330.666" y="653.333" type="line" smooth="yes"/>
      <point x="252.666" y="653.333"/>
      <point x="218" y="628.333"/>
      <point x="185" y="556.666" type="curve" smooth="yes"/>
      <point x="166" y="517" type="line"/>
    </contour>
  </outline>
</glyph>
<glyph name="U" format="2">
  <advance width="788"/>
  <unicode hex="0055"/>
  <anchor x="564.667" y="736.667" name="top"/>
  <outline>
    <contour>
      <point x="171" y="251" type="curve" smooth="yes"/>
      <point x="253.333" y="604" type="line" smooth="yes"/>
      <point x="261.333" y="638"/>
      <point x="257" y="653"/>
      <point x="232.333" y="655" type="curve" smooth="yes"/>
      <point x="176" y="660" type="line"/>
      <point x="184" y="692" type="line"/>
      <point x="470.667" y="692" type="line"/>
      <point x="462.667" y="660" type="line"/>
      <point x="411.333" y="656" type="line" smooth="yes"/>
      <point x="385" y="654"/>
      <point x="376.667" y="638.667"/>
      <point x="368.667" y="604" type="curve" smooth="yes"/>
      <point x="289.333" y="257" type="line" smooth="yes"/>
      <point x="249" y="81.334"/>
      <point x="312" y="23.667"/>
      <point x="412.333" y="23.667" type="curve" smooth="yes"/>
      <point x="534.333" y="23.667"/>
      <point x="582.333" y="119.334"/>
      <point x="614.333" y="259.334" type="curve" smooth="yes"/>
      <point x="693.333" y="604" type="line" smooth="yes"/>
      <point x="701.333" y="638"/>
      <point x="697" y="653"/>
      <point x="672.333" y="655" type="curve" smooth="yes"/>
      <point x="616" y="660" type="line"/>
      <point x="624" y="692" type="line"/>
      <point x="910.667" y="692" type="line"/>
      <point x="902.667" y="660" type="line"/>
      <point x="851.333" y="655.333" type="line" smooth="yes"/>
      <point x="825" y="653.333"/>
      <point x="816.667" y="638.667"/>
      <point x="808.667" y="604" type="curve" smooth="yes"/>
      <point x="726" y="249" type="line" smooth="yes"/>
      <point x="675" y="29.667"/>
      <point x="564.333" y="-15"/>
      <point x="407.333" y="-15" type="curve" smooth="yes"/>
      <point x="233.667" y="-15"/>
      <point x="125.667" y="55.334"/>
    </contour>
  </outline>
</glyph>
<glyph name="V" format="2">
  <advance width="635"/>
  <unicode hex="0056"/>
  <outline>
    <contour>
      <point x="129.667" y="660" type="line"/>
      <point x="135.333" y="692" type="line"/>
      <point x="399.333" y="692" type="line"/>
      <point x="393.667" y="660" type="line"/>
      <point x="331" y="654" type="line" smooth="yes"/>
      <point x="312.667" y="652"/>
      <point x="311.333" y="639.667"/>
      <point x="313.333" y="621.667" type="curve" smooth="yes"/>
      <point x="319.333" y="559.667"/>
      <point x="332.667" y="435.667"/>
      <point x="341.333" y="369.667" type="curve" smooth="yes"/>
      <point x="373.333" y="112" type="line"/>
      <point x="375.333" y="112" type="line"/>
      <point x="397.667" y="150.315"/>
      <point x="491.356" y="316.552"/>
      <point x="511.667" y="353" type="curve" smooth="yes"/>
      <point x="586.333" y="485.667"/>
      <point x="634" y="573.667"/>
      <point x="657" y="623.333" type="curve" smooth="yes"/>
      <point x="667.333" y="645.333"/>
      <point x="663" y="653.667"/>
      <point x="644.667" y="655.333" type="curve" smooth="yes"/>
      <point x="589.333" y="660" type="line"/>
      <point x="595.333" y="692" type="line"/>
      <point x="820" y="692" type="line"/>
      <point x="814.333" y="660" type="line"/>
      <point x="759" y="655.333"/>
      <point x="746.667" y="650"/>
      <point x="722.333" y="612" type="curve" smooth="yes"/>
      <point x="683" y="550.333"/>
      <point x="623.333" y="450.333"/>
      <point x="560.333" y="341" type="curve" smooth="yes"/>
      <point x="363.667" y="0" type="line"/>
      <point x="277.667" y="0" type="line"/>
      <point x="238.667" y="316.667" type="line" smooth="yes"/>
      <point x="225.667" y="426"/>
      <point x="213" y="525.667"/>
      <point x="202.333" y="608.667" type="curve" smooth="yes"/>
      <point x="197.667" y="642.667"/>
      <point x="189.333" y="652.667"/>
      <point x="167.667" y="655.333" type="curve" smooth="yes"/>
    </contour>
  </outline>
</glyph>
<glyph name="W" format="2">
  <advance width="937"/>
  <unicode hex="0057"/>
  <outline>
    <contour>
      <point x="119" y="660" type="line"/>
      <point x="125.333" y="692" type="line"/>
      <point x="388.667" y="692" type="line"/>
      <point x="381.667" y="660" type="line"/>
      <point x="320" y="654.333" type="line" smooth="yes"/>
      <point x="303" y="653"/>
      <point x="297.667" y="643.333"/>
      <point x="299.333" y="621.667" type="curve" smooth="yes"/>
      <point x="326.667" y="130" type="line"/>
      <point x="331.667" y="130" type="line"/>
      <point x="589.333" y="674.667" type="line"/>
      <point x="673.333" y="674.667" type="line"/>
      <point x="717.667" y="130" type="line"/>
      <point x="722" y="130" type="line"/>
      <point x="836.333" y="373.333" type="line" smooth="yes"/>
      <point x="890.333" y="487.667"/>
      <point x="925.667" y="567.667"/>
      <point x="944.667" y="616.333" type="curve" smooth="yes"/>
      <point x="953.333" y="639.333"/>
      <point x="952.667" y="651.667"/>
      <point x="934.667" y="653.667" type="curve" smooth="yes"/>
      <point x="873.667" y="660" type="line"/>
      <point x="879.333" y="692" type="line"/>
      <point x="1105.67" y="692" type="line"/>
      <point x="1100" y="660" type="line"/>
      <point x="1038.67" y="654"/>
      <point x="1031.67" y="649"/>
      <point x="1003.33" y="598" type="curve" smooth="yes"/>
      <point x="980" y="553.667"/>
      <point x="929.333" y="453.667"/>
      <point x="876" y="343.333" type="curve" smooth="yes"/>
      <point x="710.333" y="0" type="line"/>
      <point x="622.667" y="0" type="line"/>
      <point x="578.667" y="533" type="line"/>
      <point x="573.667" y="533" type="line"/>
      <point x="317" y="0" type="line"/>
      <point x="229.333" y="0" type="line"/>
      <point x="188.333" y="614" type="line" smooth="yes"/>
      <point x="186.333" y="643.333"/>
      <point x="181.667" y="653.333"/>
      <point x="161.667" y="655.333" type="curve" smooth="yes"/>
    </contour>
  </outline>
</glyph>
<glyph name="X" format="2">
  <advance width="631"/>
  <unicode hex="0058"/>
  <outline>
    <contour>
      <point x="-7.667" y="0" type="line"/>
      <point x="-1.333" y="32" type="line"/>
      <point x="57.667" y="38"/>
      <point x="79" y="43.333"/>
      <point x="112" y="77.333" type="curve" smooth="yes"/>
      <point x="169.333" y="137"/>
      <point x="267" y="253"/>
      <point x="342.667" y="344" type="curve"/>
      <point x="305.333" y="437.333"/>
      <point x="260.667" y="546.667"/>
      <point x="228.333" y="618" type="curve" smooth="yes"/>
      <point x="214" y="649.667"/>
      <point x="195.667" y="656"/>
      <point x="138" y="660" type="curve"/>
      <point x="145.333" y="692" type="line"/>
      <point x="421" y="692" type="line"/>
      <point x="414.667" y="660" type="line"/>
      <point x="363" y="655" type="line" smooth="yes"/>
      <point x="342.667" y="653"/>
      <point x="338.667" y="642"/>
      <point x="347.333" y="620" type="curve" smooth="yes"/>
      <point x="368.09" y="568.561"/>
      <point x="401.159" y="484.988"/>
      <point x="423.333" y="432.667" type="curve"/>
      <point x="425.667" y="432.667" type="line"/>
      <point x="483" y="499.333"/>
      <point x="551" y="583.667"/>
      <point x="582.667" y="625.333" type="curve" smooth="yes"/>
      <point x="595.333" y="642"/>
      <point x="593.667" y="654"/>
      <point x="575" y="656" type="curve" smooth="yes"/>
      <point x="530.667" y="660" type="line"/>
      <point x="537.667" y="692" type="line"/>
      <point x="773" y="692" type="line"/>
      <point x="766" y="660" type="line"/>
      <point x="714.333" y="656.333"/>
      <point x="689.333" y="648"/>
      <point x="666.667" y="627.667" type="curve" smooth="yes"/>
      <point x="611" y="576"/>
      <point x="509.333" y="467.667"/>
      <point x="443" y="388.333" type="curve"/>
      <point x="487.667" y="283.667"/>
      <point x="545.667" y="148.667"/>
      <point x="575.333" y="83.667" type="curve" smooth="yes"/>
      <point x="593.333" y="44.667"/>
      <point x="614.333" y="37"/>
      <point x="675.667" y="32" type="curve"/>
      <point x="669.333" y="0" type="line"/>
      <point x="380" y="0" type="line"/>
      <point x="386" y="32" type="line"/>
      <point x="438.667" y="37.333" type="line" smooth="yes"/>
      <point x="460" y="39.333"/>
      <point x="465.667" y="51.333"/>
      <point x="457.333" y="72" type="curve" smooth="yes"/>
      <point x="433.116" y="132.595"/>
      <point x="391.204" y="230.932"/>
      <point x="364" y="295.667" type="curve"/>
      <point x="360.667" y="295.667" type="line"/>
      <point x="298.333" y="219"/>
      <point x="223.333" y="121.333"/>
      <point x="185" y="66.667" type="curve" smooth="yes"/>
      <point x="173.667" y="50"/>
      <point x="178" y="39.333"/>
      <point x="195.667" y="37.667" type="curve" smooth="yes"/>
      <point x="254.333" y="32" type="line"/>
      <point x="247.667" y="0" type="line"/>
    </contour>
  </outline>
</glyph>
<glyph name="Y" format="2">
  <advance width="601"/>
  <unicode hex="0059"/>
  <outline>
    <contour>
      <point x="129.667" y="660.667" type="curve"/>
      <point x="136.333" y="692" type="line"/>
      <point x="402.667" y="692" type="line"/>
      <point x="396" y="660" type="line"/>
      <point x="341" y="654.667" type="line" smooth="yes"/>
      <point x="326.594" y="653.176"/>
      <point x="320.737" y="647.494"/>
      <point x="320.763" y="637.439" type="curve" smooth="yes"/>
      <point x="320.771" y="634.022"/>
      <point x="321.452" y="630.098"/>
      <point x="322.667" y="625.667" type="curve" smooth="yes"/>
      <point x="406.667" y="330.333" type="line"/>
      <point x="409.667" y="330.333" type="line"/>
      <point x="440.448" y="372.635"/>
      <point x="474.019" y="420.124"/>
      <point x="505.288" y="465.569" type="curve" smooth="yes"/>
      <point x="525.055" y="494.503" type="line" smooth="yes"/>
      <point x="560.771" y="547.042"/>
      <point x="591.692" y="594.528"/>
      <point x="604.854" y="617.295" type="curve" smooth="yes"/>
      <point x="613.047" y="631.373"/>
      <point x="615.002" y="636.853"/>
      <point x="615.004" y="641.352" type="curve" smooth="yes"/>
      <point x="615.008" y="649.437"/>
      <point x="608.72" y="654.38"/>
      <point x="595" y="655.667" type="curve" smooth="yes"/>
      <point x="542.667" y="660" type="line"/>
      <point x="549.333" y="692" type="line"/>
      <point x="786" y="692" type="line"/>
      <point x="779.667" y="660" type="line"/>
      <point x="721.667" y="655.334"/>
      <point x="708" y="646.667"/>
      <point x="675.472" y="609.703" type="curve" smooth="yes"/>
      <point x="646.698" y="577.117"/>
      <point x="605.508" y="524.962"/>
      <point x="562.114" y="467.066" type="curve" smooth="yes"/>
      <point x="541.541" y="439.415" type="line" smooth="yes"/>
      <point x="510.254" y="397.043"/>
      <point x="478.734" y="352.917"/>
      <point x="451" y="312.333" type="curve" smooth="yes"/>
      <point x="438.333" y="294.333"/>
      <point x="427.079" y="275.476"/>
      <point x="421" y="248.333" type="curve" smooth="yes"/>
      <point x="384" y="84.667" type="line" smooth="yes"/>
      <point x="382.03" y="75.636"/>
      <point x="380.827" y="68.069"/>
      <point x="380.827" y="61.857" type="curve" smooth="yes"/>
      <point x="380.827" y="46.665"/>
      <point x="387.727" y="39.091"/>
      <point x="405.667" y="37.667" type="curve" smooth="yes"/>
      <point x="477.667" y="32" type="line"/>
      <point x="470.667" y="0" type="line"/>
      <point x="151" y="0" type="line"/>
      <point x="158" y="32" type="line"/>
      <point x="225.667" y="38" type="line" smooth="yes"/>
      <point x="250.667" y="40.667"/>
      <point x="261" y="54"/>
      <point x="267.667" y="84.667" type="curve" smooth="yes"/>
      <point x="303.667" y="246" type="line" smooth="yes"/>
      <point x="306.12" y="256.542"/>
      <point x="307.276" y="265.671"/>
      <point x="307.276" y="274.217" type="curve" smooth="yes"/>
      <point x="307.276" y="284.319"/>
      <point x="305.677" y="293.493"/>
      <point x="303" y="303" type="curve" smooth="yes"/>
      <point x="272.667" y="410.667"/>
      <point x="242.333" y="517"/>
      <point x="210" y="614.334" type="curve" smooth="yes"/>
      <point x="198" y="651"/>
      <point x="187.667" y="656"/>
    </contour>
  </outline>
</glyph>
<glyph name="Z" format="2">
  <advance width="621"/>
  <unicode hex="005A"/>
  <outline>
    <contour>
      <point x="11.666" y="15.333" type="line"/>
      <point x="203" y="228.667"/>
      <point x="393" y="442.667"/>
      <point x="578.667" y="653.333" type="curve"/>
      <point x="401.667" y="653.333" type="line" smooth="yes"/>
      <point x="303" y="653.333"/>
      <point x="262" y="631.666"/>
      <point x="227.667" y="549.333" type="curve" smooth="yes"/>
      <point x="214" y="517" type="line"/>
      <point x="181.333" y="517" type="line"/>
      <point x="219" y="692" type="line"/>
      <point x="735.667" y="692" type="line"/>
      <point x="741.667" y="677" type="line"/>
      <point x="550" y="463.667"/>
      <point x="359" y="249.333"/>
      <point x="173" y="38.667" type="curve"/>
      <point x="374.333" y="38.667" type="line" smooth="yes"/>
      <point x="495.333" y="38.667"/>
      <point x="543.333" y="61.667"/>
      <point x="591" y="147.334" type="curve" smooth="yes"/>
      <point x="613" y="186.667" type="line"/>
      <point x="645.667" y="186.667" type="line"/>
      <point x="592" y="0" type="line"/>
      <point x="16.666" y="0" type="line"/>
    </contour>
  </outline>
</glyph>
<glyph name="bracketleft" format="2">
  <advance width="337"/>
  <unicode hex="005B"/>
  <outline>
    <contour>
      <point x="99.667" y="-128" type="line"/>
      <point x="285.667" y="692" type="line"/>
      <point x="453.667" y="692" type="line"/>
      <point x="447.667" y="662.667" type="line"/>
      <point x="420.667" y="660.667"/>
      <point x="400" y="659"/>
      <point x="383" y="655.667" type="curve"/>
      <point x="353" y="650.667"/>
      <point x="347.667" y="637"/>
      <point x="340.667" y="608" type="curve" smooth="yes"/>
      <point x="199.667" y="-12.667" type="line"/>
      <point x="192.333" y="-44" type="line" smooth="yes"/>
      <point x="186" y="-73"/>
      <point x="186.667" y="-86.667"/>
      <point x="212.333" y="-91.667" type="curve" smooth="yes"/>
      <point x="228" y="-95"/>
      <point x="248" y="-96.667"/>
      <point x="273.667" y="-98.667" type="curve"/>
      <point x="267.667" y="-128" type="line"/>
    </contour>
  </outline>
</glyph>
<glyph name="backslash" format="2">
  <advance width="413"/>
  <unicode hex="005C"/>
  <outline>
    <contour>
      <point x="132.333" y="707" type="line"/>
      <point x="213" y="707" type="line"/>
      <point x="424" y="-15" type="line"/>
      <point x="343.333" y="-15" type="line"/>
    </contour>
  </outline>
</glyph>
<glyph name="bracketright" format="2">
  <advance width="337"/>
  <unicode hex="005D"/>
  <outline>
    <contour>
      <point x="13.667" y="-128" type="line"/>
      <point x="19.667" y="-98.667" type="line"/>
      <point x="47.333" y="-96.667"/>
      <point x="68" y="-95"/>
      <point x="85" y="-91.667" type="curve" smooth="yes"/>
      <point x="114.333" y="-86.667"/>
      <point x="119.667" y="-73"/>
      <point x="126.667" y="-44" type="curve" smooth="yes"/>
      <point x="275" y="608" type="line" smooth="yes"/>
      <point x="282" y="637"/>
      <point x="281.333" y="650.667"/>
      <point x="255" y="655.667" type="curve"/>
      <point x="240" y="659"/>
      <point x="220" y="660.667"/>
      <point x="193.667" y="662.667" type="curve"/>
      <point x="199.667" y="692" type="line"/>
      <point x="367.667" y="692" type="line"/>
      <point x="181.667" y="-128" type="line"/>
    </contour>
  </outline>
</glyph>
<glyph name="asciicircum" format="2">
  <advance width="580"/>
  <unicode hex="005E"/>
  <outline>
    <contour>
      <point x="116.667" y="223.667" type="line"/>
      <point x="313" y="668" type="line"/>
      <point x="397.333" y="668" type="line"/>
      <point x="588.666" y="223.667" type="line"/>
      <point x="503.333" y="223.667" type="line"/>
      <point x="354.666" y="582" type="line"/>
      <point x="202" y="223.667" type="line"/>
    </contour>
  </outline>
</glyph>
<glyph name="a" format="2">
  <advance width="573"/>
  <unicode hex="0061"/>
  <outline>
    <contour>
      <point x="64.333" y="107.333" type="curve" smooth="yes"/>
      <point x="64.333" y="239"/>
      <point x="176.999" y="502"/>
      <point x="414.999" y="502" type="curve" smooth="yes"/>
      <point x="441.999" y="502"/>
      <point x="469.999" y="494"/>
      <point x="487.333" y="482.333" type="curve"/>
      <point x="491.999" y="494" type="line"/>
      <point x="593.666" y="494" type="line"/>
      <point x="489.333" y="101.666" type="line" smooth="yes"/>
      <point x="480.999" y="71.333"/>
      <point x="480.333" y="49.333"/>
      <point x="499.666" y="49.333" type="curve" smooth="yes"/>
      <point x="526.333" y="49.333"/>
      <point x="568.333" y="114.333"/>
      <point x="588.666" y="152.333" type="curve"/>
      <point x="614.333" y="137.666" type="line"/>
      <point x="577.666" y="59"/>
      <point x="519.666" y="-12"/>
      <point x="437.333" y="-12" type="curve" smooth="yes"/>
      <point x="380.333" y="-12"/>
      <point x="365.333" y="29"/>
      <point x="387.333" y="104.666" type="curve" smooth="yes"/>
      <point x="418.333" y="210" type="line"/>
      <point x="414.999" y="210" type="line"/>
      <point x="358.666" y="111.666"/>
      <point x="271.999" y="-12"/>
      <point x="160.999" y="-12" type="curve" smooth="yes"/>
      <point x="92" y="-12"/>
      <point x="64.333" y="47"/>
    </contour>
    <contour>
      <point x="181.666" y="111.666" type="curve" smooth="yes"/>
      <point x="181.666" y="76.333"/>
      <point x="190.999" y="49.333"/>
      <point x="220.666" y="49.333" type="curve" smooth="yes"/>
      <point x="263.333" y="49.333"/>
      <point x="316.999" y="110"/>
      <point x="370.666" y="192.666" type="curve" smooth="yes"/>
      <point x="422.333" y="272.666"/>
      <point x="458.333" y="371"/>
      <point x="476.333" y="444" type="curve"/>
      <point x="461.999" y="456.333"/>
      <point x="441.666" y="463.333"/>
      <point x="419.333" y="463.333" type="curve" smooth="yes"/>
      <point x="276.999" y="463.333"/>
      <point x="181.666" y="220"/>
    </contour>
  </outline>
</glyph>
<glyph name="b" format="2">
  <advance width="568"/>
  <unicode hex="0062"/>
  <outline>
    <contour>
      <point x="77.667" y="1.667" type="line"/>
      <point x="222.667" y="634.667" type="line" smooth="yes"/>
      <point x="231.333" y="672.667"/>
      <point x="227.333" y="681.333"/>
      <point x="204.333" y="684" type="curve" smooth="yes"/>
      <point x="149.667" y="691" type="line"/>
      <point x="155.333" y="717" type="line"/>
      <point x="349" y="742" type="line"/>
      <point x="354.333" y="736.667" type="line"/>
      <point x="243" y="298.667" type="line"/>
      <point x="246" y="298.667" type="line"/>
      <point x="320.333" y="432"/>
      <point x="414.333" y="502"/>
      <point x="495" y="502" type="curve" smooth="yes"/>
      <point x="570.334" y="502"/>
      <point x="603.667" y="449.667"/>
      <point x="603.667" y="375.667" type="curve" smooth="yes"/>
      <point x="603.667" y="202.667"/>
      <point x="472.667" y="-12"/>
      <point x="282.333" y="-12" type="curve" smooth="yes"/>
      <point x="221.667" y="-12"/>
      <point x="171.667" y="14.667"/>
      <point x="150.667" y="53.334" type="curve"/>
      <point x="117.667" y="0" type="line"/>
    </contour>
    <contour>
      <point x="217.667" y="109" type="curve" smooth="yes"/>
      <point x="217.667" y="61"/>
      <point x="243.667" y="26.667"/>
      <point x="292" y="26.667" type="curve" smooth="yes"/>
      <point x="427" y="26.667"/>
      <point x="487" y="291.334"/>
      <point x="487" y="365.667" type="curve" smooth="yes"/>
      <point x="487" y="417.334"/>
      <point x="472" y="440.667"/>
      <point x="439" y="440.667" type="curve" smooth="yes"/>
      <point x="331.333" y="440.667"/>
      <point x="217.667" y="207"/>
    </contour>
  </outline>
</glyph>
<glyph name="c" format="2">
  <advance width="446"/>
  <unicode hex="0063"/>
  <outline>
    <contour>
      <point x="78.333" y="155.56" type="curve" smooth="yes"/>
      <point x="78.333" y="311.333"/>
      <point x="187" y="502"/>
      <point x="371.52" y="502" type="curve" smooth="yes"/>
      <point x="454.667" y="502"/>
      <point x="509.667" y="463.333"/>
      <point x="509.667" y="417.381" type="curve" smooth="yes"/>
      <point x="509.667" y="376.333"/>
      <point x="465.667" y="352"/>
      <point x="439.473" y="352" type="curve" smooth="yes"/>
      <point x="382.441" y="352"/>
      <point x="422.333" y="463.333"/>
      <point x="352.871" y="463.333" type="curve" smooth="yes"/>
      <point x="268" y="463.333"/>
      <point x="194" y="298"/>
      <point x="194" y="161.631" type="curve" smooth="yes"/>
      <point x="194" y="98.334"/>
      <point x="210" y="42.667"/>
      <point x="272.933" y="42.667" type="curve" smooth="yes"/>
      <point x="343" y="42.667"/>
      <point x="398" y="111.667"/>
      <point x="433.333" y="162.667" type="curve"/>
      <point x="459.333" y="143" type="line"/>
      <point x="389.333" y="18.667"/>
      <point x="300.333" y="-12"/>
      <point x="230.75" y="-12" type="curve" smooth="yes"/>
      <point x="150.35" y="-12"/>
      <point x="78.333" y="28.667"/>
    </contour>
  </outline>
</glyph>
<glyph name="d" format="2">
  <advance width="594"/>
  <unicode hex="0064"/>
  <outline>
    <contour>
      <point x="70" y="111.333" type="curve" smooth="yes"/>
      <point x="70" y="240.667"/>
      <point x="175.333" y="502"/>
      <point x="405.667" y="502" type="curve" smooth="yes"/>
      <point x="442.667" y="502"/>
      <point x="472.667" y="495.333"/>
      <point x="491.667" y="485" type="curve"/>
      <point x="493.667" y="486.667" type="line"/>
      <point x="530.667" y="643.666" type="line"/>
      <point x="532.667" y="653.333"/>
      <point x="534.333" y="660.666"/>
      <point x="534.333" y="666.666" type="curve" smooth="yes"/>
      <point x="534.333" y="679"/>
      <point x="528.667" y="683"/>
      <point x="513.667" y="685" type="curve" smooth="yes"/>
      <point x="456.667" y="691.333" type="line"/>
      <point x="463" y="717" type="line"/>
      <point x="654.333" y="742" type="line"/>
      <point x="660" y="736.667" type="line"/>
      <point x="506" y="102.333" type="line" smooth="yes"/>
      <point x="502.667" y="89.667"/>
      <point x="500.667" y="78.667"/>
      <point x="500.667" y="70" type="curve" smooth="yes"/>
      <point x="500.667" y="57.333"/>
      <point x="504.667" y="49"/>
      <point x="514.667" y="49" type="curve" smooth="yes"/>
      <point x="542.667" y="49"/>
      <point x="584.667" y="115"/>
      <point x="605" y="153.333" type="curve"/>
      <point x="630.667" y="139.333" type="line"/>
      <point x="594.667" y="58.667"/>
      <point x="536" y="-12.333"/>
      <point x="457.333" y="-12.333" type="curve" smooth="yes"/>
      <point x="415.667" y="-12.333"/>
      <point x="394.333" y="7.667"/>
      <point x="394.333" y="48.667" type="curve" smooth="yes"/>
      <point x="394.333" y="63"/>
      <point x="397" y="81.333"/>
      <point x="402.667" y="101" type="curve" smooth="yes"/>
      <point x="434.667" y="216.333" type="line"/>
      <point x="432" y="217.333" type="line"/>
      <point x="357" y="83"/>
      <point x="273.333" y="-12"/>
      <point x="174" y="-12" type="curve" smooth="yes"/>
      <point x="90.333" y="-12"/>
      <point x="70" y="54.667"/>
    </contour>
    <contour>
      <point x="186" y="119.333" type="curve" smooth="yes"/>
      <point x="186" y="75.333"/>
      <point x="202" y="49"/>
      <point x="234" y="49" type="curve" smooth="yes"/>
      <point x="339" y="49"/>
      <point x="456" y="316"/>
      <point x="482.667" y="444.666" type="curve"/>
      <point x="470.667" y="455.333"/>
      <point x="447" y="463.333"/>
      <point x="420" y="463.333" type="curve" smooth="yes"/>
      <point x="272" y="463.333"/>
      <point x="186" y="220.667"/>
    </contour>
  </outline>
</glyph>
<glyph name="e" format="2">
  <advance width="461"/>
  <unicode hex="0065"/>
  <outline>
    <contour>
      <point x="77.667" y="155" type="curve" smooth="yes"/>
      <point x="77.667" y="323"/>
      <point x="203.001" y="502"/>
      <point x="382.666" y="502" type="curve" smooth="yes"/>
      <point x="465.666" y="502"/>
      <point x="514.666" y="455.666"/>
      <point x="514.666" y="396.666" type="curve" smooth="yes"/>
      <point x="514.666" y="256"/>
      <point x="299.667" y="209"/>
      <point x="194.001" y="190.333" type="curve"/>
      <point x="193.334" y="183.905"/>
      <point x="193.334" y="176.246"/>
      <point x="193.334" y="171.667" type="curve" smooth="yes"/>
      <point x="193.334" y="101"/>
      <point x="213.667" y="42.667"/>
      <point x="280" y="42.667" type="curve" smooth="yes"/>
      <point x="350" y="42.667"/>
      <point x="401.666" y="102.667"/>
      <point x="443.333" y="159.333" type="curve"/>
      <point x="468.666" y="138" type="line"/>
      <point x="399" y="20"/>
      <point x="309" y="-12"/>
      <point x="231.334" y="-12" type="curve" smooth="yes"/>
      <point x="168.667" y="-12"/>
      <point x="77.667" y="15.667"/>
    </contour>
    <contour>
      <point x="196.667" y="228" type="curve"/>
      <point x="348" y="259.667"/>
      <point x="409.333" y="336.667"/>
      <point x="409.333" y="409.333" type="curve" smooth="yes"/>
      <point x="409.333" y="442"/>
      <point x="389.666" y="463.333"/>
      <point x="358.333" y="463.333" type="curve" smooth="yes"/>
      <point x="285.334" y="463.333"/>
      <point x="212.667" y="347"/>
    </contour>
  </outline>
</glyph>
<glyph name="f" format="2">
  <advance width="326"/>
  <unicode hex="0066"/>
  <outline>
    <contour>
      <point x="-79.333" y="-178.667" type="curve" smooth="yes"/>
      <point x="-79.333" y="-151.667"/>
      <point x="-54.666" y="-125.667"/>
      <point x="-29.333" y="-125.667" type="curve" smooth="yes"/>
      <point x="-13.333" y="-125.667"/>
      <point x="-6" y="-139"/>
      <point x="1.667" y="-150.667" type="curve" smooth="yes"/>
      <point x="27.667" y="-192"/>
      <point x="42" y="-202"/>
      <point x="52.667" y="-202" type="curve" smooth="yes"/>
      <point x="62" y="-202"/>
      <point x="71" y="-195"/>
      <point x="80.334" y="-147.667" type="curve" smooth="yes"/>
      <point x="198.667" y="448.667" type="line"/>
      <point x="109.667" y="448.667" type="line"/>
      <point x="121.667" y="490" type="line"/>
      <point x="208.334" y="490" type="line"/>
      <point x="217.334" y="523.333" type="line" smooth="yes"/>
      <point x="246.334" y="632.333"/>
      <point x="299.001" y="742"/>
      <point x="431.667" y="742" type="curve" smooth="yes"/>
      <point x="500.334" y="742"/>
      <point x="555.334" y="704.666"/>
      <point x="555.334" y="660.666" type="curve" smooth="yes"/>
      <point x="555.334" y="632"/>
      <point x="523.334" y="611.333"/>
      <point x="499.667" y="611.333" type="curve" smooth="yes"/>
      <point x="481.667" y="611.333"/>
      <point x="473.667" y="620.666"/>
      <point x="467.667" y="632.666" type="curve"/>
      <point x="444.001" y="684"/>
      <point x="427.667" y="703.333"/>
      <point x="404.667" y="703.333" type="curve" smooth="yes"/>
      <point x="380.667" y="703.333"/>
      <point x="364.667" y="678.666"/>
      <point x="348.667" y="614" type="curve" smooth="yes"/>
      <point x="318.334" y="490" type="line"/>
      <point x="447.667" y="490" type="line"/>
      <point x="437.001" y="448.667" type="line"/>
      <point x="311.334" y="448.667" type="line"/>
      <point x="217" y="30" type="line" smooth="yes"/>
      <point x="175" y="-157.667"/>
      <point x="127" y="-242"/>
      <point x="21.334" y="-242" type="curve" smooth="yes"/>
      <point x="-35.666" y="-242"/>
      <point x="-79.333" y="-214.667"/>
    </contour>
  </outline>
</glyph>
<glyph name="g" format="2">
  <advance width="507"/>
  <unicode hex="0067"/>
  <outline>
    <contour>
      <point x="27" y="-99" type="curve" smooth="yes"/>
      <point x="27" y="-16.667"/>
      <point x="114" y="22.333"/>
      <point x="182.334" y="33.333" type="curve"/>
      <point x="182.334" y="35.333" type="line"/>
      <point x="136" y="54"/>
      <point x="104.667" y="79.333"/>
      <point x="104.667" y="112" type="curve" smooth="yes"/>
      <point x="104.667" y="155.666"/>
      <point x="161.334" y="179"/>
      <point x="203.334" y="191.666" type="curve"/>
      <point x="203.334" y="193.666" type="line"/>
      <point x="169.334" y="205.333"/>
      <point x="115.333" y="243.666"/>
      <point x="115.333" y="316.333" type="curve" smooth="yes"/>
      <point x="115.333" y="389.333"/>
      <point x="166" y="502"/>
      <point x="340.333" y="502" type="curve" smooth="yes"/>
      <point x="390" y="502"/>
      <point x="441" y="489"/>
      <point x="469.333" y="472" type="curve"/>
      <point x="614" y="512" type="line"/>
      <point x="620" y="503" type="line"/>
      <point x="587.667" y="436" type="line"/>
      <point x="506.333" y="424" type="line"/>
      <point x="518.333" y="407.666"/>
      <point x="526" y="383.666"/>
      <point x="526" y="356.666" type="curve" smooth="yes"/>
      <point x="526" y="251.666"/>
      <point x="442" y="178.333"/>
      <point x="302.333" y="178.333" type="curve" smooth="yes"/>
      <point x="285.666" y="178.333"/>
      <point x="267.999" y="178.666"/>
      <point x="246.333" y="181.666" type="curve"/>
      <point x="224.666" y="175.666"/>
      <point x="206.334" y="163.333"/>
      <point x="206.334" y="145" type="curve"/>
      <point x="206.667" y="118.666"/>
      <point x="240.333" y="106.666"/>
      <point x="327.666" y="86" type="curve" smooth="yes"/>
      <point x="440.666" y="59.333"/>
      <point x="504.333" y="7.667"/>
      <point x="504.333" y="-73.333" type="curve" smooth="yes"/>
      <point x="504.333" y="-185.333"/>
      <point x="397" y="-242"/>
      <point x="253.333" y="-242" type="curve" smooth="yes"/>
      <point x="120.666" y="-242"/>
      <point x="27" y="-185.333"/>
    </contour>
    <contour>
      <point x="134" y="-89" type="curve" smooth="yes"/>
      <point x="134" y="-160"/>
      <point x="196.667" y="-203.333"/>
      <point x="275.999" y="-203.333" type="curve" smooth="yes"/>
      <point x="343.666" y="-203.333"/>
      <point x="405.333" y="-169.666"/>
      <point x="405.333" y="-97.667" type="curve" smooth="yes"/>
      <point x="405.333" y="-15.667"/>
      <point x="291.333" y="7.667"/>
      <point x="229.666" y="16.667" type="curve"/>
      <point x="194.667" y="11.333"/>
      <point x="134" y="-19.667"/>
    </contour>
    <contour>
      <point x="228.666" y="297.666" type="curve" smooth="yes"/>
      <point x="228.666" y="251.333"/>
      <point x="254.666" y="217.666"/>
      <point x="303.333" y="217.666" type="curve" smooth="yes"/>
      <point x="378.666" y="217.666"/>
      <point x="419.333" y="305.666"/>
      <point x="419.333" y="387" type="curve"/>
      <point x="418.666" y="449"/>
      <point x="375" y="463.333"/>
      <point x="346.333" y="463.333" type="curve" smooth="yes"/>
      <point x="261.333" y="463.333"/>
      <point x="228.666" y="363"/>
    </contour>
  </outline>
</glyph>
<glyph name="h" format="2">
  <advance width="614"/>
  <unicode hex="0068"/>
  <outline>
    <contour>
      <point x="87.667" y="-12" type="line"/>
      <point x="232.667" y="637" type="line" smooth="yes"/>
      <point x="235.264" y="648.119"/>
      <point x="236.664" y="656.599"/>
      <point x="236.664" y="663.09" type="curve" smooth="yes"/>
      <point x="236.664" y="677.456"/>
      <point x="229.831" y="682.165"/>
      <point x="214" y="684" type="curve" smooth="yes"/>
      <point x="156.667" y="691" type="line"/>
      <point x="163.333" y="717" type="line"/>
      <point x="359.667" y="742" type="line"/>
      <point x="364.667" y="737" type="line"/>
      <point x="254.333" y="284.333" type="line"/>
      <point x="258" y="284.333" type="line"/>
      <point x="318.667" y="398.334"/>
      <point x="419" y="502"/>
      <point x="518.465" y="502" type="curve" smooth="yes"/>
      <point x="575.07" y="502"/>
      <point x="600.361" y="468.427"/>
      <point x="600.361" y="418.467" type="curve" smooth="yes"/>
      <point x="600.361" y="398.981"/>
      <point x="596.523" y="377.026"/>
      <point x="589.333" y="353.667" type="curve" smooth="yes"/>
      <point x="512.667" y="101.666" type="line" smooth="yes"/>
      <point x="508.856" y="89.157"/>
      <point x="506.602" y="78.141"/>
      <point x="506.602" y="69.486" type="curve" smooth="yes"/>
      <point x="506.602" y="56.924"/>
      <point x="511.349" y="49.333"/>
      <point x="521.035" y="49.333" type="curve" smooth="yes"/>
      <point x="549.333" y="49.333"/>
      <point x="591.333" y="114.333"/>
      <point x="611.667" y="153" type="curve"/>
      <point x="637.333" y="138.666" type="line"/>
      <point x="601.333" y="59"/>
      <point x="543.667" y="-12"/>
      <point x="466.157" y="-12" type="curve" smooth="yes"/>
      <point x="422.044" y="-12"/>
      <point x="399.647" y="10.994"/>
      <point x="399.647" y="52.282" type="curve" smooth="yes"/>
      <point x="399.647" y="66.636"/>
      <point x="402.338" y="83.183"/>
      <point x="407.667" y="101.666" type="curve" smooth="yes"/>
      <point x="487" y="374.667" type="line" smooth="yes"/>
      <point x="490.106" y="385.222"/>
      <point x="491.608" y="394.807"/>
      <point x="491.608" y="403.193" type="curve" smooth="yes"/>
      <point x="491.608" y="426.417"/>
      <point x="480.093" y="440.667"/>
      <point x="456.752" y="440.667" type="curve" smooth="yes"/>
      <point x="384.667" y="440.667"/>
      <point x="291.333" y="303.333"/>
      <point x="258.333" y="217.667" type="curve" smooth="yes"/>
      <point x="234" y="156.667"/>
      <point x="219" y="102"/>
      <point x="192" y="0" type="curve"/>
    </contour>
  </outline>
</glyph>
<glyph name="i" format="2">
  <advance width="324"/>
  <unicode hex="0069"/>
  <outline>
    <contour>
      <point x="116" y="93" type="curve" smooth="yes"/>
      <point x="197.667" y="396.667" type="line" smooth="yes"/>
      <point x="200.3" y="406.883"/>
      <point x="201.773" y="414.877"/>
      <point x="201.773" y="421.103" type="curve" smooth="yes"/>
      <point x="201.773" y="434.645"/>
      <point x="194.869" y="439.963"/>
      <point x="178" y="441.334" type="curve" smooth="yes"/>
      <point x="120.667" y="446.667" type="line"/>
      <point x="127.334" y="473.667" type="line"/>
      <point x="325.334" y="502" type="line"/>
      <point x="330.667" y="496.667" type="line"/>
      <point x="223.667" y="101.666" type="line" smooth="yes"/>
      <point x="220.221" y="89.265"/>
      <point x="218.03" y="78.184"/>
      <point x="218.03" y="69.45" type="curve" smooth="yes"/>
      <point x="218.03" y="57.034"/>
      <point x="222.45" y="49.333"/>
      <point x="234" y="49.333" type="curve" smooth="yes"/>
      <point x="260.334" y="49.333"/>
      <point x="302.334" y="114.333"/>
      <point x="322.667" y="152.667" type="curve"/>
      <point x="348.667" y="137.666" type="line"/>
      <point x="312" y="59"/>
      <point x="254.334" y="-12"/>
      <point x="174" y="-12" type="curve" smooth="yes"/>
      <point x="130.013" y="-12"/>
      <point x="109.677" y="11.455"/>
      <point x="109.677" y="50.371" type="curve" smooth="yes"/>
      <point x="109.677" y="63.056"/>
      <point x="111.828" y="77.366"/>
    </contour>
    <contour>
      <point x="237.667" y="643.334" type="curve" smooth="yes"/>
      <point x="237.667" y="679"/>
      <point x="261.667" y="716.667"/>
      <point x="310" y="716.667" type="curve" smooth="yes"/>
      <point x="343.334" y="716.667"/>
      <point x="372.667" y="698"/>
      <point x="372.667" y="655.667" type="curve" smooth="yes"/>
      <point x="372.667" y="610.667"/>
      <point x="344.334" y="581.667"/>
      <point x="301.334" y="581.667" type="curve" smooth="yes"/>
      <point x="265.334" y="581.667"/>
      <point x="237.667" y="603.667"/>
    </contour>
  </outline>
</glyph>
<glyph name="j" format="2">
  <advance width="317"/>
  <unicode hex="006A"/>
  <outline>
    <contour>
      <point x="-68.334" y="-180.666" type="curve" smooth="yes"/>
      <point x="-68.334" y="-155"/>
      <point x="-42.667" y="-127.333"/>
      <point x="-18.334" y="-127.333" type="curve" smooth="yes"/>
      <point x="-5.334" y="-127.333"/>
      <point x="4.666" y="-140.666"/>
      <point x="12" y="-151.666" type="curve" smooth="yes"/>
      <point x="38.333" y="-191"/>
      <point x="54" y="-203.333"/>
      <point x="65" y="-203.333" type="curve" smooth="yes"/>
      <point x="75.666" y="-203.333"/>
      <point x="82" y="-193"/>
      <point x="86.666" y="-171.333" type="curve" smooth="yes"/>
      <point x="208.666" y="393.667" type="line" smooth="yes"/>
      <point x="216" y="426"/>
      <point x="216" y="439.334"/>
      <point x="193.666" y="441.334" type="curve" smooth="yes"/>
      <point x="131" y="446.667" type="line"/>
      <point x="137.333" y="473.667" type="line"/>
      <point x="334" y="502" type="line"/>
      <point x="339.666" y="497" type="line"/>
      <point x="226" y="-3.666" type="line" smooth="yes"/>
      <point x="202" y="-109.666"/>
      <point x="168.666" y="-242"/>
      <point x="37" y="-242" type="curve" smooth="yes"/>
      <point x="-26.334" y="-242"/>
      <point x="-68.334" y="-214.666"/>
    </contour>
    <contour>
      <point x="241.333" y="643.334" type="curve" smooth="yes"/>
      <point x="241.333" y="679"/>
      <point x="265.333" y="716.667"/>
      <point x="313.666" y="716.667" type="curve" smooth="yes"/>
      <point x="347" y="716.667"/>
      <point x="376.333" y="698"/>
      <point x="376.333" y="655.667" type="curve" smooth="yes"/>
      <point x="376.333" y="610.667"/>
      <point x="348" y="581.667"/>
      <point x="305" y="581.667" type="curve" smooth="yes"/>
      <point x="269" y="581.667"/>
      <point x="241.333" y="603.667"/>
    </contour>
  </outline>
</glyph>
<glyph name="k" format="2">
  <advance width="553"/>
  <unicode hex="006B"/>
  <outline>
    <contour>
      <point x="86" y="-12" type="line"/>
      <point x="238.667" y="637" type="line" smooth="yes"/>
      <point x="247" y="672.667"/>
      <point x="243" y="681.333"/>
      <point x="220" y="684" type="curve" smooth="yes"/>
      <point x="162.667" y="691" type="line"/>
      <point x="170.333" y="717" type="line"/>
      <point x="364.333" y="742" type="line"/>
      <point x="369.333" y="737" type="line"/>
      <point x="194.667" y="0" type="line"/>
    </contour>
    <contour>
      <point x="265" y="262.667" type="curve"/>
      <point x="317.667" y="333.334"/>
      <point x="469.333" y="502"/>
      <point x="559" y="502" type="curve" smooth="yes"/>
      <point x="598.667" y="502"/>
      <point x="614.333" y="477.667"/>
      <point x="614.333" y="449.667" type="curve" smooth="yes"/>
      <point x="614.333" y="419"/>
      <point x="592.333" y="387.667"/>
      <point x="561.333" y="387.667" type="curve" smooth="yes"/>
      <point x="548" y="387.667"/>
      <point x="537" y="393"/>
      <point x="527.667" y="399" type="curve" smooth="yes"/>
      <point x="505.333" y="413.667"/>
      <point x="494.333" y="418.667"/>
      <point x="480.333" y="418.667" type="curve" smooth="yes"/>
      <point x="449.333" y="418.667"/>
      <point x="385.333" y="350.667"/>
      <point x="355.667" y="316.667" type="curve"/>
      <point x="366" y="278.667"/>
      <point x="435" y="51.333"/>
      <point x="479.667" y="51.333" type="curve" smooth="yes"/>
      <point x="504" y="51.333"/>
      <point x="528.667" y="88.666"/>
      <point x="557.333" y="145.667" type="curve"/>
      <point x="584.333" y="131.666" type="line"/>
      <point x="551.333" y="45"/>
      <point x="504.333" y="-12"/>
      <point x="436.333" y="-12" type="curve" smooth="yes"/>
      <point x="385.667" y="-12"/>
      <point x="356" y="20"/>
      <point x="329.667" y="81.666" type="curve" smooth="yes"/>
      <point x="304" y="140.666"/>
      <point x="281.333" y="204.333"/>
    </contour>
  </outline>
</glyph>
<glyph name="l" format="2">
  <advance width="313"/>
  <unicode hex="006C"/>
  <outline>
    <contour>
      <point x="126" y="149.824" type="line"/>
      <point x="245" y="637.926" type="line" smooth="yes"/>
      <point x="247.667" y="648.943"/>
      <point x="249.333" y="657.289"/>
      <point x="249.333" y="663.967" type="curve" smooth="yes"/>
      <point x="249.333" y="678.656"/>
      <point x="242" y="683.33"/>
      <point x="226.333" y="685" type="curve" smooth="yes"/>
      <point x="169" y="691.784" type="line"/>
      <point x="175.333" y="717" type="line"/>
      <point x="370.333" y="742" type="line"/>
      <point x="375.667" y="737" type="line"/>
      <point x="230" y="149.824" type="line"/>
    </contour>
    <contour>
      <point x="111.333" y="93.068" type="curve" smooth="yes"/>
      <point x="126" y="149.824" type="line"/>
      <point x="230" y="149.824" type="line"/>
      <point x="219" y="101.749" type="line" smooth="yes"/>
      <point x="216.048" y="89.101"/>
      <point x="213.932" y="77.822"/>
      <point x="213.932" y="68.998" type="curve" smooth="yes"/>
      <point x="213.932" y="56.845"/>
      <point x="217.935" y="49.333"/>
      <point x="227.512" y="49.333" type="curve" smooth="yes"/>
      <point x="255.667" y="49.333"/>
      <point x="297.667" y="114.435"/>
      <point x="318" y="152.829" type="curve"/>
      <point x="344" y="137.805" type="line"/>
      <point x="307.333" y="59.016"/>
      <point x="249.667" y="-12"/>
      <point x="169.955" y="-12" type="curve" smooth="yes"/>
      <point x="125.226" y="-12"/>
      <point x="105.283" y="11.373"/>
      <point x="105.283" y="50.578" type="curve" smooth="yes"/>
      <point x="105.283" y="63.218"/>
      <point x="107.352" y="77.477"/>
    </contour>
  </outline>
</glyph>
<glyph name="m" format="2">
  <advance width="913"/>
  <unicode hex="006D"/>
  <outline>
    <contour>
      <point x="92.333" y="-12" type="line"/>
      <point x="194.667" y="395" type="line" smooth="yes"/>
      <point x="202.333" y="425.334"/>
      <point x="202.667" y="439.334"/>
      <point x="180.333" y="441.334" type="curve" smooth="yes"/>
      <point x="120.333" y="446.667" type="line"/>
      <point x="126.667" y="473.667" type="line"/>
      <point x="323.333" y="502" type="line"/>
      <point x="328.333" y="496.667" type="line"/>
      <point x="265" y="287.667" type="line"/>
      <point x="268.667" y="287.667" type="line"/>
      <point x="335.333" y="411"/>
      <point x="428.667" y="502"/>
      <point x="519.667" y="502" type="curve" smooth="yes"/>
      <point x="592.667" y="502"/>
      <point x="608.333" y="445.667"/>
      <point x="580" y="354" type="curve" smooth="yes"/>
      <point x="559.667" y="288" type="line"/>
      <point x="564" y="287.667" type="line"/>
      <point x="632.667" y="413.334"/>
      <point x="723" y="502"/>
      <point x="816" y="502" type="curve" smooth="yes"/>
      <point x="897.667" y="502"/>
      <point x="911.667" y="435.667"/>
      <point x="888.333" y="357" type="curve" smooth="yes"/>
      <point x="812.667" y="101.666" type="line" smooth="yes"/>
      <point x="803.667" y="71.666"/>
      <point x="803" y="49.333"/>
      <point x="822.667" y="49.333" type="curve" smooth="yes"/>
      <point x="849.333" y="49.333"/>
      <point x="891.333" y="114.333"/>
      <point x="911.667" y="152.667" type="curve"/>
      <point x="936.667" y="137.333" type="line"/>
      <point x="900.667" y="59"/>
      <point x="843.333" y="-12"/>
      <point x="762" y="-12" type="curve" smooth="yes"/>
      <point x="709" y="-12"/>
      <point x="686" y="25.666"/>
      <point x="705" y="93" type="curve" smooth="yes"/>
      <point x="787.667" y="374.667" type="line" smooth="yes"/>
      <point x="799.667" y="414.667"/>
      <point x="790" y="440.667"/>
      <point x="759" y="440.667" type="curve" smooth="yes"/>
      <point x="687.333" y="440.667"/>
      <point x="597" y="300.333"/>
      <point x="562" y="218.667" type="curve" smooth="yes"/>
      <point x="537" y="158.667"/>
      <point x="520" y="102"/>
      <point x="491.333" y="0" type="curve"/>
      <point x="387.333" y="-12" type="line"/>
      <point x="489" y="368.667" type="line" smooth="yes"/>
      <point x="502.667" y="421.667"/>
      <point x="490.333" y="440.667"/>
      <point x="462.333" y="440.667" type="curve" smooth="yes"/>
      <point x="391.333" y="440.667"/>
      <point x="296" y="295.667"/>
      <point x="263.333" y="212.667" type="curve" smooth="yes"/>
      <point x="242" y="158.667"/>
      <point x="225.333" y="102"/>
      <point x="196.333" y="0" type="curve"/>
    </contour>
  </outline>
</glyph>
<glyph name="n" format="2">
  <advance width="624"/>
  <unicode hex="006E"/>
  <outline>
    <contour>
      <point x="92.365" y="-12" type="line"/>
      <point x="196.698" y="395" type="line" smooth="yes"/>
      <point x="199.719" y="406.007"/>
      <point x="201.537" y="414.822"/>
      <point x="201.536" y="421.684" type="curve"/>
      <point x="201.536" y="433.993"/>
      <point x="195.932" y="440.349"/>
      <point x="181.698" y="441.667" type="curve" smooth="yes"/>
      <point x="120.365" y="446.949" type="line"/>
      <point x="127.031" y="473.667" type="line"/>
      <point x="326.698" y="502" type="line"/>
      <point x="331.698" y="497" type="line"/>
      <point x="265.698" y="279.333" type="line"/>
      <point x="269.698" y="279.333" type="line"/>
      <point x="330.365" y="396"/>
      <point x="430.031" y="502"/>
      <point x="530.527" y="502" type="curve" smooth="yes"/>
      <point x="587.274" y="502"/>
      <point x="610.516" y="468.188"/>
      <point x="610.516" y="419.898" type="curve" smooth="yes"/>
      <point x="610.516" y="400.787"/>
      <point x="606.869" y="379.417"/>
      <point x="600.358" y="357" type="curve" smooth="yes"/>
      <point x="523.545" y="101.666" type="line" smooth="yes"/>
      <point x="520.022" y="89.422"/>
      <point x="517.868" y="78.474"/>
      <point x="517.868" y="69.805" type="curve" smooth="yes"/>
      <point x="517.868" y="57.189"/>
      <point x="522.42" y="49.333"/>
      <point x="532.242" y="49.333" type="curve" smooth="yes"/>
      <point x="560.458" y="49.333"/>
      <point x="602.363" y="114.333"/>
      <point x="622.333" y="152.667" type="curve"/>
      <point x="648" y="137.333" type="line"/>
      <point x="611.667" y="58.666"/>
      <point x="554.483" y="-12"/>
      <point x="475.09" y="-12" type="curve" smooth="yes"/>
      <point x="429.03" y="-12"/>
      <point x="407.999" y="11.669"/>
      <point x="407.999" y="50.408" type="curve" smooth="yes"/>
      <point x="407.999" y="63.134"/>
      <point x="410.256" y="77.452"/>
      <point x="414.698" y="93" type="curve" smooth="yes"/>
      <point x="497.365" y="373.667" type="line" smooth="yes"/>
      <point x="500.438" y="384.322"/>
      <point x="502.245" y="394.603"/>
      <point x="502.245" y="403.698" type="curve" smooth="yes"/>
      <point x="502.245" y="425.384"/>
      <point x="492.289" y="440.667"/>
      <point x="469.027" y="440.667" type="curve" smooth="yes"/>
      <point x="398.698" y="440.667"/>
      <point x="304.698" y="298.667"/>
      <point x="270.031" y="216.333" type="curve" smooth="yes"/>
      <point x="245.031" y="155.667"/>
      <point x="227.031" y="102"/>
      <point x="198.031" y="0" type="curve"/>
    </contour>
  </outline>
</glyph>
<glyph name="o" format="2">
  <advance width="545"/>
  <unicode hex="006F"/>
  <outline>
    <contour>
      <point x="81.667" y="170.667" type="curve" smooth="yes"/>
      <point x="81.667" y="286.667"/>
      <point x="159.667" y="502"/>
      <point x="375.741" y="502" type="curve" smooth="yes"/>
      <point x="467.333" y="502"/>
      <point x="568.333" y="464"/>
      <point x="568.333" y="313.074" type="curve" smooth="yes"/>
      <point x="568.333" y="152.333"/>
      <point x="453.666" y="-12"/>
      <point x="267.483" y="-12" type="curve" smooth="yes"/>
      <point x="141" y="-12"/>
      <point x="81.667" y="63.334"/>
    </contour>
    <contour>
      <point x="194.667" y="124.376" type="curve" smooth="yes"/>
      <point x="194.667" y="57.667"/>
      <point x="223.667" y="26.667"/>
      <point x="268.931" y="26.667" type="curve" smooth="yes"/>
      <point x="401" y="26.667"/>
      <point x="455.333" y="294"/>
      <point x="455.333" y="375.113" type="curve" smooth="yes"/>
      <point x="455.333" y="421.333"/>
      <point x="437.333" y="463.333"/>
      <point x="383.704" y="463.333" type="curve" smooth="yes"/>
      <point x="255.667" y="463.333"/>
      <point x="194.667" y="221"/>
    </contour>
  </outline>
</glyph>
<glyph name="p" format="2">
  <advance width="595"/>
  <unicode hex="0070"/>
  <outline>
    <contour>
      <point x="49.667" y="-242" type="line"/>
      <point x="189" y="395" type="line" smooth="yes"/>
      <point x="195.667" y="423.667"/>
      <point x="196.334" y="439.334"/>
      <point x="174" y="441.334" type="curve" smooth="yes"/>
      <point x="113" y="446.667" type="line"/>
      <point x="119.334" y="473.667" type="line"/>
      <point x="316.334" y="502" type="line"/>
      <point x="321.334" y="497" type="line"/>
      <point x="264.334" y="286" type="line"/>
      <point x="267.667" y="286" type="line"/>
      <point x="344" y="429"/>
      <point x="438.334" y="502"/>
      <point x="518.667" y="502" type="curve" smooth="yes"/>
      <point x="593.333" y="502"/>
      <point x="630" y="454"/>
      <point x="630" y="370" type="curve" smooth="yes"/>
      <point x="630" y="290"/>
      <point x="562" y="-12"/>
      <point x="319" y="-12" type="curve" smooth="yes"/>
      <point x="267" y="-12"/>
      <point x="232" y="-3"/>
      <point x="211.334" y="9.667" type="curve"/>
      <point x="155.667" y="-230" type="line"/>
    </contour>
    <contour>
      <point x="221.667" y="56.667" type="curve"/>
      <point x="242.334" y="38"/>
      <point x="269" y="26.667"/>
      <point x="305.334" y="26.667" type="curve" smooth="yes"/>
      <point x="453" y="26.667"/>
      <point x="512.667" y="286.667"/>
      <point x="512.667" y="367" type="curve" smooth="yes"/>
      <point x="512.667" y="414.334"/>
      <point x="497" y="440.667"/>
      <point x="464.334" y="440.667" type="curve" smooth="yes"/>
      <point x="413.334" y="440.667"/>
      <point x="347.334" y="368"/>
      <point x="300.334" y="285" type="curve" smooth="yes"/>
      <point x="263" y="218.334"/>
      <point x="234.334" y="117"/>
    </contour>
  </outline>
</glyph>
<glyph name="q" format="2">
  <advance width="567"/>
  <unicode hex="0071"/>
  <outline>
    <contour>
      <point x="70" y="106.666" type="curve" smooth="yes"/>
      <point x="70" y="245"/>
      <point x="171.666" y="502"/>
      <point x="421.666" y="502" type="curve" smooth="yes"/>
      <point x="471.333" y="502"/>
      <point x="508.333" y="489.667"/>
      <point x="528.333" y="479.666" type="curve"/>
      <point x="570.333" y="521" type="line"/>
      <point x="614.333" y="521" type="line"/>
      <point x="437.666" y="-221.667" type="line"/>
      <point x="327.333" y="-242" type="line"/>
      <point x="426" y="190" type="line"/>
      <point x="423" y="190" type="line"/>
      <point x="348.666" y="65.333"/>
      <point x="253.666" y="-12"/>
      <point x="169" y="-12" type="curve" smooth="yes"/>
      <point x="112.333" y="-12"/>
      <point x="70" y="26"/>
    </contour>
    <contour>
      <point x="187.333" y="122.666" type="curve" smooth="yes"/>
      <point x="187.333" y="82.333"/>
      <point x="197.333" y="49.333"/>
      <point x="230.666" y="49.333" type="curve" smooth="yes"/>
      <point x="267.666" y="49.333"/>
      <point x="315" y="86.666"/>
      <point x="368" y="157.666" type="curve" smooth="yes"/>
      <point x="421.333" y="230"/>
      <point x="466" y="332.333"/>
      <point x="490.333" y="444.666" type="curve"/>
      <point x="475.666" y="455"/>
      <point x="454" y="463.333"/>
      <point x="426.333" y="463.333" type="curve" smooth="yes"/>
      <point x="270.333" y="463.333"/>
      <point x="187.333" y="219.666"/>
    </contour>
  </outline>
</glyph>
<glyph name="r" format="2">
  <advance width="415"/>
  <unicode hex="0072"/>
  <outline>
    <contour>
      <point x="98" y="-12" type="line"/>
      <point x="190.333" y="395" type="line" smooth="yes"/>
      <point x="197" y="425.333"/>
      <point x="197.667" y="439.333"/>
      <point x="175.333" y="441.333" type="curve" smooth="yes"/>
      <point x="114.333" y="446.666" type="line"/>
      <point x="120.667" y="473.667" type="line"/>
      <point x="306.333" y="502" type="line"/>
      <point x="311.333" y="497" type="line"/>
      <point x="268.489" y="337.18" type="line"/>
      <point x="272" y="338" type="line"/>
      <point x="324.666" y="440.333"/>
      <point x="391" y="502"/>
      <point x="448.666" y="502" type="curve" smooth="yes"/>
      <point x="481.333" y="502"/>
      <point x="499.333" y="485.667"/>
      <point x="499.333" y="453" type="curve" smooth="yes"/>
      <point x="499.333" y="420.666"/>
      <point x="475.333" y="383"/>
      <point x="445.333" y="383" type="curve" smooth="yes"/>
      <point x="411.666" y="383"/>
      <point x="400.333" y="411.333"/>
      <point x="370" y="411.333" type="curve" smooth="yes"/>
      <point x="334" y="411.333"/>
      <point x="289.333" y="330.667"/>
      <point x="255" y="207" type="curve" smooth="yes"/>
      <point x="238" y="146"/>
      <point x="219" y="68.333"/>
      <point x="202" y="0" type="curve"/>
    </contour>
  </outline>
</glyph>
<glyph name="s" format="2">
  <advance width="398"/>
  <unicode hex="0073"/>
  <outline>
    <contour>
      <point x="51" y="85" type="curve" smooth="yes"/>
      <point x="51" y="115.334"/>
      <point x="77.667" y="144"/>
      <point x="105.089" y="144" type="curve" smooth="yes"/>
      <point x="160.553" y="144"/>
      <point x="147.742" y="26.667"/>
      <point x="233.691" y="26.667" type="curve" smooth="yes"/>
      <point x="274.101" y="26.667"/>
      <point x="301.667" y="52.334"/>
      <point x="301.667" y="92.359" type="curve"/>
      <point x="300.667" y="135"/>
      <point x="269.465" y="176.667"/>
      <point x="228.086" y="209.354" type="curve" smooth="yes"/>
      <point x="177.667" y="250"/>
      <point x="137.667" y="295.641"/>
      <point x="137.667" y="356.777" type="curve" smooth="yes"/>
      <point x="137.667" y="432.031"/>
      <point x="198" y="502"/>
      <point x="310.231" y="502" type="curve" smooth="yes"/>
      <point x="403.333" y="502"/>
      <point x="443.667" y="452.666"/>
      <point x="443.667" y="417.823" type="curve" smooth="yes"/>
      <point x="443.667" y="387"/>
      <point x="412" y="370.666"/>
      <point x="392.004" y="370.666" type="curve" smooth="yes"/>
      <point x="344.457" y="370.666"/>
      <point x="350.426" y="463.333"/>
      <point x="284.167" y="463.333" type="curve" smooth="yes"/>
      <point x="246.86" y="463.333"/>
      <point x="223" y="434.338"/>
      <point x="223" y="399.952" type="curve" smooth="yes"/>
      <point x="223" y="371.316"/>
      <point x="240.085" y="339.667"/>
      <point x="302.252" y="290.454" type="curve" smooth="yes"/>
      <point x="358.55" y="245"/>
      <point x="390.333" y="199.667"/>
      <point x="390.333" y="140.981" type="curve" smooth="yes"/>
      <point x="390.333" y="58.667"/>
      <point x="329.229" y="-12"/>
      <point x="210.155" y="-12" type="curve" smooth="yes"/>
      <point x="106" y="-12"/>
      <point x="51" y="41.667"/>
    </contour>
  </outline>
</glyph>
<glyph name="t" format="2">
  <advance width="347"/>
  <unicode hex="0074"/>
  <outline>
    <contour>
      <point x="119.667" y="94.333" type="curve" smooth="yes"/>
      <point x="207.667" y="448.667" type="line"/>
      <point x="124.667" y="448.667" type="line"/>
      <point x="136" y="490" type="line"/>
      <point x="217" y="490" type="line"/>
      <point x="232.333" y="547.333" type="line"/>
      <point x="347.333" y="624.333" type="line"/>
      <point x="359.667" y="617" type="line"/>
      <point x="322.333" y="490" type="line"/>
      <point x="447" y="490" type="line"/>
      <point x="435.667" y="448.667" type="line"/>
      <point x="313" y="448.667" type="line"/>
      <point x="226.333" y="95.666" type="line" smooth="yes"/>
      <point x="224.347" y="87.251"/>
      <point x="223.015" y="79.04"/>
      <point x="223.015" y="71.925" type="curve" smooth="yes"/>
      <point x="223.015" y="58.749"/>
      <point x="227.582" y="49.333"/>
      <point x="240.108" y="49.333" type="curve" smooth="yes"/>
      <point x="271.333" y="49.333"/>
      <point x="318.667" y="110"/>
      <point x="344" y="152.667" type="curve"/>
      <point x="368" y="135" type="line"/>
      <point x="325.333" y="54.666"/>
      <point x="259.333" y="-12"/>
      <point x="180.681" y="-12" type="curve" smooth="yes"/>
      <point x="135.033" y="-12"/>
      <point x="113.469" y="10.456"/>
      <point x="113.469" y="51.251" type="curve" smooth="yes"/>
      <point x="113.469" y="63.998"/>
      <point x="115.546" y="78.447"/>
    </contour>
  </outline>
</glyph>
<glyph name="u" format="2">
  <advance width="623"/>
  <unicode hex="0075"/>
  <outline>
    <contour>
      <point x="118.09" y="67.044" type="curve" smooth="yes"/>
      <point x="118.09" y="86.837"/>
      <point x="121.768" y="109.258"/>
      <point x="128" y="133" type="curve" smooth="yes"/>
      <point x="196.333" y="395" type="line" smooth="yes"/>
      <point x="199.23" y="406.119"/>
      <point x="201.032" y="415.125"/>
      <point x="201.032" y="422.177" type="curve" smooth="yes"/>
      <point x="201.032" y="434.635"/>
      <point x="195.51" y="441.058"/>
      <point x="181.333" y="442.334" type="curve" smooth="yes"/>
      <point x="120.334" y="447.667" type="line"/>
      <point x="127" y="474.667" type="line"/>
      <point x="325.333" y="502" type="line"/>
      <point x="330.333" y="497" type="line"/>
      <point x="235" y="128" type="line" smooth="yes"/>
      <point x="230.561" y="111.037"/>
      <point x="228.206" y="96.637"/>
      <point x="228.206" y="84.984" type="curve" smooth="yes"/>
      <point x="228.206" y="61.616"/>
      <point x="237.603" y="49.333"/>
      <point x="259.135" y="49.333" type="curve" smooth="yes"/>
      <point x="329" y="49.333"/>
      <point x="414.333" y="181.667"/>
      <point x="458.658" y="284.64" type="curve" smooth="yes"/>
      <point x="480.333" y="335"/>
      <point x="496.333" y="388"/>
      <point x="525.333" y="490" type="curve"/>
      <point x="632" y="502" type="line"/>
      <point x="527" y="101" type="line" smooth="yes"/>
      <point x="524.1" y="89.798"/>
      <point x="522.297" y="79.642"/>
      <point x="522.295" y="71.357" type="curve" smooth="yes"/>
      <point x="522.293" y="57.865"/>
      <point x="527.069" y="49.333"/>
      <point x="537.394" y="49.333" type="curve" smooth="yes"/>
      <point x="566" y="49.333"/>
      <point x="607.667" y="115"/>
      <point x="629.667" y="152.667" type="curve"/>
      <point x="655.333" y="136.666" type="line"/>
      <point x="618.333" y="59.666"/>
      <point x="558" y="-12"/>
      <point x="481.111" y="-12" type="curve" smooth="yes"/>
      <point x="438.359" y="-12"/>
      <point x="418.209" y="10.108"/>
      <point x="418.209" y="48.774" type="curve" smooth="yes"/>
      <point x="418.209" y="62.45"/>
      <point x="420.662" y="78.307"/>
      <point x="425.667" y="96" type="curve" smooth="yes"/>
      <point x="458.168" y="210.62" type="line"/>
      <point x="455.333" y="210" type="line"/>
      <point x="394.333" y="94"/>
      <point x="296.667" y="-12"/>
      <point x="194.824" y="-12" type="curve" smooth="yes"/>
      <point x="138.742" y="-12"/>
      <point x="118.09" y="20.144"/>
    </contour>
  </outline>
</glyph>
<glyph name="v" format="2">
  <advance width="513"/>
  <unicode hex="0076"/>
  <outline>
    <contour>
      <point x="113.667" y="447.666" type="line"/>
      <point x="120" y="474.666" type="line"/>
      <point x="313.333" y="502" type="line"/>
      <point x="318.333" y="497" type="line"/>
      <point x="232.667" y="119" type="line" smooth="yes"/>
      <point x="222" y="72.666"/>
      <point x="238" y="49.333"/>
      <point x="265" y="49.333" type="curve"/>
      <point x="342.333" y="47"/>
      <point x="458" y="215.666"/>
      <point x="466" y="355.666" type="curve"/>
      <point x="466" y="407.666"/>
      <point x="464" y="446"/>
      <point x="454" y="481" type="curve"/>
      <point x="479" y="494"/>
      <point x="510.333" y="502"/>
      <point x="538.333" y="502" type="curve" smooth="yes"/>
      <point x="546.333" y="502"/>
      <point x="569.333" y="464.333"/>
      <point x="569.333" y="424" type="curve"/>
      <point x="568.333" y="362"/>
      <point x="520.666" y="253"/>
      <point x="449.667" y="159.666" type="curve" smooth="yes"/>
      <point x="379.667" y="67.333"/>
      <point x="293" y="-12"/>
      <point x="204.333" y="-12" type="curve" smooth="yes"/>
      <point x="140.667" y="-12"/>
      <point x="108" y="29.333"/>
      <point x="128.667" y="122" type="curve" smooth="yes"/>
      <point x="189.667" y="395" type="line" smooth="yes"/>
      <point x="196.667" y="427"/>
      <point x="196" y="440.333"/>
      <point x="174.667" y="442.333" type="curve" smooth="yes"/>
    </contour>
  </outline>
</glyph>
<glyph name="w" format="2">
  <advance width="796"/>
  <unicode hex="0077"/>
  <outline>
    <contour>
      <point x="120.666" y="447.666" type="line"/>
      <point x="126.333" y="474.666" type="line"/>
      <point x="321.333" y="502" type="line"/>
      <point x="326.333" y="497" type="line"/>
      <point x="239.333" y="127.333" type="line" smooth="yes"/>
      <point x="236.045" y="113.702"/>
      <point x="234.568" y="102.127"/>
      <point x="234.568" y="92.406" type="curve" smooth="yes"/>
      <point x="234.568" y="61.665"/>
      <point x="249.341" y="49.333"/>
      <point x="271.393" y="49.333" type="curve" smooth="yes"/>
      <point x="388.706" y="49.333"/>
      <point x="484.368" y="401.461"/>
      <point x="503.667" y="487" type="curve"/>
      <point x="606.333" y="493" type="line"/>
      <point x="536.667" y="180.333" type="line" smooth="yes"/>
      <point x="530.127" y="150.678"/>
      <point x="526.677" y="126.096"/>
      <point x="526.677" y="106.548" type="curve" smooth="yes"/>
      <point x="526.677" y="68.307"/>
      <point x="539.883" y="49.333"/>
      <point x="565.617" y="49.333" type="curve" smooth="yes"/>
      <point x="643.667" y="49.333"/>
      <point x="752.667" y="223.957"/>
      <point x="752.667" y="362.333" type="curve" smooth="yes"/>
      <point x="752.667" y="406.666"/>
      <point x="750" y="444.666"/>
      <point x="740" y="481" type="curve"/>
      <point x="766.333" y="494"/>
      <point x="794.667" y="502"/>
      <point x="822.334" y="502" type="curve" smooth="yes"/>
      <point x="830.334" y="502"/>
      <point x="853.334" y="465.333"/>
      <point x="853.334" y="419.755" type="curve" smooth="yes"/>
      <point x="853.334" y="289.09"/>
      <point x="664.347" y="-12"/>
      <point x="509.822" y="-12" type="curve" smooth="yes"/>
      <point x="452.333" y="-12"/>
      <point x="427.667" y="29.666"/>
      <point x="427.667" y="85.865" type="curve" smooth="yes"/>
      <point x="427.667" y="114.333"/>
      <point x="434.054" y="156.511"/>
      <point x="444" y="193" type="curve"/>
      <point x="441.333" y="194.333" type="line"/>
      <point x="380.333" y="74"/>
      <point x="292.333" y="-12"/>
      <point x="207.404" y="-12" type="curve" smooth="yes"/>
      <point x="160.263" y="-12"/>
      <point x="126.541" y="15.26"/>
      <point x="126.541" y="75.093" type="curve" smooth="yes"/>
      <point x="126.541" y="89.832"/>
      <point x="128.586" y="106.552"/>
      <point x="132.999" y="125.333" type="curve" smooth="yes"/>
      <point x="195.999" y="395" type="line" smooth="yes"/>
      <point x="198.625" y="406.525"/>
      <point x="200.137" y="415.433"/>
      <point x="200.137" y="422.25" type="curve" smooth="yes"/>
      <point x="200.137" y="435.46"/>
      <point x="194.573" y="441.015"/>
      <point x="180.999" y="442.333" type="curve" smooth="yes"/>
    </contour>
  </outline>
</glyph>
<glyph name="x" format="2">
  <advance width="516"/>
  <unicode hex="0078"/>
  <outline>
    <contour>
      <point x="23.667" y="42.666" type="curve" smooth="yes"/>
      <point x="23.667" y="71.666"/>
      <point x="44.333" y="100.666"/>
      <point x="71.667" y="100.666" type="curve" smooth="yes"/>
      <point x="89.333" y="100.666"/>
      <point x="103.667" y="89.666"/>
      <point x="114.333" y="83.666" type="curve"/>
      <point x="124" y="77.666"/>
      <point x="133.667" y="73.333"/>
      <point x="144.333" y="73.333" type="curve" smooth="yes"/>
      <point x="166.333" y="73.333"/>
      <point x="199.667" y="121"/>
      <point x="239" y="190" type="curve" smooth="yes"/>
      <point x="242.867" y="197.105"/>
      <point x="260.956" y="228.257"/>
      <point x="265" y="236" type="curve"/>
      <point x="228" y="386.334" type="line" smooth="yes"/>
      <point x="218.667" y="425.667"/>
      <point x="210.667" y="430.334"/>
      <point x="190.667" y="429.667" type="curve" smooth="yes"/>
      <point x="120.667" y="425.667" type="line"/>
      <point x="117.667" y="452" type="line"/>
      <point x="297.667" y="502" type="line"/>
      <point x="304" y="498" type="line"/>
      <point x="341" y="337.334" type="line"/>
      <point x="343" y="337.334" type="line"/>
      <point x="349.866" y="348.793"/>
      <point x="377.666" y="392.121"/>
      <point x="387.667" y="406.667" type="curve" smooth="yes"/>
      <point x="423.667" y="461.333"/>
      <point x="466" y="502"/>
      <point x="516.667" y="502" type="curve" smooth="yes"/>
      <point x="546" y="502"/>
      <point x="571" y="488"/>
      <point x="571" y="454.333" type="curve" smooth="yes"/>
      <point x="571" y="424"/>
      <point x="548" y="399.334"/>
      <point x="523.667" y="399.334" type="curve" smooth="yes"/>
      <point x="510.667" y="399.334"/>
      <point x="498.667" y="404.334"/>
      <point x="488.333" y="408.667" type="curve"/>
      <point x="476.333" y="415"/>
      <point x="467.333" y="417.667"/>
      <point x="457.667" y="417.667" type="curve" smooth="yes"/>
      <point x="429.667" y="417.667"/>
      <point x="385.667" y="348"/>
      <point x="352.333" y="289" type="curve"/>
      <point x="388" y="144" type="line" smooth="yes"/>
      <point x="406.333" y="70"/>
      <point x="414.333" y="49.333"/>
      <point x="432.667" y="49.333" type="curve"/>
      <point x="459.667" y="49.666"/>
      <point x="487.667" y="102.666"/>
      <point x="512.333" y="151.666" type="curve"/>
      <point x="540" y="137.333" type="line"/>
      <point x="509.667" y="68"/>
      <point x="465.667" y="-12"/>
      <point x="385.333" y="-12" type="curve" smooth="yes"/>
      <point x="331" y="-12"/>
      <point x="311.333" y="33"/>
      <point x="293.667" y="108" type="curve" smooth="yes"/>
      <point x="276.333" y="182.667" type="line"/>
      <point x="274" y="182.667" type="line"/>
      <point x="267.98" y="171.8"/>
      <point x="241.601" y="127.175"/>
      <point x="236.333" y="117.666" type="curve"/>
      <point x="196.667" y="50.666"/>
      <point x="159" y="-12"/>
      <point x="92.333" y="-12" type="curve" smooth="yes"/>
      <point x="49.333" y="-12"/>
      <point x="23.667" y="11.667"/>
    </contour>
  </outline>
</glyph>
<glyph name="y" format="2">
  <advance width="475"/>
  <unicode hex="0079"/>
  <outline>
    <contour>
      <point x="-8" y="-184.667" type="curve"/>
      <point x="-8.666" y="-152.334"/>
      <point x="19.334" y="-118.667"/>
      <point x="48.667" y="-117.667" type="curve"/>
      <point x="66" y="-117.667"/>
      <point x="74.334" y="-126.667"/>
      <point x="87.667" y="-144.667" type="curve" smooth="yes"/>
      <point x="102.667" y="-165.334"/>
      <point x="115" y="-177.667"/>
      <point x="129.667" y="-177.667" type="curve" smooth="yes"/>
      <point x="148.667" y="-177.667"/>
      <point x="171" y="-152.667"/>
      <point x="187" y="-111.334" type="curve" smooth="yes"/>
      <point x="204.667" y="-66"/>
      <point x="206.667" y="-27.334"/>
      <point x="206.667" y="5.333" type="curve" smooth="yes"/>
      <point x="206.667" y="90.666"/>
      <point x="182.334" y="285"/>
      <point x="170" y="363" type="curve" smooth="yes"/>
      <point x="162" y="412.666"/>
      <point x="156.334" y="429.666"/>
      <point x="134.334" y="428.666" type="curve" smooth="yes"/>
      <point x="68.334" y="427.333" type="line"/>
      <point x="66.334" y="454" type="line"/>
      <point x="250.667" y="502" type="line"/>
      <point x="258.667" y="498" type="line"/>
      <point x="273" y="431.333"/>
      <point x="292" y="216.666"/>
      <point x="297" y="64.666" type="curve"/>
      <point x="300" y="64.666" type="line"/>
      <point x="363" y="175"/>
      <point x="416.666" y="279"/>
      <point x="431.666" y="339" type="curve" smooth="yes"/>
      <point x="442.333" y="381"/>
      <point x="444.333" y="442"/>
      <point x="443.333" y="477" type="curve"/>
      <point x="473.333" y="494.333"/>
      <point x="509.333" y="502"/>
      <point x="530" y="502" type="curve" smooth="yes"/>
      <point x="537.333" y="502"/>
      <point x="549" y="478"/>
      <point x="549" y="446.666" type="curve" smooth="yes"/>
      <point x="549" y="406"/>
      <point x="487.333" y="309"/>
      <point x="430" y="214.333" type="curve" smooth="yes"/>
      <point x="368.333" y="113"/>
      <point x="309.333" y="6.333"/>
      <point x="289" y="-27.667" type="curve" smooth="yes"/>
      <point x="203" y="-173.667"/>
      <point x="162" y="-242"/>
      <point x="71" y="-242" type="curve" smooth="yes"/>
      <point x="22.334" y="-242"/>
      <point x="-8" y="-213"/>
    </contour>
  </outline>
</glyph>
<glyph name="z" format="2">
  <advance width="467"/>
  <unicode hex="007A"/>
  <outline>
    <contour>
      <point x="32" y="18.333" type="curve" smooth="yes"/>
      <point x="32" y="35.667"/>
      <point x="41.667" y="58.667"/>
      <point x="57" y="74" type="curve" smooth="yes"/>
      <point x="399.334" y="414.667" type="line"/>
      <point x="399.334" y="416.667" type="line"/>
      <point x="233.667" y="416" type="line"/>
      <point x="187.667" y="416"/>
      <point x="167.334" y="389"/>
      <point x="134.667" y="326.667" type="curve"/>
      <point x="109.667" y="338" type="line"/>
      <point x="131.667" y="412.667"/>
      <point x="163" y="469.666"/>
      <point x="180" y="490" type="curve"/>
      <point x="517.667" y="490" type="line"/>
      <point x="525.667" y="475.333" type="line"/>
      <point x="183.667" y="134.667" type="line"/>
      <point x="183.667" y="131.333" type="line"/>
      <point x="248.667" y="123.667"/>
      <point x="313" y="79"/>
      <point x="379.334" y="79" type="curve" smooth="yes"/>
      <point x="424.334" y="79"/>
      <point x="451" y="134"/>
      <point x="477.334" y="195.667" type="curve"/>
      <point x="505.667" y="187.667" type="line"/>
      <point x="478.667" y="79.667"/>
      <point x="448.334" y="-12"/>
      <point x="380" y="-12" type="curve" smooth="yes"/>
      <point x="292" y="-12"/>
      <point x="151" y="72"/>
      <point x="124.334" y="72" type="curve" smooth="yes"/>
      <point x="117" y="72"/>
      <point x="112" y="65"/>
      <point x="112.334" y="54" type="curve" smooth="yes"/>
      <point x="113.667" y="14.667" type="line" smooth="yes"/>
      <point x="114.667" y="-4.667"/>
      <point x="82.667" y="-12"/>
      <point x="60" y="-12" type="curve" smooth="yes"/>
      <point x="38.333" y="-12"/>
      <point x="32" y="4.667"/>
    </contour>
  </outline>
</glyph>
<glyph name="braceleft" format="2">
  <advance width="340"/>
  <unicode hex="007B"/>
  <outline>
    <contour>
      <point x="133.666" y="267.667" type="curve"/>
      <point x="141.333" y="296.334" type="line"/>
      <point x="227.999" y="297.667"/>
      <point x="245.333" y="342.001"/>
      <point x="253" y="403" type="curve"/>
      <point x="255" y="423.334"/>
      <point x="256" y="445"/>
      <point x="257.333" y="465.667" type="curve"/>
      <point x="258.666" y="480"/>
      <point x="259.666" y="494"/>
      <point x="261" y="508.334" type="curve" smooth="yes"/>
      <point x="271.666" y="599.333"/>
      <point x="300.333" y="684.667"/>
      <point x="419.667" y="691.333" type="curve" smooth="yes"/>
      <point x="428" y="692"/>
      <point x="436.333" y="692"/>
      <point x="445" y="692" type="curve" smooth="yes"/>
      <point x="463.333" y="692" type="line"/>
      <point x="456" y="664" type="line"/>
      <point x="395.333" y="659.667"/>
      <point x="366.333" y="634"/>
      <point x="353.333" y="595.333" type="curve" smooth="yes"/>
      <point x="348.667" y="581.667"/>
      <point x="346" y="567.334"/>
      <point x="344" y="552.334" type="curve" smooth="yes"/>
      <point x="341.333" y="530.667"/>
      <point x="340.333" y="509"/>
      <point x="339" y="490.334" type="curve"/>
      <point x="338.667" y="482.334"/>
      <point x="338.333" y="474.667"/>
      <point x="337.333" y="467.334" type="curve"/>
      <point x="332" y="368.001"/>
      <point x="325.667" y="309.667"/>
      <point x="214.999" y="285.001" type="curve"/>
      <point x="214.666" y="279" type="line"/>
      <point x="309.667" y="259.667"/>
      <point x="294.333" y="196.667"/>
      <point x="263" y="115.334" type="curve" smooth="yes"/>
      <point x="257" y="99.667"/>
      <point x="250" y="84"/>
      <point x="242.666" y="67.333" type="curve" smooth="yes"/>
      <point x="237.666" y="55.667"/>
      <point x="233" y="43.333"/>
      <point x="227.333" y="29.667" type="curve" smooth="yes"/>
      <point x="216.999" y="4"/>
      <point x="207.666" y="-23.333"/>
      <point x="208.666" y="-44.667" type="curve" smooth="yes"/>
      <point x="209.999" y="-75.333"/>
      <point x="228.999" y="-96"/>
      <point x="283.333" y="-100" type="curve"/>
      <point x="275.666" y="-128" type="line"/>
      <point x="259.333" y="-128" type="line" smooth="yes"/>
      <point x="188.999" y="-128"/>
      <point x="137" y="-101.667"/>
      <point x="134.333" y="-39" type="curve" smooth="yes"/>
      <point x="133.333" y="-8.667"/>
      <point x="143.333" y="25"/>
      <point x="158" y="62.333" type="curve" smooth="yes"/>
      <point x="164" y="78"/>
      <point x="170.333" y="93.667"/>
      <point x="176.999" y="109.667" type="curve"/>
      <point x="182.333" y="124"/>
      <point x="188.666" y="138"/>
      <point x="193.999" y="152.334" type="curve" smooth="yes"/>
      <point x="216.999" y="215.334"/>
      <point x="219.999" y="266.334"/>
    </contour>
  </outline>
</glyph>
<glyph name="bar" format="2">
  <advance width="268"/>
  <unicode hex="007C"/>
  <outline>
    <contour>
      <point x="160.667" y="-250" type="line"/>
      <point x="160.667" y="750" type="line"/>
      <point x="240.667" y="750" type="line"/>
      <point x="240.667" y="-250" type="line"/>
    </contour>
  </outline>
</glyph>
<glyph name="braceright" format="2">
  <advance width="340"/>
  <unicode hex="007D"/>
  <outline>
    <contour>
      <point x="7.666" y="-128" type="line"/>
      <point x="15" y="-100" type="line"/>
      <point x="75.666" y="-95.667"/>
      <point x="104.666" y="-70"/>
      <point x="117.666" y="-31.333" type="curve" smooth="yes"/>
      <point x="122.333" y="-17.667"/>
      <point x="125" y="-3.333"/>
      <point x="127" y="11.667" type="curve" smooth="yes"/>
      <point x="130" y="33.333"/>
      <point x="130.666" y="55.333"/>
      <point x="132.333" y="73.667" type="curve"/>
      <point x="132.333" y="81.667"/>
      <point x="132.666" y="89.334"/>
      <point x="133.666" y="96.667" type="curve"/>
      <point x="139" y="196"/>
      <point x="145.333" y="254.334"/>
      <point x="256" y="279" type="curve"/>
      <point x="256.333" y="285.001" type="line"/>
      <point x="161.333" y="305.001"/>
      <point x="176.667" y="367.334"/>
      <point x="208" y="448.667" type="curve" smooth="yes"/>
      <point x="214.333" y="464.334"/>
      <point x="221" y="480.667"/>
      <point x="228.667" y="497" type="curve"/>
      <point x="233.333" y="508.334"/>
      <point x="239" y="520.667"/>
      <point x="243.666" y="534.334" type="curve"/>
      <point x="254.666" y="560"/>
      <point x="263.333" y="587.333"/>
      <point x="262.333" y="608.667" type="curve" smooth="yes"/>
      <point x="261" y="639.333"/>
      <point x="242" y="660"/>
      <point x="187.667" y="664" type="curve"/>
      <point x="195.333" y="692" type="line"/>
      <point x="211" y="692" type="line" smooth="yes"/>
      <point x="281.333" y="692"/>
      <point x="333.333" y="665.667"/>
      <point x="336" y="603" type="curve" smooth="yes"/>
      <point x="337" y="573.333"/>
      <point x="327" y="541"/>
      <point x="313.667" y="505.667" type="curve" smooth="yes"/>
      <point x="307.667" y="489.334"/>
      <point x="300.667" y="471.667"/>
      <point x="293.333" y="454.334" type="curve"/>
      <point x="288" y="440"/>
      <point x="281.666" y="426"/>
      <point x="276.333" y="411.667" type="curve" smooth="yes"/>
      <point x="253.333" y="348.667"/>
      <point x="250.333" y="297.667"/>
      <point x="336.667" y="296.334" type="curve"/>
      <point x="329" y="267.667" type="line"/>
      <point x="240.666" y="266.334"/>
      <point x="225.667" y="222"/>
      <point x="218" y="161" type="curve"/>
      <point x="216" y="140.667"/>
      <point x="214.333" y="119"/>
      <point x="213" y="98.334" type="curve"/>
      <point x="211.667" y="84"/>
      <point x="210.667" y="70"/>
      <point x="209.333" y="55.667" type="curve" smooth="yes"/>
      <point x="199.333" y="-35.333"/>
      <point x="172.666" y="-120.667"/>
      <point x="50.666" y="-127.333" type="curve"/>
      <point x="43" y="-128"/>
      <point x="34.666" y="-128"/>
      <point x="25.666" y="-128" type="curve" smooth="yes"/>
    </contour>
  </outline>
</glyph>
<glyph name="asciitilde" format="2">
  <advance width="580"/>
  <unicode hex="007E"/>
  <outline>
    <contour>
      <point x="123.667" y="195.667" type="line"/>
      <point x="147.667" y="248"/>
      <point x="182.667" y="312.334"/>
      <point x="262" y="312.334" type="curve" smooth="yes"/>
      <point x="294" y="312.334"/>
      <point x="327.333" y="300.334"/>
      <point x="359.333" y="287.667" type="curve" smooth="yes"/>
      <point x="391.333" y="275.334"/>
      <point x="422" y="262.667"/>
      <point x="448.333" y="262.667" type="curve" smooth="yes"/>
      <point x="482.667" y="262.667"/>
      <point x="499.667" y="278"/>
      <point x="528.667" y="324.667" type="curve"/>
      <point x="573.333" y="298.667" type="line"/>
      <point x="545.333" y="236"/>
      <point x="508.333" y="187"/>
      <point x="441.333" y="187" type="curve" smooth="yes"/>
      <point x="407.667" y="187"/>
      <point x="373.667" y="199.667"/>
      <point x="342" y="212" type="curve" smooth="yes"/>
      <point x="310" y="224.667"/>
      <point x="279" y="236.667"/>
      <point x="249.333" y="236.667" type="curve" smooth="yes"/>
      <point x="212.667" y="236.667"/>
      <point x="191.667" y="214"/>
      <point x="169.667" y="169.667" type="curve"/>
    </contour>
  </outline>
</glyph>
<glyph name="exclamdown" format="2">
  <advance width="270"/>
  <unicode hex="00A1"/>
  <outline>
    <contour>
      <point x="159.667" y="422.666" type="curve" smooth="yes"/>
      <point x="159.667" y="471"/>
      <point x="191" y="502"/>
      <point x="234" y="502" type="curve" smooth="yes"/>
      <point x="278" y="502"/>
      <point x="301" y="473.333"/>
      <point x="301" y="437.667" type="curve" smooth="yes"/>
      <point x="301" y="390"/>
      <point x="268.667" y="359.333"/>
      <point x="225.667" y="359.333" type="curve" smooth="yes"/>
      <point x="182.334" y="359.333"/>
      <point x="159.667" y="389"/>
    </contour>
    <contour>
      <point x="39.667" y="-137" type="curve" smooth="yes"/>
      <point x="180" y="278.333" type="line"/>
      <point x="217" y="278.333" type="line"/>
      <point x="175" y="-87.667" type="line" smooth="yes"/>
      <point x="172.334" y="-111"/>
      <point x="169" y="-134"/>
      <point x="165.667" y="-155.667" type="curve" smooth="yes"/>
      <point x="159" y="-192.667"/>
      <point x="142.667" y="-217"/>
      <point x="86.667" y="-217" type="curve" smooth="yes"/>
      <point x="22.334" y="-217"/>
      <point x="22.334" y="-187"/>
    </contour>
  </outline>
</glyph>
<glyph name="cent" format="2">
  <advance width="540"/>
  <unicode hex="00A2"/>
  <outline>
    <contour>
      <point x="236" y="274.334" type="curve" smooth="yes"/>
      <point x="235" y="211.334"/>
      <point x="249.333" y="157.667"/>
      <point x="311.667" y="141.667" type="curve"/>
      <point x="406.667" y="559.667" type="line"/>
      <point x="298" y="560"/>
      <point x="238" y="376.667"/>
    </contour>
    <contour>
      <point x="124.333" y="276.667" type="curve" smooth="yes"/>
      <point x="125" y="341.667"/>
      <point x="146" y="415.334"/>
      <point x="188.333" y="476.667" type="curve" smooth="yes"/>
      <point x="237" y="546.334"/>
      <point x="314" y="596.667"/>
      <point x="415.333" y="599" type="curve"/>
      <point x="430.333" y="668.667" type="line"/>
      <point x="475.667" y="668" type="line"/>
      <point x="461.333" y="598.333" type="line"/>
      <point x="530.333" y="597"/>
      <point x="615" y="557.667"/>
      <point x="614" y="496.667" type="curve" smooth="yes"/>
      <point x="613.667" y="462"/>
      <point x="576.333" y="446.334"/>
      <point x="552" y="447.334" type="curve"/>
      <point x="535.667" y="447.334"/>
      <point x="527" y="456.667"/>
      <point x="523" y="470" type="curve"/>
      <point x="522" y="471.667"/>
      <point x="521.333" y="473.667"/>
      <point x="520.667" y="475.667" type="curve"/>
      <point x="506.333" y="532"/>
      <point x="476.667" y="559.334"/>
      <point x="452.333" y="559.667" type="curve"/>
      <point x="355.667" y="132.667" type="line"/>
      <point x="417" y="131.334"/>
      <point x="473.667" y="154"/>
      <point x="528.667" y="224.667" type="curve"/>
      <point x="552.667" y="204.667" type="line"/>
      <point x="502.667" y="124.334"/>
      <point x="424" y="88"/>
      <point x="345" y="87" type="curve"/>
      <point x="320.667" y="-21" type="line"/>
      <point x="275" y="-21" type="line"/>
      <point x="299.333" y="87" type="line"/>
      <point x="224.333" y="89.333"/>
      <point x="123" y="133.667"/>
    </contour>
  </outline>
</glyph>
<glyph name="sterling" format="2">
  <advance width="540"/>
  <unicode hex="00A3"/>
  <outline>
    <contour>
      <point x="39.666" y="6.333" type="line"/>
      <point x="65" y="54" type="line"/>
      <point x="137.333" y="76.667"/>
      <point x="214.333" y="111"/>
      <point x="237.666" y="174.667" type="curve" smooth="yes"/>
      <point x="241.333" y="184.667"/>
      <point x="244.333" y="195"/>
      <point x="245.333" y="206.334" type="curve"/>
      <point x="248.333" y="230.334"/>
      <point x="246.333" y="256.667"/>
      <point x="238" y="290.667" type="curve"/>
      <point x="116" y="290.667" type="line"/>
      <point x="125.666" y="332" type="line"/>
      <point x="230.333" y="332" type="line"/>
      <point x="217.666" y="369.333"/>
      <point x="208.333" y="415"/>
      <point x="207" y="459.333" type="curve"/>
      <point x="207" y="465.333"/>
      <point x="207" y="472"/>
      <point x="207.333" y="478" type="curve" smooth="yes"/>
      <point x="211" y="576.333"/>
      <point x="274.666" y="671.666"/>
      <point x="407.666" y="678.999" type="curve"/>
      <point x="413.666" y="679.666"/>
      <point x="419" y="679.666"/>
      <point x="425" y="679.666" type="curve" smooth="yes"/>
      <point x="544.666" y="679.666"/>
      <point x="593.667" y="617"/>
      <point x="595" y="579" type="curve"/>
      <point x="595.333" y="577.666"/>
      <point x="595.333" y="576.666"/>
      <point x="595.333" y="575.666" type="curve"/>
      <point x="595" y="537.333"/>
      <point x="558.333" y="524"/>
      <point x="536.666" y="524" type="curve" smooth="yes"/>
      <point x="519.333" y="524"/>
      <point x="512" y="534.666"/>
      <point x="507.333" y="546" type="curve"/>
      <point x="504.666" y="553"/>
      <point x="501.666" y="559.666"/>
      <point x="499" y="566.666" type="curve"/>
      <point x="479.333" y="613.333"/>
      <point x="449.666" y="638"/>
      <point x="412.666" y="640.333" type="curve" smooth="yes"/>
      <point x="406.333" y="640.666"/>
      <point x="399.999" y="640.333"/>
      <point x="393.666" y="639.666" type="curve"/>
      <point x="348.666" y="633.666"/>
      <point x="317.666" y="595.333"/>
      <point x="310.999" y="538" type="curve" smooth="yes"/>
      <point x="310.333" y="533.333"/>
      <point x="309.666" y="528"/>
      <point x="309.666" y="522.666" type="curve"/>
      <point x="308.999" y="491"/>
      <point x="312.333" y="460.333"/>
      <point x="319.999" y="426.667" type="curve" smooth="yes"/>
      <point x="327.666" y="394.667"/>
      <point x="337.333" y="362.667"/>
      <point x="345.333" y="332" type="curve"/>
      <point x="492.666" y="332" type="line"/>
      <point x="483.666" y="290.667" type="line"/>
      <point x="349.666" y="290.667" type="line"/>
      <point x="350.666" y="272"/>
      <point x="349.666" y="254.667"/>
      <point x="345.666" y="234" type="curve" smooth="yes"/>
      <point x="336.333" y="182.334"/>
      <point x="294.666" y="128.667"/>
      <point x="220.666" y="89.334" type="curve"/>
      <point x="221" y="85.667" type="line"/>
      <point x="427" y="85.667" type="line" smooth="yes"/>
      <point x="467" y="85.667"/>
      <point x="487.333" y="103.667"/>
      <point x="503.666" y="123" type="curve" smooth="yes"/>
      <point x="508" y="128.334"/>
      <point x="512" y="134"/>
      <point x="516.333" y="139.334" type="curve"/>
      <point x="544.666" y="127" type="line"/>
      <point x="478.666" y="0" type="line"/>
      <point x="45" y="0" type="line"/>
    </contour>
  </outline>
</glyph>
<glyph name="currency" format="2">
  <advance width="540"/>
  <unicode hex="00A4"/>
  <outline>
    <contour>
      <point x="194.667" y="334" type="curve" smooth="yes"/>
      <point x="194.667" y="241"/>
      <point x="255.667" y="170.333"/>
      <point x="338.667" y="170.333" type="curve" smooth="yes"/>
      <point x="421.667" y="170.333"/>
      <point x="482.667" y="241"/>
      <point x="482.667" y="334" type="curve" smooth="yes"/>
      <point x="482.667" y="427"/>
      <point x="421.667" y="497.667"/>
      <point x="338.667" y="497.667" type="curve" smooth="yes"/>
      <point x="255.667" y="497.667"/>
      <point x="194.667" y="427"/>
    </contour>
    <contour>
      <point x="110" y="96.666" type="curve" smooth="yes"/>
      <point x="83.667" y="119.333"/>
      <point x="87.667" y="142.666"/>
      <point x="115.334" y="164.333" type="curve" smooth="yes"/>
      <point x="157.667" y="197.333" type="line"/>
      <point x="124.334" y="238.666"/>
      <point x="112.667" y="285"/>
      <point x="112.667" y="334" type="curve" smooth="yes"/>
      <point x="112.667" y="383"/>
      <point x="124.334" y="429.334"/>
      <point x="157.667" y="470.667" type="curve"/>
      <point x="115.334" y="503.667" type="line" smooth="yes"/>
      <point x="87.667" y="525.334"/>
      <point x="83.667" y="548.667"/>
      <point x="110" y="571.334" type="curve" smooth="yes"/>
      <point x="134" y="592.667"/>
      <point x="157.667" y="586"/>
      <point x="175.334" y="560.667" type="curve" smooth="yes"/>
      <point x="206" y="518.334" type="line"/>
      <point x="241.667" y="551"/>
      <point x="294" y="562.667"/>
      <point x="338.667" y="562.667" type="curve" smooth="yes"/>
      <point x="383.334" y="562.667"/>
      <point x="435.667" y="551"/>
      <point x="471.334" y="518.334" type="curve"/>
      <point x="502" y="560.667" type="line" smooth="yes"/>
      <point x="519.667" y="586"/>
      <point x="543.334" y="592.667"/>
      <point x="567.334" y="571.334" type="curve" smooth="yes"/>
      <point x="593.667" y="548.667"/>
      <point x="589.667" y="525.334"/>
      <point x="562" y="503.667" type="curve" smooth="yes"/>
      <point x="519.667" y="470.667" type="line"/>
      <point x="553" y="429.334"/>
      <point x="564.667" y="383"/>
      <point x="564.667" y="334" type="curve" smooth="yes"/>
      <point x="564.667" y="285"/>
      <point x="553" y="238.666"/>
      <point x="519.667" y="197.333" type="curve"/>
      <point x="562" y="164.333" type="line" smooth="yes"/>
      <point x="589.667" y="142.666"/>
      <point x="593.667" y="119.333"/>
      <point x="567.334" y="96.666" type="curve" smooth="yes"/>
      <point x="543.334" y="75.333"/>
      <point x="519.667" y="82"/>
      <point x="502" y="107.333" type="curve" smooth="yes"/>
      <point x="471.334" y="149.666" type="line"/>
      <point x="435.667" y="117"/>
      <point x="383.334" y="105.333"/>
      <point x="338.667" y="105.333" type="curve" smooth="yes"/>
      <point x="294" y="105.333"/>
      <point x="241.667" y="117"/>
      <point x="206" y="149.666" type="curve"/>
      <point x="175.334" y="107.333" type="line" smooth="yes"/>
      <point x="157.667" y="82"/>
      <point x="134" y="75.333"/>
    </contour>
  </outline>
</glyph>
<glyph name="yen" format="2">
  <advance width="540"/>
  <unicode hex="00A5"/>
  <outline>
    <contour>
      <point x="104.667" y="184.333" type="line"/>
      <point x="115" y="224.333" type="line"/>
      <point x="264.334" y="224.333" type="line"/>
      <point x="271" y="259.333" type="line"/>
      <point x="275.667" y="279.333"/>
      <point x="277" y="295.667"/>
      <point x="278.334" y="312" type="curve"/>
      <point x="134" y="312" type="line"/>
      <point x="144.334" y="352" type="line"/>
      <point x="268.667" y="352" type="line"/>
      <point x="245.667" y="443.667"/>
      <point x="223.667" y="524"/>
      <point x="205" y="595" type="curve" smooth="yes"/>
      <point x="199" y="617.667"/>
      <point x="191.334" y="632.333"/>
      <point x="174" y="633.667" type="curve" smooth="yes"/>
      <point x="140.667" y="636.667" type="line"/>
      <point x="148.334" y="668" type="line"/>
      <point x="387.334" y="668" type="line"/>
      <point x="380.334" y="636.667" type="line"/>
      <point x="336.667" y="634" type="line" smooth="yes"/>
      <point x="314.667" y="632.667"/>
      <point x="310.667" y="623.667"/>
      <point x="314" y="606" type="curve" smooth="yes"/>
      <point x="330" y="528.667"/>
      <point x="349.667" y="440.667"/>
      <point x="369.667" y="351.667" type="curve"/>
      <point x="371.667" y="351.667" type="line"/>
      <point x="436.334" y="448.333"/>
      <point x="505.334" y="549.667"/>
      <point x="536.001" y="600" type="curve" smooth="yes"/>
      <point x="548.334" y="620.667"/>
      <point x="548.334" y="631"/>
      <point x="532.001" y="632.333" type="curve" smooth="yes"/>
      <point x="479.667" y="636.667" type="line"/>
      <point x="486.667" y="668" type="line"/>
      <point x="690.334" y="668" type="line"/>
      <point x="683.667" y="636.667" type="line"/>
      <point x="660.001" y="635" type="line" smooth="yes"/>
      <point x="633.667" y="633.333"/>
      <point x="615.667" y="619"/>
      <point x="590.334" y="585.667" type="curve" smooth="yes"/>
      <point x="545.667" y="526.667"/>
      <point x="481.667" y="440"/>
      <point x="419.001" y="352" type="curve"/>
      <point x="554.334" y="352" type="line"/>
      <point x="545.001" y="312" type="line"/>
      <point x="391.667" y="312" type="line"/>
      <point x="387.667" y="297.333"/>
      <point x="382" y="279"/>
      <point x="377" y="259.666" type="curve"/>
      <point x="369" y="224.333" type="line"/>
      <point x="532.001" y="224.333" type="line"/>
      <point x="522.667" y="184.333" type="line"/>
      <point x="360" y="184.333" type="line"/>
      <point x="337.334" y="80.333" type="line" smooth="yes"/>
      <point x="336" y="74"/>
      <point x="334.334" y="68"/>
      <point x="334" y="62" type="curve"/>
      <point x="332" y="49.666"/>
      <point x="336" y="42.666"/>
      <point x="347.334" y="39" type="curve"/>
      <point x="350" y="37.666"/>
      <point x="353.334" y="37"/>
      <point x="358" y="36.333" type="curve"/>
      <point x="417.667" y="31.333" type="line"/>
      <point x="411.334" y="0" type="line"/>
      <point x="130.334" y="0" type="line"/>
      <point x="136.667" y="31.333" type="line"/>
      <point x="195.667" y="36" type="line" smooth="yes"/>
      <point x="213.667" y="37.333"/>
      <point x="225.334" y="48.666"/>
      <point x="229.667" y="68.333" type="curve" smooth="yes"/>
      <point x="255.667" y="184.333" type="line"/>
    </contour>
  </outline>
</glyph>
<glyph name="brokenbar" format="2">
  <advance width="268"/>
  <unicode hex="00A6"/>
  <outline>
    <contour>
      <point x="160.667" y="-8.333" type="line"/>
      <point x="160.667" y="341.667" type="line"/>
      <point x="240.667" y="341.667" type="line"/>
      <point x="240.667" y="-8.333" type="line"/>
    </contour>
    <contour>
      <point x="160.667" y="158.333" type="line"/>
      <point x="160.667" y="508.333" type="line"/>
      <point x="240.667" y="508.333" type="line"/>
      <point x="240.667" y="158.333" type="line"/>
    </contour>
  </outline>
</glyph>
<glyph name="section" format="2">
  <advance width="543"/>
  <unicode hex="00A7"/>
  <outline>
    <contour>
      <point x="186.334" y="407" type="curve" smooth="yes"/>
      <point x="185.667" y="360.667"/>
      <point x="207.667" y="309"/>
      <point x="290" y="251.333" type="curve" smooth="yes"/>
      <point x="297.333" y="246"/>
      <point x="304.667" y="241"/>
      <point x="312.333" y="235.667" type="curve" smooth="yes"/>
      <point x="380.667" y="187.333"/>
      <point x="425.667" y="136"/>
      <point x="433.667" y="93" type="curve"/>
      <point x="459.334" y="112.333"/>
      <point x="488.333" y="144"/>
      <point x="493.667" y="190" type="curve" smooth="yes"/>
      <point x="494.333" y="196"/>
      <point x="495" y="202.667"/>
      <point x="495" y="210" type="curve"/>
      <point x="494.333" y="267.333"/>
      <point x="462.667" y="322"/>
      <point x="391" y="372" type="curve" smooth="yes"/>
      <point x="322.667" y="419.333"/>
      <point x="268.667" y="466"/>
      <point x="260" y="519.333" type="curve"/>
      <point x="222.667" y="502"/>
      <point x="187.001" y="460.667"/>
    </contour>
    <contour>
      <point x="93" y="-19.333" type="curve"/>
      <point x="93" y="15.333"/>
      <point x="122.667" y="33.333"/>
      <point x="147" y="33.333" type="curve" smooth="yes"/>
      <point x="162.667" y="33.333"/>
      <point x="171.667" y="21"/>
      <point x="178.334" y="5.333" type="curve" smooth="yes"/>
      <point x="205.334" y="-57.667"/>
      <point x="244" y="-74.667"/>
      <point x="275" y="-76" type="curve" smooth="yes"/>
      <point x="280.333" y="-76.333"/>
      <point x="285" y="-75.667"/>
      <point x="289.667" y="-75" type="curve" smooth="yes"/>
      <point x="322.667" y="-71"/>
      <point x="353.333" y="-46.333"/>
      <point x="358.667" y="-7.667" type="curve" smooth="yes"/>
      <point x="359.333" y="-3"/>
      <point x="360" y="1"/>
      <point x="360" y="5.667" type="curve"/>
      <point x="360.667" y="46"/>
      <point x="350.333" y="96.667"/>
      <point x="247.333" y="163.667" type="curve" smooth="yes"/>
      <point x="142" y="231.667"/>
      <point x="121" y="295.667"/>
      <point x="120.334" y="347.333" type="curve"/>
      <point x="120.334" y="352"/>
      <point x="120.334" y="356.333"/>
      <point x="120.667" y="361" type="curve"/>
      <point x="124.334" y="447.667"/>
      <point x="182.001" y="519.667"/>
      <point x="256.667" y="568.333" type="curve"/>
      <point x="261.667" y="619.667"/>
      <point x="311" y="707"/>
      <point x="433.334" y="707" type="curve" smooth="yes"/>
      <point x="530.334" y="707"/>
      <point x="576.667" y="660.667"/>
      <point x="576.667" y="624" type="curve"/>
      <point x="576" y="593"/>
      <point x="545.667" y="579.667"/>
      <point x="524" y="579.667" type="curve" smooth="yes"/>
      <point x="509.667" y="579.667"/>
      <point x="502.333" y="589"/>
      <point x="494" y="606" type="curve" smooth="yes"/>
      <point x="475.333" y="645.667"/>
      <point x="448" y="666.333"/>
      <point x="415.334" y="668" type="curve" smooth="yes"/>
      <point x="410" y="668.333"/>
      <point x="405" y="667.667"/>
      <point x="399.334" y="667" type="curve" smooth="yes"/>
      <point x="366" y="663"/>
      <point x="338.667" y="638"/>
      <point x="333.333" y="603.333" type="curve" smooth="yes"/>
      <point x="332.667" y="599.333"/>
      <point x="332" y="595.333"/>
      <point x="332" y="591.333" type="curve" smooth="yes"/>
      <point x="332" y="565"/>
      <point x="337.333" y="523.667"/>
      <point x="426.667" y="465" type="curve" smooth="yes"/>
      <point x="434" y="460.333"/>
      <point x="441.667" y="455"/>
      <point x="449" y="450.333" type="curve"/>
      <point x="530.334" y="394.667"/>
      <point x="561.334" y="338.667"/>
      <point x="560.667" y="262" type="curve" smooth="yes"/>
      <point x="559.334" y="174"/>
      <point x="499.667" y="96.667"/>
      <point x="439.334" y="42.333" type="curve"/>
      <point x="432.334" y="-42.333"/>
      <point x="373.667" y="-108.334"/>
      <point x="270.333" y="-114.334" type="curve"/>
      <point x="262.667" y="-115"/>
      <point x="254.333" y="-115"/>
      <point x="246" y="-114.667" type="curve" smooth="yes"/>
      <point x="148.667" y="-112"/>
      <point x="92.334" y="-63.333"/>
    </contour>
  </outline>
</glyph>
<glyph name="dieresis" format="2">
  <advance width="400"/>
  <unicode hex="00A8"/>
  <outline>
    <contour>
      <point x="323.667" y="625.666" type="curve" smooth="yes"/>
      <point x="323.667" y="662.333"/>
      <point x="350.334" y="691.333"/>
      <point x="389.333" y="691.333" type="curve" smooth="yes"/>
      <point x="426.667" y="691.333"/>
      <point x="447.667" y="663"/>
      <point x="447.667" y="633.666" type="curve" smooth="yes"/>
      <point x="447.667" y="598.333"/>
      <point x="423.334" y="568.333"/>
      <point x="382.667" y="568.333" type="curve" smooth="yes"/>
      <point x="344.334" y="568.333"/>
      <point x="323.667" y="593.666"/>
    </contour>
    <contour>
      <point x="265" y="625.666" type="curve" smooth="yes"/>
      <point x="265" y="662.333"/>
      <point x="291.667" y="691.333"/>
      <point x="330.667" y="691.333" type="curve" smooth="yes"/>
      <point x="368" y="691.333"/>
      <point x="389" y="663"/>
      <point x="389" y="633.666" type="curve" smooth="yes"/>
      <point x="389" y="598.333"/>
      <point x="364.667" y="568.333"/>
      <point x="324" y="568.333" type="curve" smooth="yes"/>
      <point x="285.667" y="568.333"/>
      <point x="265" y="593.666"/>
    </contour>
  </outline>
</glyph>
<glyph name="copyright" format="2">
  <advance width="832"/>
  <unicode hex="00A9"/>
  <outline>
    <contour>
      <point x="299" y="348" type="curve" smooth="yes"/>
      <point x="299" y="465.333"/>
      <point x="368" y="549.333"/>
      <point x="510.667" y="549.333" type="curve" smooth="yes"/>
      <point x="561" y="549.333"/>
      <point x="614" y="538.666"/>
      <point x="645.333" y="519" type="curve"/>
      <point x="645.333" y="419" type="line"/>
      <point x="623" y="419" type="line"/>
      <point x="611.333" y="470.667"/>
      <point x="587" y="520"/>
      <point x="511.667" y="520" type="curve" smooth="yes"/>
      <point x="427.333" y="520"/>
      <point x="393" y="443.667"/>
      <point x="393" y="356" type="curve" smooth="yes"/>
      <point x="393" y="268.667"/>
      <point x="422.667" y="179"/>
      <point x="517" y="179" type="curve" smooth="yes"/>
      <point x="579.333" y="179"/>
      <point x="611.667" y="218.667"/>
      <point x="631.667" y="283.333" type="curve"/>
      <point x="654" y="283.333" type="line"/>
      <point x="643" y="180.667" type="line"/>
      <point x="615" y="161.334"/>
      <point x="565.667" y="149.667"/>
      <point x="505.667" y="149.667" type="curve" smooth="yes"/>
      <point x="355.667" y="149.667"/>
      <point x="299" y="235.333"/>
    </contour>
    <contour>
      <point x="196.333" y="346" type="curve" smooth="yes"/>
      <point x="196.333" y="172"/>
      <point x="326.333" y="36"/>
      <point x="490" y="36" type="curve" smooth="yes"/>
      <point x="653.666" y="36"/>
      <point x="783.667" y="172"/>
      <point x="783.667" y="346" type="curve" smooth="yes"/>
      <point x="783.667" y="520"/>
      <point x="653.666" y="656"/>
      <point x="490" y="656" type="curve" smooth="yes"/>
      <point x="326.333" y="656"/>
      <point x="196.333" y="520"/>
    </contour>
    <contour>
      <point x="126" y="346" type="curve" smooth="yes"/>
      <point x="126" y="546"/>
      <point x="289" y="707"/>
      <point x="490" y="707" type="curve" smooth="yes"/>
      <point x="691" y="707"/>
      <point x="854" y="546"/>
      <point x="854" y="346" type="curve" smooth="yes"/>
      <point x="854" y="146"/>
      <point x="691" y="-15"/>
      <point x="490" y="-15" type="curve" smooth="yes"/>
      <point x="289" y="-15"/>
      <point x="126" y="146"/>
    </contour>
  </outline>
</glyph>
<glyph name="ordfeminine" format="2">
  <advance width="431"/>
  <unicode hex="00AA"/>
  <outline>
    <contour>
      <point x="196.333" y="344.666" type="curve" smooth="yes"/>
      <point x="196.333" y="326.666"/>
      <point x="202" y="316.333"/>
      <point x="213" y="313.666" type="curve"/>
      <point x="216.333" y="313"/>
      <point x="220.666" y="312.333"/>
      <point x="224.666" y="312.666" type="curve" smooth="yes"/>
      <point x="246.333" y="314.333"/>
      <point x="273.666" y="338"/>
      <point x="299.666" y="371" type="curve"/>
      <point x="307" y="379.333"/>
      <point x="313.333" y="389.333"/>
      <point x="319.666" y="398.666" type="curve" smooth="yes"/>
      <point x="352.666" y="448.667"/>
      <point x="374.666" y="508.667"/>
      <point x="387" y="548.333" type="curve"/>
      <point x="380" y="556"/>
      <point x="365.666" y="560"/>
      <point x="348.666" y="560" type="curve" smooth="yes"/>
      <point x="260.333" y="560"/>
      <point x="196.333" y="412"/>
    </contour>
    <contour>
      <point x="107" y="341" type="curve" smooth="yes"/>
      <point x="107" y="421.333"/>
      <point x="180" y="579.334"/>
      <point x="329.333" y="589.334" type="curve"/>
      <point x="335.666" y="590"/>
      <point x="342.666" y="590"/>
      <point x="348.666" y="589.667" type="curve"/>
      <point x="369.666" y="589.334"/>
      <point x="385" y="585.334"/>
      <point x="398.333" y="577.667" type="curve"/>
      <point x="401" y="585" type="line"/>
      <point x="484.333" y="585" type="line"/>
      <point x="415.666" y="347" type="line" smooth="yes"/>
      <point x="409.666" y="326"/>
      <point x="408.333" y="312.333"/>
      <point x="420" y="312.333" type="curve" smooth="yes"/>
      <point x="438.333" y="312.333"/>
      <point x="466.666" y="352"/>
      <point x="481.666" y="375.666" type="curve"/>
      <point x="502.333" y="363.666" type="line"/>
      <point x="474.666" y="309.666"/>
      <point x="430.666" y="265"/>
      <point x="371.333" y="265" type="curve" smooth="yes"/>
      <point x="339.666" y="265"/>
      <point x="323" y="287.333"/>
      <point x="333" y="328.333" type="curve" smooth="yes"/>
      <point x="334.666" y="334.666"/>
      <point x="336" y="340.666"/>
      <point x="338" y="347.333" type="curve" smooth="yes"/>
      <point x="353" y="397.666" type="line"/>
      <point x="349.666" y="398" type="line"/>
      <point x="313" y="343"/>
      <point x="257" y="265"/>
      <point x="175.333" y="265" type="curve" smooth="yes"/>
      <point x="127.333" y="265"/>
      <point x="107" y="300"/>
    </contour>
  </outline>
</glyph>
<glyph name="guillemotleft" format="2">
  <advance width="495"/>
  <unicode hex="00AB"/>
  <outline>
    <contour>
      <point x="252" y="225.667" type="line" smooth="yes"/>
      <point x="244.333" y="236.667"/>
      <point x="246.667" y="249.333"/>
      <point x="257" y="259.333" type="curve"/>
      <point x="438" y="444.667" type="line"/>
      <point x="459.333" y="426.333" type="line"/>
      <point x="354.667" y="260.667" type="line" smooth="yes"/>
      <point x="347" y="248.333"/>
      <point x="345.333" y="237.333"/>
      <point x="349.333" y="224.667" type="curve" smooth="yes"/>
      <point x="401.667" y="55.333" type="line"/>
      <point x="377" y="39.667" type="line"/>
    </contour>
    <contour>
      <point x="188.667" y="225.667" type="line" smooth="yes"/>
      <point x="181" y="236.667"/>
      <point x="183.334" y="249.333"/>
      <point x="193.667" y="259.333" type="curve"/>
      <point x="374.667" y="444.667" type="line"/>
      <point x="396" y="426.333" type="line"/>
      <point x="291.333" y="260.667" type="line" smooth="yes"/>
      <point x="283.667" y="248.333"/>
      <point x="282" y="237.333"/>
      <point x="286" y="224.667" type="curve" smooth="yes"/>
      <point x="338.333" y="55.333" type="line"/>
      <point x="313.667" y="39.667" type="line"/>
    </contour>
  </outline>
</glyph>
<glyph name="logicalnot" format="2">
  <advance width="580"/>
  <unicode hex="00AC"/>
  <outline>
    <contour>
      <point x="101.333" y="326.333" type="line"/>
      <point x="101.333" y="391.666" type="line"/>
      <point x="585.333" y="391.666" type="line"/>
      <point x="585.333" y="99.666" type="line"/>
      <point x="508" y="99.666" type="line"/>
      <point x="508" y="326.333" type="line"/>
    </contour>
  </outline>
</glyph>
<glyph name="uni00AD" format="2">
  <advance width="392"/>
  <unicode hex="00AD"/>
  <outline>
    <contour>
      <point x="113.333" y="211.667" type="line"/>
      <point x="129.333" y="290" type="line"/>
      <point x="380.333" y="290" type="line"/>
      <point x="364.333" y="211.667" type="line"/>
    </contour>
  </outline>
</glyph>
